<svg viewBox="0 0 80 80" xmlns="http://www.w3.org/2000/svg" >
<path fill="#002b5c" d="M42.48 59.78a8.34 8.34 0 0 0-1.26 0 3.24 3.24 0 0 1 .88-.48 6.2 6.2 0 0 0-1.89.27 7.82 7.82 0 0 1 1.14-.84h-8.13l.21-.47a3.16 3.16 0 0 1-1.42.46H17.35l4.07-5.83-1.5.3 1.41-1.54-2.39.59S21.71 48.94 25 49h8.45c2.85 0 3 .65 3 .74 0-.68-.75-.74-.75-.74h27.17l9.86 1.14-2.62 8.64h-3.79l-.76 1a3.36 3.36 0 0 1-.13 1.35 3.29 3.29 0 0 1-3.3 2.28H44.54c-3.3 0-2.41-2.77-2.06-3.62"/>
<path fill="#ffd200" d="M47.28 58.29L46.71 60a1 1 0 0 0-.81-.44 1.39 1.39 0 0 0-1.21.84.59.59 0 0 0 .61.85 1.9 1.9 0 0 0 1.09-.4l-.65 1.63a4.51 4.51 0 0 1-1.24.17 1.51 1.51 0 0 1-1.5-2.26 3.44 3.44 0 0 1 .67-1.07c-.48 0-1.1.08-1.1.08a3.5 3.5 0 0 1 1.47-.58 6.89 6.89 0 0 0-1.86.17 7.15 7.15 0 0 1 4.47-.85 3 3 0 0 1 .62.15m-3.23.53"/>
<path fill="#002b5c" d="M6.31 24.84s34-23.5 59.34 8.9c0 0 14 9 7.83 21L72.17 51a40.69 40.69 0 0 1-13-2.94 19.91 19.91 0 0 0-13.39-.49 4.84 4.84 0 0 1 1.55-2.85s-6.5 2.48-7.33 4.44c0 0 .32-3.43 1.88-5.22a24.22 24.22 0 0 0-7.1 3.18A9.87 9.87 0 0 1 39 41.33a35.66 35.66 0 0 0-14.9 4.08s5.31-9.88 13.55-13.14a40 40 0 0 0-15.91-1.06 19.64 19.64 0 0 1 11.18-5.8s-15.1-3-26.61-.57"/>
<path fill="#e31937" d="M24.9 50h3.39l.32 4.77 1.27-4.15a.64.64 0 0 0 0-.39.44.44 0 0 0-.36-.24H33c2.38 0 4 .9 3.65 3.11l.76-2.47a.76.76 0 0 0 0-.4A.44.44 0 0 0 37 50h5.85l-.63 2h-2.39l-.22.72h2.2l-.6 1.94H39l-.23.74h2.49l-.63 2h-5.35l.91-3a5.27 5.27 0 0 1-4.8 3h-5.62v-.93h-2.13l-.52.93h-3l3.42-5.1a2.4 2.4 0 0 0 .21-.64 5.91 5.91 0 0 0-1.85.36 7.41 7.41 0 0 1 1.65-.92c-.62-.44-2.36.2-2.36.2A6.41 6.41 0 0 1 24.9 50zm8.7 3.85c.33-1.06-.17-1.5-1.22-1.5h-.17l-.89 2.9h.17a2 2 0 0 0 2.11-1.39zm-8.91.93h1.15l.07-1.32c0-.32.07-.65.11-1zm23.53-2.28l.06-.12a2.14 2.14 0 0 0 .21-.64 5.91 5.91 0 0 0-1.85.36 7.41 7.41 0 0 1 1.65-.92c-.62-.44-2.36.2-2.36.2A6.84 6.84 0 0 1 50.38 50h2.67l.42 6.41 2-6.4h6.2c2.22 0 3.77.78 3.69 2.68l.49-1.69.08-.27a.72.72 0 0 0 0-.46.44.44 0 0 0-.35-.25h5.85l-.63 2h-2.41l-.22.72h2.2l-.6 2h-2.2l-.22.73h2.49l-.63 2.05h-5.37l.79-2.52A5.3 5.3 0 0 1 60 57.51h-3.58l2.14-7a.7.7 0 0 0 0-.29.39.39 0 0 0-.25-.22L56 57.51h-5.48v-.93h-2.13l-.52.93H40.8L43.11 50H46l-1.6 5.1h2.07l1.75-2.6zm14 1.37c.32-1-.18-1.5-1.22-1.5h-.16l-.84 2.9h.18a2 2 0 0 0 2.07-1.4zm-12.8.93h1.14l.07-1.32c0-.32.07-.65.11-1z"/>
<path fill="#004b8d" d="M15.72 22.09s29.56-13.44 48.49 13c0 0 11.56 8.17 9.18 15.47a19.4 19.4 0 0 0-.87-3.25c-.58-1.52-9.25-8.75-18-10.27l1.37 4.19.29-2.52s4.33 5.78 14.67 9.83c0 0-.8 1.44-7.66-.94s-9.54-3.4-12.72-2.9a7.87 7.87 0 0 1 5.78-1.37s-4-2-12 .72a8.81 8.81 0 0 1 4.63-2.53s-3.54-.94-10.48 2.39c0 0 3.9-3.83 7.52-4.34a35.52 35.52 0 0 0-16.84 1.81s3.18-5.85 14.74-10a56 56 0 0 0-17.56-2 26.33 26.33 0 0 1 13.51-3.32s-8.09-5.06-24.06-4"/>
<path fill="#004b8d" d="M49.19 23.53a26.9 26.9 0 0 0-12.06-3.94 74.06 74.06 0 0 0-15 .82s14-1.49 27.09 3.12"/>
<path d="M72.79 45.49a32.61 32.61 0 0 0-6-7.44l-3.2-2.61.37 1.86a62.89 62.89 0 0 1 8.86 8.19m-23.6-22a26.9 26.9 0 0 0-12.06-3.94 74.06 74.06 0 0 0-15 .82s14-1.49 27.09 3.12m-15.57 4.17a14.69 14.69 0 0 1 11.83.39 41.93 41.93 0 0 0-11.83-.39" fill="#33619e"/>
<path fill="#ffd200" d="M55.76 29.7c-.07 0-2.48 1-1.52 2.92a2.26 2.26 0 0 0 4.13-.92"/>
<path fill="#002b5c" d="M56.54 30.19a48.61 48.61 0 0 0-6.22-.71s2.94.82 3.71 2.05c0 0 .21-1.88 2.51-1.34m2.28 1.63s.46 1.41-.49 2.1-4 1.35-4.52-1.76a2.56 2.56 0 0 0 3.27 1.28c2.25-.84.06-3.2.06-3.2z"/>
<path fill="#002b5c" d="M57.4 30.83l-1.12-1.34-.91 1.31a1 1 0 0 0-.07 1.1 1.14 1.14 0 0 0 1.63.46c.85-.39.47-1.52.47-1.52"/>
<path fill="#e31937" d="M56.1 29.92c-.05 0-1.76.72-1.09 2.1a1.59 1.59 0 0 0 3-.66c.22-1.55-.34-.44-.34-.44s-.59 1.94-1.77 1.22 0-2 .84-1.76-.6-.46-.6-.46"/>
<path fill="#002b5c" d="M60.6 34.72s.47-5.75-10.54-7.55c0 0 8.16 3.8 10.54 7.55"/>
<path fill="#ffd200" d="M49.23 59.75c-.12.32-.41.36-.68.36h-.12l.28-.74h.13c.28 0 .51.05.39.38m1.63 0c.41-1.09-.3-1.51-1.33-1.51H47.3a.13.13 0 0 1 .13.09.33.33 0 0 1 0 .24l-1.49 4h1.61l.52-1.39.2 1.39h1.91l-.46-1.41a.84.84 0 0 0-.18-.27 1.64 1.64 0 0 0 1.3-1.13"/>
<path fill="#ffd200" d="M53.28 59.56c.53 0 .71.39.54.85a1.28 1.28 0 0 1-1.16.83c-.5 0-.73-.34-.54-.84a1.29 1.29 0 0 1 1.16-.84m.54-1.43a3.65 3.65 0 0 0-3.36 2.25c-.52 1.39.3 2.23 1.68 2.23a3.58 3.58 0 0 0 3.35-2.22c.51-1.37-.29-2.26-1.67-2.26"/>
<path fill="#ffd200" d="M55.49 58.2v4.35h1.41l1.07-1.71a6 6 0 0 0 .35-.66h.06L58 62.56h1.44l3.24-4.36h-1.75L59.78 60a7 7 0 0 0-.4.77l.35-2.61h-1.29L57.28 60a6.23 6.23 0 0 0-.44.8l.4-2.6z"/>
<path fill="#ffd200" d="M60.44 62.24a3.3 3.3 0 0 0 1.6.4 2.69 2.69 0 0 0 2.55-1.55c.28-.74-.09-1.1-.74-1.25l-.34-.08c-.12 0-.31 0-.25-.21a.46.46 0 0 1 .44-.23 1.25 1.25 0 0 1 .84.33l.86-1.11a2.05 2.05 0 0 0-1.3-.39 2.77 2.77 0 0 0-2.57 1.61c-.26.68.15 1 .75 1.15l.31.06c.14 0 .35.05.28.24s-.35.26-.52.26a1.2 1.2 0 0 1-.88-.4l-.06-.07zm-10-10.19s-1.44 2.42-1.55 2.64-.22.66.41.66h1.61l-.32-.44H49.2l1.48-2.51zm10 0l.3.26-.94 3.06a3.51 3.51 0 0 0 1.61-.21s-2.39 1.24-2 0 .47-1.5 1-3.06m7.59-.58l-.4 1.32c0 .11-.14.43.35.43h1.75l-.3 1 .29.34.52-1.73H68l.3-1-.3-.36zm-.84 2.7l-.38 1.3c0 .11-.14.43.34.43h2.08l-.29 1 .26.34.52-1.72h-2.51l.28-.94zm-16.73-4.06h2.44l.44 6.62a.31.31 0 0 0 .27.27.59.59 0 0 1-.77-.58c-.06-.78-.35-5.91-.35-5.91h-2.28zm-7.24 0l.19.4h1.75s-1.38 4.34-1.45 4.54a.51.51 0 0 0 .51.6h2.35l-.27-.42h-2.11l1.58-5.12z"/>
<path fill="#ffe694" d="M47.52 58.23l.14.2h2.19a1 1 0 0 1 .81 1.45 1.31 1.31 0 0 0 .19-1.06 1 1 0 0 0-1-.57h-2.34m-.83 1.53l-.18-.33.34-1a4.88 4.88 0 0 0-1.62-.08 15.13 15.13 0 0 0-2.37.41 6.38 6.38 0 0 1 4.31-.45zm-2.06.05a1.63 1.63 0 0 0-.3 1.18c.18.51 1 .63 1.56.37l-.44 1 .24-.06.55-1.32a1.64 1.64 0 0 1-1 .3.68.68 0 0 1-.54-1.11z"/><path fill="#ffe694" d="M43.73 59a4.05 4.05 0 0 0-.59.23 9.84 9.84 0 0 1 1.06-.1"/><path fill="#ffd200" d="M48.62 51.24a5.28 5.28 0 0 0-.91.42 9.78 9.78 0 0 1 1.7-.25"/><path fill="#ffe694" d="M48 61l-.11-.3-.55 1.5.15.21zm1.27-.26l.54 1.51.3.19s-.44-1.32-.48-1.41-.36-.29-.36-.29m-.75-1.7a8.16 8.16 0 0 0-.36 1c0 .15 0 .24.37.24a.69.69 0 0 0 .49-.21 2.07 2.07 0 0 1-.67 0l.3-.87zm3.79.49a1.57 1.57 0 0 0-.61 1.33c.12.8 1 .66 1.71.36a7.73 7.73 0 0 1-.81 0c-.2 0-.79-.1-.59-.87a1.48 1.48 0 0 1 .26-.43zm-.51-.74a2.94 2.94 0 0 1 1.36-.6c.76-.1 1.92-.11 2.4.86l-.26.06a2 2 0 0 0-1.75-.77 2.61 2.61 0 0 0-1.75.45m3.73-.59l.07.19h1.28s-.36 2.39-.36 2.52c0 .35.34-.1.34-.1s-.16.13-.11-.15c0-.1.38-2.47.38-2.47zm2.93 0l.07.19h.85s-.32 2.39-.32 2.52c0 .35.35-.1.35-.1s-.16.13-.11-.15c0-.1.33-2.47.33-2.47zm-1.63 4.25l-.12-.23 1.44-2.32.11.2zm2.55 0l-.09-.14 2.26-3.06v.34zM61 58.24h1.62s-.58.66-.46.67a.64.64 0 0 0 .28-.06s-.59.35-.48 0a1.21 1.21 0 0 1 .29-.47h-1.17zm1.6.48a2.06 2.06 0 0 1 1.07-.47 2.28 2.28 0 0 1 1.65.31l-.73 1-.08-.26.46-.6a2.75 2.75 0 0 0-2.37.06m.51.72s-.3.28 0 .43a5.37 5.37 0 0 0 .91.29c.53.15.59.89-.26 1.79a1.59 1.59 0 0 0 .83-1c.17-.63-.3-.9-.71-1s-.77-.14-.68-.33z"/><path fill="#ffd200" d="M55.51 50.16h2.61l-2.23 7.16-.38-.32 2-6.43h-1.85z"/><path d="M56.55 30.91s-.67.27-.7.68a.74.74 0 0 1 .24-1l.46.32z" fill="#fff"/><path fill="#ffd200" d="M47 50.91a6.8 6.8 0 0 1 3.43-.75l.3.41a15.88 15.88 0 0 0-3.73.34m-21.4 1.14s-1.39 2.42-1.53 2.64-.21.66.42.66h1.6l-.32-.44H24.4l1.48-2.51zm0-1.89h2.43s.44 6.57.44 6.62a.31.31 0 0 0 .27.27.59.59 0 0 1-.77-.58c-.06-.78-.35-5.91-.35-5.91h-2.25zm-1.82 1.08a5.28 5.28 0 0 0-.91.42 9.78 9.78 0 0 1 1.7-.25"/><path fill="#ffd200" d="M22.2 50.91a6.8 6.8 0 0 1 3.43-.75l.3.41a15.92 15.92 0 0 0-3.73.34m43.86-.75a.46.46 0 0 1 .09.4h4.57l-.32 1 .31.42.56-1.82zm-26.7 1.36L39 52.84c0 .11-.14.43.34.43h1.8l-.3 1 .28.34.52-1.73H39.4l.29-1-.33-.43zm-.84 2.71l-.39 1.29c0 .12-.13.43.35.43h2.08l-.3 1 .26.34.48-1.69h-2.43l.28-.94zm-1.07-4.07a.48.48 0 0 1 .09.4h4.58l-.32 1 .31.42.56-1.82zM65 51.57c-.56-1.14-1.91-1.41-3.09-1.41H58.6a.46.46 0 0 1 .1.4h3.43c1.52 0 3.09.94 2.78 3.37a3.86 3.86 0 0 0 0-2.36M31.8 52l.3.26-.94 3.06a3.51 3.51 0 0 0 1.61-.21s-2.39 1.24-2-.06.47-1.49 1-3.06m4.51-.48a3.22 3.22 0 0 0-3.08-1.41H30a.48.48 0 0 1 .1.41h3.43c1.52 0 3.09.94 2.78 3.37a3.89 3.89 0 0 0 0-2.37"/></svg>
