<svg id="Layer_1" data-name="Layer 1" xmlns="http://www.w3.org/2000/svg" viewBox="0 0 80 80"><defs><style>.cls-1{fill:#8b0042;}.cls-2{fill:#0055a3;}.cls-3{fill:#edc157;}.cls-4{fill:#69003d;}.cls-5{fill:#f8e3a2;}.cls-6{fill:#fff;}.cls-7{fill:none;}</style></defs><title>brisbane-lions</title><path class="cls-1" d="M15.16,27.16V18.62a2.6,2.6,0,0,0-.76-2.31h5.21a2.65,2.65,0,0,0-.75,2.31v8.64a6.78,6.78,0,0,0,2.12.35,4.51,4.51,0,0,0,2.66-.9l-.7,2.78H14.4a2.73,2.73,0,0,0,.76-2.33m13.71,2.33H23.66a2.73,2.73,0,0,0,.76-2.33V18.62a2.6,2.6,0,0,0-.76-2.31h5.21a2.65,2.65,0,0,0-.76,2.31v8.54a2.73,2.73,0,0,0,.76,2.33m7.7-1.61c2,0,3.42-1.56,3.42-4.38,0-3.34-1.51-5.41-3.65-5.41s-3.41,1.56-3.41,4.36c0,3.37,1.52,5.43,3.64,5.43m-7.57-5a6.83,6.83,0,0,1,2.36-5A7.64,7.64,0,0,1,36.45,16c4.42,0,7.47,2.86,7.47,6.91a6.88,6.88,0,0,1-2.35,5,7.55,7.55,0,0,1-5.12,1.86c-4.37,0-7.45-2.89-7.45-6.92"/><path class="cls-1" d="M44.79,26.19V19.11a3.4,3.4,0,0,0-1-2.8H47.8l6,8.07V19.17a4.08,4.08,0,0,0-.93-2.86h3.77a5,5,0,0,0-.78,2.91v10.6c-2.86-.33-3.81-1.69-5-3.26l-4-5.2V27a3,3,0,0,0,.87,2.53H43.87c.92-1,.92-1.92.92-3.3m16,1.47c1.24,0,2-.64,2-1.45,0-1.25-1.36-1.6-3.21-2.55s-2.78-2.28-2.78-3.83c0-2.24,1.81-3.84,4.84-3.84a9.47,9.47,0,0,1,3.31.63v2.21a6.57,6.57,0,0,0-2.74-.89c-1,0-1.73.58-1.73,1.28,0,1.09,1.4,1.48,3.67,2.73a3.8,3.8,0,0,1,2.22,3.57c0,2.48-2,4.19-5.19,4.19a12.37,12.37,0,0,1-3.91-.7l-.68-2.8a8.1,8.1,0,0,0,4.2,1.45"/><path class="cls-2" d="M25.49,14.08a.67.67,0,0,0,.66-.72.68.68,0,0,0-.67-.77l-.25,0v1.43l.26,0M25.41,12c.28,0,.45-.2.45-.53a.45.45,0,0,0-.44-.5l-.19,0v1a.69.69,0,0,0,.18,0M24,13.93V11.07a.91.91,0,0,0-.25-.77h1.64c1.1,0,1.66.39,1.66,1a.94.94,0,0,1-.66.88,1.14,1.14,0,0,1,.91,1.15,1.35,1.35,0,0,1-.36.92,1.61,1.61,0,0,1-1.29.43h-1.9a1,1,0,0,0,.25-.79m6.42-2.31a.59.59,0,0,0-.62-.66h-.1v1.51A.85.85,0,0,0,30.4,11.62Zm-2.21,3.1a.92.92,0,0,0,.25-.79V11.07a.88.88,0,0,0-.25-.77h1.72c1.14,0,1.71.38,1.71,1.18a1.16,1.16,0,0,1-.81,1.07l.8,1.37a4.49,4.49,0,0,0,.59.74l-.74.07h-.17c-.49,0-.75-.25-1-.8l-.57-1.12v1.12a.94.94,0,0,0,.25.78Zm6.25,0H32.7a1,1,0,0,0,.25-.79V11.08a.89.89,0,0,0-.25-.78h1.74a.89.89,0,0,0-.25.78v2.85a.92.92,0,0,0,.25.79m2.29-.62c.42,0,.67-.21.67-.48s-.45-.54-1.07-.86a1.46,1.46,0,0,1-.93-1.28c0-.75.6-1.28,1.62-1.28a3.12,3.12,0,0,1,1.11.21v.74a2.16,2.16,0,0,0-.92-.3c-.35,0-.58.19-.58.43s.47.49,1.23.91a1.27,1.27,0,0,1,.74,1.2c0,.82-.68,1.4-1.74,1.4a4.13,4.13,0,0,1-1.31-.24l-.22-.93a2.7,2.7,0,0,0,1.4.48m4.43,0a.66.66,0,0,0,.65-.72c0-.47-.26-.77-.66-.77l-.25,0v1.43l.26,0M41.07,12c.28,0,.46-.2.46-.53a.46.46,0,0,0-.45-.5l-.18,0v1a.59.59,0,0,0,.17,0m-1.42,1.94V11.07a.89.89,0,0,0-.26-.77H41c1.11,0,1.67.39,1.67,1a1,1,0,0,1-.66.88,1.13,1.13,0,0,1,.9,1.15,1.34,1.34,0,0,1-.35.92,1.62,1.62,0,0,1-1.3.43h-1.9a.92.92,0,0,0,.25-.79m6.16-1.14-.45-1.36-.45,1.36Zm-2.08,1.27,1-3a1.12,1.12,0,0,0,.1-.38.64.64,0,0,0-.22-.42H46.2l1.25,3.62a2.3,2.3,0,0,0,.49.8H46a.66.66,0,0,0,.23-.46.56.56,0,0,0,0-.22L46,13.41H44.68l-.21.6a1.31,1.31,0,0,0-.06.27.65.65,0,0,0,.21.44H43.33a2.13,2.13,0,0,0,.39-.66Zm4.89-.45V11.24a1.16,1.16,0,0,0-.35-.94h1.36l2,2.7V11.26a1.36,1.36,0,0,0-.31-1h1.26a1.7,1.7,0,0,0-.26,1v3.55a2.19,2.19,0,0,1-1.68-1.1L49.3,12v1.88a1,1,0,0,0,.29.85H48.3a1.4,1.4,0,0,0,.31-1.11m5.15.33V11.08a.89.89,0,0,0-.25-.78h2.58v.92a.78.78,0,0,0-.63-.25H55v1.1h.85v.84a.58.58,0,0,0-.48-.22H55V14a2.73,2.73,0,0,0,.49.06,1.7,1.7,0,0,0,1.11-.33l-.24,1H53.51a.94.94,0,0,0,.25-.78"/><path class="cls-3" d="M39.2,25.5a15.64,15.64,0,0,0-7,1s.47.52.41.87c0,0-4.93,1.09-6.72,4.16,0,0,.71.06.88.53,0,0-3.78,2.45-3.9,5,0,0,1.42.41.65,1s-3.25,1.69-3.37,3.15c0,0,1.53-.09,1.13,1.35A12.74,12.74,0,0,0,20.81,46c0,14.26,19.6,24.17,19.6,24.17S60,60.27,60,46a12.68,12.68,0,0,0-1-5,1.06,1.06,0,0,1,.65-.18,6.47,6.47,0,0,0-1.82-3.34c-.76-.83-1-2.28,0-2.38,0,0-.12-.9-2.11-1.22-.48-.08-.54-.06-.82-.53a2.4,2.4,0,0,1-.12-2,1.75,1.75,0,0,0-1.34,0s-1.64-3.59-3.65-4.11a.75.75,0,0,1-.34.53s-2.54-2.89-5-3a1.43,1.43,0,0,1-.21.78,18.58,18.58,0,0,0-5.1-.75.9.9,0,0,1,.06.72"/><path class="cls-1" d="M26.46,38.29a6,6,0,0,1-2.06.49,3.73,3.73,0,0,0,2.22.6,9,9,0,0,1-.16-1.09"/><path class="cls-1" d="M59.36,46.91c-.68-6.23-3.7-8.79-3.7-8.79a3.35,3.35,0,0,1,2.37,1c-2.14-4.15-4.34-5.05-5.29-5.24,1.36.84,2.3,3,1.07,6.89A6.72,6.72,0,0,0,51.3,38C52,37.6,53,38.2,53,38.2a3.14,3.14,0,0,0-2.87-2A2.5,2.5,0,0,1,52.45,36c-1.67-1.63-4.32-.94-4.32-.94a4.33,4.33,0,0,1,3.29-1.62,2.8,2.8,0,0,1,.88.2,2.27,2.27,0,0,1,1.45-1.47c-1.89-.56-4.13.89-4.13.89A8.87,8.87,0,0,0,50.29,29a14.91,14.91,0,0,1-3.46,5.69c1.81-3.55-.32-8.1-.32-8.1.73,4.75-1.61,7.29-1.61,7.29.41-5.72-2.09-7.49-2.09-7.49,1.88,2.9.32,7.06.32,7.06a8.56,8.56,0,0,0-5.9-6.93c4.7,2.87,4,8.61,4,8.61a9.67,9.67,0,0,0-4.59-6.58,10.23,10.23,0,0,1,2.58,5.73c-3.43-6.91-9.51-5.18-9.51-5.18a7.93,7.93,0,0,1,7.13,5.23,8.1,8.1,0,0,0-8.43-3.24,6.22,6.22,0,0,1,5.11,3c-4.73-3.63-8.91,1-8.91,1,1.34-.45,1.85.29,1.85.29a4.69,4.69,0,0,0-2.06,1.8,3.35,3.35,0,0,1,2-.14c0-.35.23-2.87,2.31-3.48,2.28-.66,3.93,1.51,3.93,1.51-3-.64-4.3.94-4.3.94,1.59-.53,2.25.25,2.25.25a3,3,0,0,0-2.86,1.94c1.22-.61,1.75-.2,1.75-.2a7.35,7.35,0,0,1-6.91,2.08A8.63,8.63,0,0,0,29,41a9.8,9.8,0,0,1-6.86,1.51c3.86,2.21,6,1.3,6,1.3-1.56,2.23-6.29,2.1-6.29,2.1a8.09,8.09,0,0,0,6.29.84,4.12,4.12,0,0,1-2.76,1.54,4.85,4.85,0,0,0,3.22.46c-1.52,1.49-4.87.85-4.87.85a7.69,7.69,0,0,0,6,1.33,7,7,0,0,1-7.17.24c2.62,2.8,7.4,2.54,7.4,2.54a5.67,5.67,0,0,1-4.07.77,5.35,5.35,0,0,0,3.33,1.48,6.75,6.75,0,0,1-4.62-.19c2.17,2.67,6.18,2.54,6.18,2.54-1.3.86-3.65.4-3.65.4a9.24,9.24,0,0,0,6.27,1.73,7.46,7.46,0,0,1-4.67.4c3.39,1.82,5.44,1.64,5.44,1.64A2.82,2.82,0,0,1,32,63s2.37,1.9,4,3.11a48.34,48.34,0,0,0,4.45,2.78c9-5.06,8.31-7.8,8.31-7.8a3,3,0,0,1,.85,1.42A10,10,0,0,0,53,56.39c.75,1.41-.07,3.5-.07,3.5,3.61-3.93,2.34-7.84,2.34-7.84,1.07.39,1.22,2.91,1.22,2.91,3.71-6.39.24-11.39.24-11.39,1.25.39,2.6,3.34,2.6,3.34"/><path class="cls-4" d="M59.36,46.91c-.68-6.23-3.7-8.79-3.7-8.79a3.35,3.35,0,0,1,2.37,1c-2.14-4.15-4.34-5.05-5.29-5.24,1.36.84,2.3,3,1.07,6.89A6.72,6.72,0,0,0,51.3,38C52,37.6,53,38.2,53,38.2a3.14,3.14,0,0,0-2.87-2A2.5,2.5,0,0,1,52.45,36c-1.67-1.63-4.32-.94-4.32-.94l-.57.11a10.55,10.55,0,0,0-4.27.43c-2.54.86-2.73,3.66-2.89,3.66s-.35-2.8-2.89-3.66a10.55,10.55,0,0,0-4.27-.43s1.3.29,1.28.74c0,.28-.47.36-1,.46a3.87,3.87,0,0,0-1.73.81S33,37,33.1,37.32,32,38.39,30.43,39c0,0,.7,0,.87.35s-.32,1.16-.54,1.47a6.82,6.82,0,0,0-.38,8c.75,1.3,3,4.94,3,4.94a4.16,4.16,0,0,0-.34,2.05c.12,1.56.12,2.29.83,3.12a2.91,2.91,0,0,1,.79,1.92,3,3,0,0,0,1.36,2.87s.16-.38.44-.46A3.86,3.86,0,0,0,38,64.33c1.47.78,2.32,1.57,2.41,4.56h0c9-5.07,8.31-7.8,8.31-7.8a3,3,0,0,1,.85,1.42A10,10,0,0,0,53,56.39c.75,1.41-.07,3.5-.07,3.5,3.61-3.94,2.34-7.84,2.34-7.84,1.07.39,1.22,2.91,1.22,2.91,3.71-6.39.24-11.39.24-11.39,1.25.39,2.6,3.34,2.6,3.34"/><path class="cls-3" d="M51.41,46.12a6.8,6.8,0,0,0-1.35-5.35c-.15-.19-1.07-1.31-1.69-2-.35-.42-.91-1-.8-1.27.18-.52,1.4-.29,1.4-.29a3.8,3.8,0,0,0-1.73-.81c-.43-.12-1-.18-1-.46,0-.45,1.28-.74,1.28-.74a10.6,10.6,0,0,0-4.28.43c-2.53.86-2.72,3.66-2.88,3.66s-.35-2.8-2.89-3.66a10.55,10.55,0,0,0-4.27-.43s1.3.29,1.28.74c0,.28-.47.36-1,.46a3.87,3.87,0,0,0-1.73.81S33,37,33.1,37.32,32,38.39,30.43,39c0,0,.69,0,.87.35s-.32,1.16-.55,1.47a6.83,6.83,0,0,0-.37,8c.75,1.3,3,4.94,3,4.94a2.22,2.22,0,0,1,1.37-1.21A2.52,2.52,0,0,0,33.71,54a10.22,10.22,0,0,1,3.85.34.26.26,0,0,1,.17.33.27.27,0,0,1-.33.17,10.06,10.06,0,0,0-7.27.39l0,.09a9.7,9.7,0,0,1,3.44-.79,5.09,5.09,0,0,0-.06.64,8.79,8.79,0,0,1,3.61.24.26.26,0,0,1,.19.32.27.27,0,0,1-.33.18,8.91,8.91,0,0,0-6.51.41l0,.09a8.36,8.36,0,0,1,3-.73,4.9,4.9,0,0,0,.07.62h0a8,8,0,0,1,3.12.17.27.27,0,0,1,.19.31.26.26,0,0,1-.33.19,7.79,7.79,0,0,0-5.73.44l0,.09a7.4,7.4,0,0,1,2.81-.69c0,.25.09.47.11.59A1.52,1.52,0,0,0,36,58.53l3-1.42a2.55,2.55,0,0,0,1.47-2,2.54,2.54,0,0,0,1.46,2l3,1.42A1.53,1.53,0,0,0,47,57.38c0-.15.06-.36.1-.59a7.54,7.54,0,0,1,2.81.69l0-.09A7.75,7.75,0,0,0,44.2,57a.26.26,0,1,1-.15-.49,7.86,7.86,0,0,1,3.13-.18s.06-.38.08-.62a8.36,8.36,0,0,1,3,.73l0-.09a8.91,8.91,0,0,0-6.51-.41.25.25,0,0,1-.32-.17.26.26,0,0,1,.17-.33h0a8.9,8.9,0,0,1,3.63-.24,3.39,3.39,0,0,0-.06-.64,9.65,9.65,0,0,1,3.43.79l0-.09a10,10,0,0,0-4.14-.89,9.88,9.88,0,0,0-3.14.5.27.27,0,0,1-.32-.18.26.26,0,0,1,.16-.32A10.33,10.33,0,0,1,47.11,54h0c0-.1-.07-.2-.11-.3a2.52,2.52,0,0,0-1.67-1.5,1.89,1.89,0,0,0,.14-1.89l-.64-1.51a4.67,4.67,0,0,0,2.58.88,4.07,4.07,0,0,0,4-3.54"/><path class="cls-3" d="M39.56,62a1.5,1.5,0,0,0-.65.77,1.53,1.53,0,0,1-.64-1,1.63,1.63,0,0,0-.84.8,1.07,1.07,0,0,1-.62-1,1.72,1.72,0,0,0-.63.75,2.9,2.9,0,0,1-.65-1.77,1.9,1.9,0,0,1,1.16-1.61l2.37-1.13a3.32,3.32,0,0,1,2.67,0l2.36,1.13a1.87,1.87,0,0,1,1.16,1.61,2.81,2.81,0,0,1-.64,1.77,1.72,1.72,0,0,0-.63-.75,1.39,1.39,0,0,1-.62,1,1.56,1.56,0,0,0-.84-.8,1.42,1.42,0,0,1-.64,1,1.4,1.4,0,0,0-.76-.77,1.63,1.63,0,0,1-.85,1.19s-.2-1-.71-1.19"/><path class="cls-5" d="M49.23,43a.13.13,0,0,0-.11-.09l0-.13h0a.2.2,0,0,0,.08-.21.29.29,0,0,0-.26-.26,3.26,3.26,0,0,1-1.37-.61,1.14,1.14,0,0,0-.72-.26c-.92,0-2.67,1.36-3.2,1.36a.35.35,0,0,1-.29-.16h0a2.24,2.24,0,0,0,0,2.36c.06.14,1.07,2.63,1.12,2.73h0a.64.64,0,0,0,.27-.5,1.46,1.46,0,0,1,1.45-1.32,2.17,2.17,0,0,0,2.34-1.67,1.72,1.72,0,0,1,.67-1.05.16.16,0,0,0,.07-.19M30.51,44.12c.27-1.28,1.13-1.18,1.18-1.18l0-.13h0a.21.21,0,0,1-.08-.22.29.29,0,0,1,.26-.25,3.38,3.38,0,0,0,1.38-.61,1.09,1.09,0,0,1,.71-.26c.93,0,2.67,1.36,3.2,1.36a.35.35,0,0,0,.29-.16h0a2.22,2.22,0,0,1,0,2.35c0,.15-1.07,2.64-1.12,2.74h0l-1,2.52a1.94,1.94,0,0,0,.14,1.89c-1.11,0-2.35-1-4.06-3.81a6.15,6.15,0,0,1-.9-4.24"/><path class="cls-4" d="M43.31,42.66a.74.74,0,0,0,1,.45c.66-.2,1.31-.43,1.95-.67a1,1,0,0,1,1,0,4.66,4.66,0,0,0,1.82.36l0,.13a2.42,2.42,0,0,0-1.32,1.21,2.21,2.21,0,0,1-1.87,1c-.64,0-.86-.27-1.17-.16a.67.67,0,0,0-.43.58c-.14.85.49,1.81.1,2.16L43.31,45a2.24,2.24,0,0,1,0-2.36M43.1,52.72a.75.75,0,0,0-1.25.79l-1.45.91L39,53.5a.75.75,0,0,0-1.25-.78l-.65-.41s-.86-.57-.9-1.09c0-.21.12-.39.37,0a.63.63,0,0,0,.57.33,4.63,4.63,0,0,1,1.36-.35c1.11,0,1.21.5,1.94.5s.84-.5,2-.5a4.73,4.73,0,0,1,1.36.35.6.6,0,0,0,.56-.33c.25-.35.4-.17.38,0,0,.52-.9,1.09-.9,1.09l-.65.41ZM37.5,42.66a.74.74,0,0,1-1,.45c-.66-.2-1.3-.43-1.95-.67a1,1,0,0,0-1,0,4.66,4.66,0,0,1-1.82.36l0,.13A2.42,2.42,0,0,1,33,44.15a2.21,2.21,0,0,0,1.87,1c.64,0,.86-.27,1.18-.16a.66.66,0,0,1,.42.58c.14.85-.92,2.61-.46,3L37.5,45a2.24,2.24,0,0,0,0-2.36"/><path class="cls-6" d="M46,43.21a.2.2,0,0,1-.18.2.19.19,0,0,1-.2-.17v0a.19.19,0,0,1,.2-.17.18.18,0,0,1,.18.17"/><path class="cls-6" d="M45.94,44.57a1.6,1.6,0,0,0,1.6-1.48L47.19,43a1.4,1.4,0,0,0-.73-.1.69.69,0,0,1-.2.94.68.68,0,0,1-.94-.2.57.57,0,0,1-.11-.33,7.92,7.92,0,0,1-.78.26,1.6,1.6,0,0,0,1.51,1M34.79,43.21a.2.2,0,0,0,.18.2.19.19,0,0,0,.2-.17v0A.19.19,0,0,0,35,43a.19.19,0,0,0-.18.17"/><path class="cls-6" d="M34.87,44.57a1.6,1.6,0,0,1-1.6-1.48l.35-.14a1.5,1.5,0,0,1,.74-.1.68.68,0,1,0,1.13.74.57.57,0,0,0,.11-.33,6.58,6.58,0,0,0,.79.26,1.62,1.62,0,0,1-1.52,1"/><path class="cls-7" d="M0,0H80V80H0Z"/></svg>