<?xml version="1.0" encoding="utf-8"?>
<!-- Generator: Adobe Illustrator 23.1.0, SVG Export Plug-In . SVG Version: 6.00 Build 0)  -->
<svg version="1.1" id="Layer_1" xmlns="http://www.w3.org/2000/svg" xmlns:xlink="http://www.w3.org/1999/xlink" x="0px" y="0px"
	 viewBox="-5 -5 100 100" style="enable-background:new 0 0 80 80;" xml:space="preserve">
<style type="text/css">
	.st0{fill:none;}
	.st1{fill:#FFFFFF;}
</style>
<title>carlton</title>
<path class="st0" d="M0,0h80v80H0V0z"/>
<path class="st0" d="M0,0h80v80H0V0z"/>
<path class="st1" d="M40.473,63.802c10.917,0.317,23.629-4.391,28.179-8.695l-3.539-6.498c0,0-9.716,8.124-24.64,7.533v-3.08
	c3.416,0.036,10.349-0.128,15.869-1.772v-5.361c0,0-8.757,2.059-15.869,1.398v-1.291h4.246v-6.562h-4.246v-1.84
	c2.891-0.302,7.381-0.114,14.24,1.475l0.043-5.447c0,0-8.429-1.752-14.283-1.377v-3.004c2.46-0.134,6.05-0.195,10.101,0.156v2.379
	h5.421l-0.002-1.67c2.082,0.371,4.203,0.872,6.291,1.542l1.93-9.136c0,0-3.277-0.856-8.231-1.398l-0.004-2.976v-7.334H49.48v2.38
	h-10.1v-2.38h-4.391l0.016,2.38v0.451v4.439v4.108c-9.591,2.39-18.905,8.134-23.257,20.661c0,0,5.193,16.522,23.257,20.278v2.496
	H30.18v5.597h16.277v-5.597h-5.984V63.802z M35.005,45.973c-1.383-0.681-2.453-1.639-3.024-2.961c0,0,0.766-1.922,3.024-3.365
	V45.973z M40.473,18.115h9.007h1.094v2.648c-3.124-0.11-6.57-0.023-10.101,0.436V18.115z M22.073,42.948
	c0,0,0.408-7.903,12.931-12.663v3.129c-2.737,1.004-7.077,3.486-9.425,9.47c0,0,1.924,6.333,9.425,9.179v3.193
	C30.979,54.02,24.52,50.848,22.073,42.948"/>
</svg>
