<svg id="Layer_1" data-name="Layer 1" xmlns="http://www.w3.org/2000/svg" xmlns:xlink="http://www.w3.org/1999/xlink" viewBox="0 0 50 50"><defs><style>.cls-1{fill:#fff;}.cls-2{mask:url(#mask);}.cls-3{fill:#a39161;}.cls-4{mask:url(#mask-2);}.cls-5{fill:none;}</style><mask id="mask" x="8.5" y="11.34" width="32.67" height="31.51" maskUnits="userSpaceOnUse"><g id="b"><path id="a" class="cls-1" d="M8.5,11.34V42.85H41.17V11.34Z"/></g></mask><mask id="mask-2" x="19.18" y="35.74" width="11.36" height="7.11" maskUnits="userSpaceOnUse"><g id="d"><path id="c" class="cls-1" d="M30.54,42.85H19.18V35.74H30.54Z"/></g></mask></defs><title>collingwood-magpies</title><g class="cls-2"><path class="cls-1" d="M40.93,25.41a.89.89,0,0,0-.58-.3,4.78,4.78,0,0,0,.44-1.42.93.93,0,0,0-.54-1,4.35,4.35,0,0,0,.13-.88.93.93,0,0,0-.47-.88h0a4.44,4.44,0,0,0,.08-.84.94.94,0,0,0-.78-.92,2.4,2.4,0,0,0,0-.46.94.94,0,0,0-.81-.78,3.72,3.72,0,0,0-.17-.87,1,1,0,0,0-.72-.63v-.47a19.75,19.75,0,0,0-12.57-4.6,19.49,19.49,0,0,0-12.57,4.6v.47a.92.92,0,0,0-.76.64,3.48,3.48,0,0,0-.18.86.94.94,0,0,0-.81.78,3.59,3.59,0,0,0,0,.46,1,1,0,0,0-.78.92,4.44,4.44,0,0,0,.08.84h0a1,1,0,0,0-.47.88,4.91,4.91,0,0,0,.13.88.93.93,0,0,0-.54,1,5.11,5.11,0,0,0,.45,1.42.94.94,0,0,0-.82,1.05,1.05,1.05,0,0,0,.06.24,5.59,5.59,0,0,0,.5,1,1,1,0,0,0-.37,1.26,5.88,5.88,0,0,0,.76,1.15A1,1,0,0,0,9.23,31a5.79,5.79,0,0,0,1,1.27.94.94,0,0,0-.07,1.24,6.15,6.15,0,0,0,1.51,1.42,1,1,0,0,0-.13,1.33l.13.13a6.5,6.5,0,0,0,1.58,1,.94.94,0,0,0-.15,1.33.78.78,0,0,0,.27.24,6.8,6.8,0,0,0,2.27.83,1,1,0,0,0,.14,1.33,1.12,1.12,0,0,0,.28.16,6.89,6.89,0,0,0,2.24.41,5,5,0,0,0,1.4-.2.71.71,0,0,0,.25.24h0a10.37,10.37,0,0,0,4.94,1.11,10.37,10.37,0,0,0,4.94-1.11.66.66,0,0,0,.24-.23,4.77,4.77,0,0,0,1.37.19,6.84,6.84,0,0,0,2.23-.41,1,1,0,0,0,.58-1.21,1,1,0,0,0-.16-.28A6.8,6.8,0,0,0,36.33,39a.94.94,0,0,0,.35-1.3,1,1,0,0,0-.23-.27,6.5,6.5,0,0,0,1.58-1,.94.94,0,0,0,.12-1.34L38,34.94a6.17,6.17,0,0,0,1.52-1.42,1,1,0,0,0-.07-1.24,6.1,6.1,0,0,0,1-1.27,1,1,0,0,0-.23-1.22A5.46,5.46,0,0,0,41,28.64a1,1,0,0,0-.37-1.26,5.59,5.59,0,0,0,.5-1,.94.94,0,0,0-.17-1"/></g><path class="cls-1" d="M30.22,41.22l0-.07,0,.07m0,.09h0M30.39,38l0-.1,0,.1m-11-.1,0,.1,0-.1"/><path d="M19.18,39.3a7,7,0,0,1,.09-1.06,4.29,4.29,0,0,1,.14-.62c-3.4-2.4-7.12-6.09-7.12-10.69V16.63a.73.73,0,0,0-.55.48,3,3,0,0,0-.17,1,.74.74,0,0,0-.81.6,3.35,3.35,0,0,0,0,.63.72.72,0,0,0-.77.67v0a3.47,3.47,0,0,0,.11,1,.73.73,0,0,0-.54.75,4.32,4.32,0,0,0,.18,1,.73.73,0,0,0-.59.83,4.2,4.2,0,0,0,.65,1.73.74.74,0,0,0-1,.36.75.75,0,0,0,0,.57,4.81,4.81,0,0,0,.66,1.18.72.72,0,0,0-.6.83.57.57,0,0,0,.07.22,5.29,5.29,0,0,0,.92,1.31.71.71,0,0,0-.46.91l.06.14a5.47,5.47,0,0,0,1.12,1.39.74.74,0,0,0-.31,1l.07.11A5.68,5.68,0,0,0,12.12,35h0a.73.73,0,0,0-.55.87.76.76,0,0,0,.24.4,6.13,6.13,0,0,0,2.05,1.17,1.11,1.11,0,0,0-.3.08.73.73,0,0,0-.39,1,.71.71,0,0,0,.31.35,5.92,5.92,0,0,0,2.84.85,1.5,1.5,0,0,0-.34.16.73.73,0,0,0-.21,1,.7.7,0,0,0,.37.29,6.29,6.29,0,0,0,2.15.39,4.63,4.63,0,0,0,1.29-.17,3.38,3.38,0,0,1-.28-.95,9.3,9.3,0,0,1-.09-1.05M40.76,25.56a.72.72,0,0,0-.84-.17,4.31,4.31,0,0,0,.65-1.74.73.73,0,0,0-.59-.83,4.32,4.32,0,0,0,.18-1,.73.73,0,0,0-.54-.75,3.43,3.43,0,0,0,.11-1,.72.72,0,0,0-.73-.72h0a2.77,2.77,0,0,0-.05-.63.72.72,0,0,0-.81-.6,3,3,0,0,0-.17-1,.72.72,0,0,0-.5-.47V26.93c0,4.61-3.72,8.29-7.13,10.69a4.34,4.34,0,0,1,.15.62,9.3,9.3,0,0,1,.09,1,9,9,0,0,1-.09,1.06,3.36,3.36,0,0,1-.28,1,4.72,4.72,0,0,0,1.24.16,6.55,6.55,0,0,0,2.15-.39.73.73,0,0,0,.45-.93.68.68,0,0,0-.29-.36,1.33,1.33,0,0,0-.34-.16,5.83,5.83,0,0,0,2.84-.86.72.72,0,0,0,.27-1,.76.76,0,0,0-.34-.3,1.68,1.68,0,0,0-.32-.09,5.8,5.8,0,0,0,2.06-1.16.73.73,0,0,0,.09-1,.75.75,0,0,0-.4-.24h0a5.59,5.59,0,0,0,1.82-1.58.73.73,0,0,0-.13-1l-.11-.07a5.8,5.8,0,0,0,1.12-1.39.73.73,0,0,0-.26-1,.42.42,0,0,0-.14-.06,5.29,5.29,0,0,0,.92-1.31.73.73,0,0,0-.32-1l-.2-.07a4.81,4.81,0,0,0,.65-1.18.72.72,0,0,0-.14-.75"/><path class="cls-3" d="M17,36.44a2.05,2.05,0,0,1,.71-.16q-.59-.48-1.14-1a5.73,5.73,0,0,0-2.37.27,7.56,7.56,0,0,1-1.9.14,4,4,0,0,0,4.7.77M15.11,34.6a1.81,1.81,0,0,1,.74,0c-.38-.41-.75-.83-1.09-1.26a6.38,6.38,0,0,0-2.08-.15,7.69,7.69,0,0,1-1.8-.25,3.85,3.85,0,0,0,4.23,1.66m-1.38-2a1.84,1.84,0,0,1,.49,0c-.28-.41-.55-.85-.79-1.29A6.29,6.29,0,0,0,11.67,31a7.26,7.26,0,0,1-1.62-.45,3.58,3.58,0,0,0,3.68,2m-.83-2.26H13a9.27,9.27,0,0,1-.41-1.26A7.55,7.55,0,0,0,11,28.72a6.78,6.78,0,0,1-1.5-.51,3.36,3.36,0,0,0,3.36,2.11m-.63-2.1.12,0c-.05-.35-.08-.69-.1-1a4.57,4.57,0,0,0-1.54-.58,5.91,5.91,0,0,1-1.3-.58,3,3,0,0,0,2.82,2.17M12,26.08a1.55,1.55,0,0,1,.34.16v-.93a3.63,3.63,0,0,0-1.41-1,6.08,6.08,0,0,1-1.06-.79A2.8,2.8,0,0,0,12,26.08m0-1.88a1.31,1.31,0,0,1,.39.26v-.89a3.3,3.3,0,0,0-1.18-1,5.4,5.4,0,0,1-.87-.8,2.54,2.54,0,0,0,1.66,2.46m0-2a.94.94,0,0,1,.4.37v-.71c-.14-.52-.6-.76-1-1a4.28,4.28,0,0,1-.67-.7,2,2,0,0,0,1.23,2.09m.36-1.33,0,0v-1c-.11-.12-.23-.23-.33-.35a3.82,3.82,0,0,1-.49-.7,1.8,1.8,0,0,0,.78,2M35.52,35.53a5.74,5.74,0,0,0-2.3-.28c-.38.36-.77.7-1.16,1a2,2,0,0,1,.66.16,4.06,4.06,0,0,0,4.71-.77,7.63,7.63,0,0,1-1.91-.14M35,33.31a14.72,14.72,0,0,1-1.1,1.27,2,2,0,0,1,.68,0,3.86,3.86,0,0,0,4.24-1.67,7.63,7.63,0,0,1-1.81.26,6.85,6.85,0,0,0-2,.12m1.32-2a13.39,13.39,0,0,1-.79,1.31,1.94,1.94,0,0,1,.44,0,3.54,3.54,0,0,0,3.67-2A6.26,6.26,0,0,1,38,31a7.14,7.14,0,0,0-1.7.3M37.17,29a10.07,10.07,0,0,1-.42,1.28h0a3.37,3.37,0,0,0,3.35-2.11,7.1,7.1,0,0,1-1.5.5,8.52,8.52,0,0,0-1.46.33m3-3a6.58,6.58,0,0,1-1.29.58,5.09,5.09,0,0,0-1.5.54,9.28,9.28,0,0,1-.1,1.06h.07a3,3,0,0,0,2.82-2.17m-.37-2.52a5.35,5.35,0,0,1-1.06.8,4,4,0,0,0-1.36.91v1a1.57,1.57,0,0,1,.29-.13,2.82,2.82,0,0,0,2.13-2.55m-.41-1.79a4.79,4.79,0,0,1-.88.8,3.68,3.68,0,0,0-1.13.95v.92a1.44,1.44,0,0,1,.34-.21,2.52,2.52,0,0,0,1.67-2.46m-1.66.43A2,2,0,0,0,39,20.08a4.28,4.28,0,0,1-.67.7,2.64,2.64,0,0,0-.91.91v.77a1,1,0,0,1,.35-.29m.42-3.32a3.82,3.82,0,0,1-.49.7l-.28.3v1a1.82,1.82,0,0,0,.77-2M31.48,39.54c-.32-.2-.63-.44-1-.65,0,.23,0,.39,0,.4a7,7,0,0,1-.09,1.06,2.56,2.56,0,0,0-.05.27,5,5,0,0,0,2.92-.23,8.33,8.33,0,0,1-1.84-.85m2.42-1.9a5.16,5.16,0,0,0-2.65-.71c-.31.24-.63.47-.95.69a.79.79,0,0,1,.06.22,2,2,0,0,1,.43.22,4.3,4.3,0,0,0,5.07.08,8,8,0,0,1-2-.5M19.27,40.35a9.28,9.28,0,0,1-.09-1.06s0-.18,0-.43c-.35.22-.68.47-1,.68a8.33,8.33,0,0,1-1.84.85,4.94,4.94,0,0,0,3,.22c0-.09,0-.17-.05-.26m.15-2.73c-.32-.22-.63-.45-.94-.68a5.08,5.08,0,0,0-2.71.7,8,8,0,0,1-2,.5,4.3,4.3,0,0,0,5.07-.08,2.38,2.38,0,0,1,.48-.24,1.52,1.52,0,0,1,.06-.2"/><path d="M23.33,35.83V14.53a15.53,15.53,0,0,0-3,.63V34.94c.58.43,1.15.8,1.69,1.13a11.15,11.15,0,0,1,1.35-.24m9.16-3.65a8.36,8.36,0,0,0,2.26-5.43v-8.7a14.62,14.62,0,0,0-2.26-1.56ZM15,18.05v8.7a8.32,8.32,0,0,0,2.26,5.42V16.48A13.87,13.87,0,0,0,15,18.05m12.77,18c.58-.36,1.14-.73,1.69-1.13V15.17a15.09,15.09,0,0,0-3-.64v21.3a9.49,9.49,0,0,1,1.35.25"/><path d="M24.86,11.63a19.09,19.09,0,0,0-12.32,4.51V26.91c0,4.51,3.63,8.11,7,10.47a1.07,1.07,0,0,1,.42-.53,9.93,9.93,0,0,1,1.76-.7c-.75-.47-1.48-1-2.18-1.52-3.15-2.49-4.75-5.14-4.75-7.88V18l0,0a15.6,15.6,0,0,1,20.15,0l0,0v8.79c0,2.74-1.6,5.39-4.75,7.88A25.68,25.68,0,0,1,28,36.15a9.93,9.93,0,0,1,1.76.7,1.07,1.07,0,0,1,.42.53c3.33-2.35,7-6,7-10.47V16.14a19.35,19.35,0,0,0-12.32-4.51"/><path class="cls-1" d="M38.72,38.23a5.77,5.77,0,0,0-.51-1.5l0,0L38,36.41a2.51,2.51,0,0,0-.95-1l-.35-.67,0,0a19.51,19.51,0,0,0-1.52-1.62L35,32.88a1.65,1.65,0,0,0-.43-.78,1.9,1.9,0,0,1-.31-.42.26.26,0,0,0-.09-.09,3,3,0,0,1-.94-1.19l-.34-.58.32.15.22.11A28.31,28.31,0,0,1,36,31.35l.28.15.25.16a1.64,1.64,0,0,0,.53.26.55.55,0,0,0,.63-.3v-.05a1.75,1.75,0,0,0-.45-1.14l-.07-.1-.26-.39a11.31,11.31,0,0,0-1.85-2.21l-.44-.44,0,0a15,15,0,0,1-3-3.1,18.45,18.45,0,0,0-2.58-2.83h0a22,22,0,0,1-3.42-3.15l-1.29-1.35a10.82,10.82,0,0,0-1.68-1.26l-.43-.4c-.72-.67-1.4-1.31-1.4-2.16a1.71,1.71,0,0,1,.08-.53l0-.07a3.77,3.77,0,0,1,1.26-2.14l0,0L23,9.29a10.52,10.52,0,0,1,3.58-1.86h0l.16-.18a.32.32,0,0,0,0-.27h0a.27.27,0,0,0-.07-.08A3.34,3.34,0,0,0,25,6.37a13.31,13.31,0,0,0-3.09,0,6.9,6.9,0,0,0-4.69.11,2.28,2.28,0,0,0-1,1.38,2,2,0,0,1-.3.61,10.78,10.78,0,0,0-2.57,4.39l-.27.7-.11.25a12.74,12.74,0,0,1-1.34,2.46l-.06.11a5.69,5.69,0,0,0-.32,1,2.87,2.87,0,0,0,.22,1.46,6.89,6.89,0,0,0,.72,1c.51.8,1,1.34,1.41,2.16a31.92,31.92,0,0,0,3,4.68h0a8,8,0,0,0,4,2.17,16.94,16.94,0,0,1,1.51,2.37l.53.9a.55.55,0,0,1,.05.31,1.33,1.33,0,0,1,0,.48,2.51,2.51,0,0,0-.1.61h0v.23a3.41,3.41,0,0,1,0,1.42c-.1.26-.22.52-.34.77a9.88,9.88,0,0,1,1.25-.2l.35-.69a4.25,4.25,0,0,1,.62-.84,1.65,1.65,0,0,0,.52-.84,6.23,6.23,0,0,1,.25-1.64.85.85,0,0,0,.26-.24.44.44,0,0,0,.09-.28,1.06,1.06,0,0,0-.05-.31.64.64,0,0,1,0-.2,0,0,0,0,1,0-.05,1.09,1.09,0,0,1,.87.09,2,2,0,0,1,.31.51,3.1,3.1,0,0,0,.31.52,4.61,4.61,0,0,1,.1.78,2.54,2.54,0,0,0,.41,1.48.93.93,0,0,1,.05.29,2.65,2.65,0,0,1-.27,1l-.08.16a3,3,0,0,1-.19.41c.36.07.71.14,1,.24.22-.38.44-.78.63-1.2a3,3,0,0,0,.15-.83l.2.33a6.93,6.93,0,0,0,.78,1.16,9.87,9.87,0,0,1,.84,1.8.14.14,0,0,0,.05.08,1.61,1.61,0,0,0,1.35.42c.88-.12,1.06,0,1.18.14a.61.61,0,0,0,.26.15l2,0a11.7,11.7,0,0,1,1.87,0l1,.23a.21.21,0,0,0,.26-.16.11.11,0,0,0,0-.08"/><path d="M34.32,33.35c-.38-.08-.63-.48-.94-.72s-.29-.4-.45-.6c-.09,0-.15,0-.15.11-.16.55.9,1.53,1.28,2.32.08.21.22.45.13.67a1.86,1.86,0,0,1-1-.09c-.37-.22-.59-1.15-1.07-1.75-.1,0-.09-.19-.21-.17s0,.3,0,.45c.13.33.43.63.4,1l-.19,0a19.65,19.65,0,0,0-1.22-1.66c-.19.14,0,.34,0,.51a5.21,5.21,0,0,1,.54,1.26c0,.15-.2.07-.28.06-.77-.71-1-1.73-1.64-2.54-.1,0-.13.09-.17.15.12.72.62,1.29.55,2.09,0,0-.05.09-.11.07-.48-.7-1.23-1.48-.74-2.39.24-.78-.4-1.51,0-2.27a1,1,0,0,1,.91-.17c.17-.22.08-.56.41-.7a1,1,0,0,1,1,0c1,1.3,1.92,2.68,2.95,4,0,.13.17.27,0,.36M28.51,26a2,2,0,0,0-.68-.49c-.12,0-.1.1-.1.15s.64.27.48.49c-.34.22-.65-.18-1-.32-.95-.73-1.87-1.6-2.77-2.41-.24-.22-.41-.52-.34-.57s.4.14.52.2.12-.08.12-.08c-.8-.87-2.33-1.49-2.25-2.86a.44.44,0,0,1,.22-.28c.31-.23,2.86.55,3.93,1.18a8.72,8.72,0,0,1,2.92,2.75.5.5,0,0,1,0,.17c-.07.11-.23,0-.38-.1a4,4,0,0,0-.56-.39l-.06.07c.43.56,1.35.92,1.35,1.72h-.14a6,6,0,0,0-1.15-.73c-.1.05,0,.13,0,.17a12.51,12.51,0,0,1,1.2.9A.48.48,0,0,1,30,26h-.12a4.13,4.13,0,0,0-1-.59c-.08.17.11.25.3.38s1,.36.68.7c-.52.41-1-.21-1.32-.49m-5.83-9.12-.06-.23A7.22,7.22,0,0,1,24.37,18a6.63,6.63,0,0,1,1.19,1.43c-.1.09-.53-.39-.87-.38s.06.36-.11.43a2.83,2.83,0,0,1-1.75-1c.06,0,.18,0,.17-.1s-.43-.26-.36-.43c0,0,.11.09.19.06.2-.19-.37-.39,0-.55,0-.19-.21-.33-.28-.47a.7.7,0,0,0,.17-.09M19.8,7.55c-.17,0-.54-.26-.68,0s.06.49-.19.54-.36,0-.36-.15a.78.78,0,0,1,.08-.62A.83.83,0,0,1,19.56,7a.6.6,0,0,1,.44.39c0,.13-.07.18-.2.21m-3.52,2.67c.21.31-.72.46-.08.59.11.49-.75.62-1.07,1,0,.06,0,.16.11.13.29,0,.73-.53.81-.27s-.34.38-.54.51a1.23,1.23,0,0,0-.66.53c0,.14.17.09.24.07.25-.08.6-.51.7-.37s-.06.26-.15.37c-.35.26-.92.21-1.09.7,0,.12.21.19.34.13s.52-.57.64-.39-.07.32-.21.41a5.63,5.63,0,0,1-2,1.24c-.1-.13,0-.3,0-.43a20.72,20.72,0,0,1,2.17-4.59c.2-.23.63-.39.84-.11,0,.31-.45.24-.49.52.12.09.27,0,.4,0m4.42-.84c.46-1,.55-.84,1.24-.76a1,1,0,0,0,.64-.45l0-.07c-.38.09-.77.39-1.19.22a.47.47,0,0,1-.15-.52c.36-.43,1.19,0,1.63-.39.14-.18-.22-.25-.31-.31s-.23,0-.23-.13c.16-.12.4-.06.59-.07s.72-.16.73.09c0,.46-.76.61-.68.92s.32.12.49,0c.42-.18.76-.54,1.2-.68a.11.11,0,0,1,.15.11v.06A29.26,29.26,0,0,0,21.38,9.7a.79.79,0,0,1-.64.17c-.17-.1,0-.32,0-.49m.08-2.22A.7.7,0,0,1,21.32,7v.11a.42.42,0,0,1-.47.17s-.09-.07-.07-.13M38,36.81c-.29-.41-.58-1-1.11-1.24l-.38-.72A23.51,23.51,0,0,0,34.77,33c-.05-.51-.52-.77-.74-1.21a3.05,3.05,0,0,1-1-1.29l-.6-1a3.22,3.22,0,0,1,1.08.4,32.21,32.21,0,0,1,2.89,1.43,3.3,3.3,0,0,0,.73.4.33.33,0,0,0,.38-.17c.05-.35-.28-.78-.49-1.09a12.37,12.37,0,0,0-2.07-2.55l-.45-.46c-2.29-1.65-3.39-4.12-5.55-5.93A36.7,36.7,0,0,1,24.18,17a10.32,10.32,0,0,0-1.67-1.24c-.94-.93-2.28-1.85-1.81-3.33a4.14,4.14,0,0,1,1.37-2.32l.76-1a10.54,10.54,0,0,1,3.65-1.9c.1-.05,0-.11,0-.17A3,3,0,0,0,25,6.59a12.37,12.37,0,0,0-3.1,0,6.45,6.45,0,0,0-4.56.08c-.86.46-.84,1.5-1.24,1.95-1.56,1.47-2.08,3.2-2.8,5a15,15,0,0,1-1.49,2.77,2.57,2.57,0,0,0,0,2.44,5.17,5.17,0,0,0,.54.79c1.86,2.56,2.65,4.71,4.52,7a7.73,7.73,0,0,0,3.92,2.13c1.2,1,1.34,2.24,2.15,3.35.29.51-.09,1-.09,1.52a4,4,0,0,1,0,1.73c-.07.19-.17.41-.28.64.24-.05.48-.09.73-.12.19-.36.34-.66.42-.82.37-.74,1.07-1.16,1.12-1.6A6.22,6.22,0,0,1,25,31.67a.88.88,0,0,0,.28-.24c.19-.24-.27-.74.13-.91a1.3,1.3,0,0,1,1.09.12c.32.33.39.77.68,1.11.2.74,0,1.66.51,2.27a2.25,2.25,0,0,1-.3,1.58c-.05.12-.11.24-.17.36.21,0,.42.09.62.15a13.17,13.17,0,0,0,.64-1.24,6.12,6.12,0,0,0,.19-1.37c.48.64.77,1.38,1.33,2a10.65,10.65,0,0,1,.86,1.85,1.43,1.43,0,0,0,1.17.36c1.3-.19,1.26.25,1.5.28,1.26.19,2.52-.12,3.88,0l1.06.24A5.39,5.39,0,0,0,38,36.81"/><g class="cls-4"><path class="cls-1" d="M30.45,38.24c-.13-.75-.34-1.22-.65-1.39a10.37,10.37,0,0,0-4.94-1.11,10.37,10.37,0,0,0-4.94,1.11c-.31.17-.52.64-.65,1.39a9.28,9.28,0,0,0-.09,1.06,7,7,0,0,0,.09,1.05c.13.75.34,1.22.65,1.39h0a10.37,10.37,0,0,0,4.94,1.11,10.37,10.37,0,0,0,4.94-1.11c.31-.17.52-.64.65-1.39a9.28,9.28,0,0,0,.09-1.06,7,7,0,0,0-.09-1"/></g><path d="M24.08,39.43H24c-.09,0-.18.07-.18.25v.38c0,.18.09.25.18.25h.07c.09,0,.19-.07.19-.25v-.38c0-.18-.1-.25-.19-.25m0-1.15H24c-.09,0-.18.07-.18.25v.29c0,.18.09.25.18.25h.07c.09,0,.19-.07.19-.25v-.29c0-.18-.1-.25-.19-.25m1.58,0c-.13,0-.21,0-.21.23V39c0,.19.08.23.21.23s.21,0,.21-.23v-.52c0-.18-.08-.23-.21-.23"/><path d="M29.23,41.1v0a9.27,9.27,0,0,1-4.36,1,9.2,9.2,0,0,1-4.35-1h0a3.43,3.43,0,0,1-.41-1.81,3.51,3.51,0,0,1,.4-1.81l0,0a9.27,9.27,0,0,1,4.36-1,9.2,9.2,0,0,1,4.35,1h0a3.35,3.35,0,0,1,.4,1.81,3.42,3.42,0,0,1-.4,1.81M29.7,37A10.22,10.22,0,0,0,24.86,36,10.19,10.19,0,0,0,20,37c-.5.27-.62,1.72-.63,2.26s.13,2,.63,2.25a10.19,10.19,0,0,0,4.84,1.09,10.22,10.22,0,0,0,4.84-1.09c.5-.27.62-1.72.63-2.26s-.13-2-.63-2.25"/><path d="M27.91,38.78c0,.34-.22.49-.48.74s-.37.36-.37.51v.25h.85v.37H26.63V40c0-.34.28-.56.55-.82s.3-.28.3-.42v-.27c0-.18-.09-.23-.22-.23s-.2,0-.2.23v.4h-.42v-.44c0-.4.22-.56.63-.56h0c.41,0,.63.16.63.56ZM26.3,40.12c0,.4-.21.56-.62.56h0c-.41,0-.63-.16-.63-.56v-.25h.44v.21c0,.18.06.23.19.23s.2-.05.2-.23v-.56a.36.36,0,0,1-.32.12.49.49,0,0,1-.53-.56v-.61c0-.4.23-.56.64-.56h0c.41,0,.63.16.63.56Zm-1.6-1.3c0,.17,0,.39-.26.42.24,0,.26.32.26.47v.4a.51.51,0,0,1-.59.57H24c-.4,0-.6-.2-.6-.57v-.4c0-.15,0-.42.27-.47-.23,0-.27-.25-.27-.42v-.34c0-.37.2-.57.6-.57h.12a.52.52,0,0,1,.59.57Zm-1.62,1.83H21.81v-.38h.44V38.4l-.44.14v-.4l.56-.2h.31v2.33h.4v.38Zm6-3a8.84,8.84,0,0,0-4.17-.93,8.84,8.84,0,0,0-4.17.93,3.43,3.43,0,0,0-.33,1.62,3.66,3.66,0,0,0,.32,1.63,8.88,8.88,0,0,0,4.18.93h0A8.84,8.84,0,0,0,29,40.92a3.48,3.48,0,0,0,.32-1.63A3.37,3.37,0,0,0,29,37.67Z"/><path class="cls-5" d="M0,0H50V50H0Z"/></svg>