<svg id="Layer_1" data-name="Layer 1" xmlns="http://www.w3.org/2000/svg" viewBox="0 0 80 80"><defs><style>.cls-1{fill:#c90527;}.cls-2{fill:#9c9e9f;}.cls-3{fill:#d1d1d1;}.cls-4{fill:none;}</style></defs><title>essendon-bombers</title><path d="M58.36,28.23a12.39,12.39,0,0,0,.64-3.7A10,10,0,0,0,58.32,21H57.24a9,9,0,0,0-.68,3.41,11.76,11.76,0,0,0,.64,3.64l1.16.17ZM49.51,21v6.86h.69a29.66,29.66,0,0,0,1.13-4.3A12.41,12.41,0,0,0,51.52,21Z"/><path d="M62.39,30.82V19h1.7l2.26,7v-6.9H68v12.6l-2-.31L64,23.78V31l-1.64-.22Zm-7.72-6.41a14,14,0,0,1,1.07-5.33h4.08a17.06,17.06,0,0,1,1.07,5.66,15.34,15.34,0,0,1-1.25,5.71l-3.92-.62a15.23,15.23,0,0,1-1-5.42Zm-7,5.38V19.08h5.84a25.89,25.89,0,0,1-.5,5.21,23.81,23.81,0,0,1-1.76,5.5Zm-7.58-2.52V19h1.57L44.12,25V19.08h1.63V29.84H43.62l-2-6.06v4.5l-1.51-1ZM38,23.33v1.92H35.09v2.67H38.4l-2.55,1.9H33.27V19.08h4.95V21H35.09v2.38Zm-8.48,5.05v-2l-3.2-2.78V19.08h4.83v4.25L29.56,22V21H27.93v1.59l3.2,2.78v4.48H26.36v-4l1.51,1.36v1.12Zm-6.9-.14V26.67l-3.58-3.12V19.08h5.21v4.53l-1.63-1.36V21H20.71v1.65l3.64,3v4.11L19,30.61V25.93l1.7,1.42v1.34l1.95-.46Zm1.62,3.43H36.13l3.78-2.76,3.9,2.77H55.6L68.19,33.6,39.94,63.89,11.87,33.71Zm-7.56-8.28v1.92H13.9V29.6L17,29.2V31l-5,.85V19.08h5V21H13.9v2.38Zm-6.58-6.31v17.4L40,66.53l1.3-1.44L69.74,34.24l.14-.15v-17Z"/><path class="cls-1" d="M39.91,60.45s-2-3.2-3.45-5.89S34,49.84,34,49.84l-1.94-.75-2,.59-1.18-1.1.34-1.43-1.35.25-11.24-12,5-.92,11.83,5.82,1-.76,1.93.84.84-1.59L27,34.28H38l1.94-1.6h0l1.94,1.6h11L42.62,38.74l.84,1.59,1.93-.84,1,.76,11.4-5.83,5.31.88L52,47.4l-1.35-.25.33,1.43-1.17,1.1-2-.59-1.94.75s-1,2-2.44,4.72-3.45,5.89-3.45,5.89h0Zm25.6-26-10-1.5H42.79l-2.88-2-2.88,2H24.4l-.12,0h0l-9.77,1.72L39.91,62l0,0Z"/><path class="cls-2" d="M24.4,32.93H37l2.88-2-2.86,1.95-.92-1.2H24.28V33Zm18.39,0-.06-.15.94-1.16v.05h.13l-3.9-2.77v2Z"/><path class="cls-2" d="M65.51,34.43,39.93,62l0,0v1.85l-28-30.14L39.94,63.89,68.19,33.6,55.6,31.67h-.08v1.26Z"/><path d="M41.58,56.57A2.63,2.63,0,0,0,39.91,56a3.17,3.17,0,0,0-1.7.5,26.47,26.47,0,0,1-1.33-3,24.13,24.13,0,0,1-1.43-5.89l-.85,1.09L32,48l-1.34.34L30,47.74A14.33,14.33,0,0,1,31.83,44a36.16,36.16,0,0,1,2.69-3.28L37,41.93s.51-1.09,1-2,.93-1.76.93-1.76l-7.83-3h6.65l.5.8,1.69-1.61h0L41.6,36h0l.51-.8h6.65l-7.83,3s.42.84.93,1.76,1,2,1,2l2.44-1.26A36.16,36.16,0,0,1,48,44a14.22,14.22,0,0,1,1.85,3.78h0l-.67.59L47.83,48l-2.61.67-.84-1.09A24.73,24.73,0,0,1,43,53.46a26.38,26.38,0,0,1-1.37,3.11Zm-1.67,3s-.64-1-1.38-2.41a2.22,2.22,0,0,1,1.38-.36,2.69,2.69,0,0,1,1.4.34c-.74,1.41-1.39,2.43-1.39,2.43ZM31.58,42.66l-.06.07Zm-3,3.4L18.45,35.79l1.38-.23h0l1.83-.31L33,40.92l-.19.22-.13.15-.08.1c-.05.06-.11.12-.16.19l-.06.07-.18.22-.05.06-.19.24-.05.06,0,.05L21.13,36.43h0l10.1,6.73-.22.3a13.31,13.31,0,0,0-1.32,2.36l-1.12.25Zm29.5-10.79,3.33.52L51.28,46.06l-1.12-.25A13.83,13.83,0,0,0,49,43.7l-.18-.25-.22-.31,10.1-6.73L48,42.27c-.42-.52-.82-1-1.13-1.35l11.22-5.65ZM45.81,49.85l1.94-.76,2,.59L51,48.58l-.34-1.43L52,47.4,63.11,35.3l-5.31-.88L46.4,40.25l-1-.76-1.93.85-.84-1.6,10.26-4.46h-11l-1.94-1.6h0L38,34.28H27l10.26,4.46-.84,1.6-1.93-.85-1,.76L21.6,34.43l-5,.92,11.24,12,1.35-.25-.34,1.43,1.18,1.1,2-.59,1.94.75s1,2,2.44,4.72,3.45,5.89,3.45,5.89h0s2-3.2,3.45-5.89S45.81,49.85,45.81,49.85Z"/><path class="cls-3" d="M39.66,51.51c-1.28-.19-2-1.77-2.08-2.1l.2-.87a2.7,2.7,0,0,0,1.88,1.28Zm.51-1.69a3.42,3.42,0,0,0,2-1.09l.23,1a3.65,3.65,0,0,1-2.19,1.77Zm1.67,1.54A9.74,9.74,0,0,0,43,49.59l-.51-2.27,1.1.42.17-2.1,1.43,1.85,2.35-.59,1.27.42.65-.6a8.55,8.55,0,0,1,.37,1A14.21,14.21,0,0,0,48,44a36.16,36.16,0,0,0-2.69-3.28s.25.27.63.71l-3.31,1.74-1-1.44-1.76,2.46V34.35L38.22,36l-.5-.8H31.07l7.83,3s-.42.84-.93,1.76-1,2-1,2l-2.44-1.26A36.16,36.16,0,0,0,31.83,44,14.33,14.33,0,0,0,30,47.74l.67.59L32,48l2.6.68.85-1.1a24.13,24.13,0,0,0,1.43,5.89,26.47,26.47,0,0,0,1.33,3,3.17,3.17,0,0,1,1.7-.5V52.41a4.71,4.71,0,0,0,1.93-1Zm-1.93,7.57,0-1.87h0v-.31a2.31,2.31,0,0,0-1.38.36c.43.82.89,1.62,1.38,2.41Z"/><path class="cls-3" d="M48.76,35.16H42.11l-.5.8h0l-.67,2.19Z"/><path d="M37.78,48.54l-.2.87c.13.33.8,1.91,2.08,2.1V49.82a2.7,2.7,0,0,1-1.88-1.28m4.58,1.2-.23-1a3.38,3.38,0,0,1-2,1.1V51.5a3.6,3.6,0,0,0,2.2-1.76"/><path class="cls-2" d="M41.67,41.68l1,1.44,3.31-1.74c-.38-.44-.63-.71-.63-.71l-2.44,1.26s-.51-1.09-1-2c-.32-.58-.63-1.17-.93-1.76L41.6,36h0l-1.68-1.61h0v9.79ZM39.91,56.75v.31a2.19,2.19,0,0,1,.48.06,1.32,1.32,0,0,1,.48.19s-.1.21-.25.49-.71,1.13-.71,1.13v.59h0s.65-1,1.39-2.43a2.69,2.69,0,0,0-1.4-.34m5.31-8.08L47.83,48l1.35.34.67-.59h0q-.16-.51-.36-1l-.66.61-1.27-.42-2.35.59-1.43-1.85-.17,2.1-1.09-.42.5,2.27a9.17,9.17,0,0,1-1.18,1.77,4.71,4.71,0,0,1-1.93,1V56a2.69,2.69,0,0,1,1.67.58A26.38,26.38,0,0,0,43,53.46a24.73,24.73,0,0,0,1.43-5.89l.84,1.1Z"/><path d="M39.91,58.93s.56-.86.71-1.13.25-.49.25-.49a1.32,1.32,0,0,0-.48-.19,2,2,0,0,0-.48-.06h0l0,1.87Z"/><path class="cls-3" d="M32.44,41.58l-.06.07.06-.07m.24-.29-.08.1.08-.1m-.72.88-.05,0,.05,0m1-1.25-.19.22.19-.22m-1.79,2.23-10.1-6.73h0l-1.3-.86-1.38.23,10.1,10.27,1.12-.25a12.8,12.8,0,0,1,1.54-2.66m27.51-6.73L49.18,44h0a14.23,14.23,0,0,1,1,1.87l1.12.25,10.1-10.27-3.33-.52L46.83,40.92c.31.36.71.83,1.13,1.35Z"/><path class="cls-2" d="M31.52,42.73l.06-.07-.06.07m.35-.46,0-.05.05,0,.19-.24.05-.06.18-.22.06-.07.16-.19.08-.1.13-.15.19-.22L21.65,35.25l-1.83.3h0l1.3.86Zm26.85-5.86-10.1,6.73c.08.1.15.21.22.31s.23.32.34.49h0l9.54-7.53Z"/><path class="cls-3" d="M39.91,30.91v-2l-3.78,2.76h0l.92,1.2Zm3.76.71-.94,1.16.06.15H55.52V31.67H43.69ZM39.91,63.85V62L14.51,34.68,24.28,33V31.67l-12.41,2Z"/><path class="cls-1" d="M17.1,21V19.08h-5V31.81L17,31V29.2l-3.14.4V25.31h2.82V23.39H13.9V21ZM19,25.93v4.68l5.34-.85V25.65l-3.64-3V21h1.95v1.25l1.63,1.36V19.08H19.08v4.48l3.58,3.11v1.56l-1.95.46V27.35Zm7.35-.05v4h4.77V25.37l-3.2-2.78V21h1.63v1l1.63,1.36V19.08H26.36v4.53l3.2,2.78v2l-1.69,0V27.24ZM38.22,21V19.08H33.27V29.82h2.58l2.55-1.9H35.09V25.25H38V23.33H35.09V21Zm5.4,8.89h2.13V19.08H44.12V25L41.68,19H40.11v8.25l1.51,1v-4.5ZM66,31.37l2,.31V19.08H66.35V26l-2.26-7h-1.7v11.8L64,31V23.78ZM51.33,23.56a29.66,29.66,0,0,1-1.13,4.3h-.69V21h2a13.45,13.45,0,0,1-.19,2.55m2.2-4.48H47.69V29.79h3.58A23.81,23.81,0,0,0,53,24.29a26.81,26.81,0,0,0,.5-5.21M57.24,21h1.08A10,10,0,0,1,59,24.53a12.39,12.39,0,0,1-.64,3.7l-1.16-.17a11.78,11.78,0,0,1-.64-3.65A9,9,0,0,1,57.24,21Zm2.39,9.44a15.3,15.3,0,0,0,1.26-5.71,17.06,17.06,0,0,0-1.07-5.66H55.74a14,14,0,0,0-1.07,5.32,15.25,15.25,0,0,0,1,5.43Z"/><path class="cls-4" d="M0,0H80V80H0Z"/></svg>