<svg id="Layer_1" data-name="Layer 1" xmlns="http://www.w3.org/2000/svg" viewBox="0 0 80 80"><defs><style>.cls-1{fill:#a5acaf;}.cls-2{fill:#331c54;}.cls-3{fill:#fff;}.cls-4{fill:none;}</style></defs><title>fremantle-dockers</title><path class="cls-1" d="M40,10.37a71,71,0,0,0-15.57,1.55V39.09c0,2.44.3,4.33,3.11,6.18L40,53.4l12.45-8.13c2.82-1.85,3.12-3.74,3.12-6.18V11.92A71,71,0,0,0,40,10.37"/><path class="cls-2" d="M54.65,39.09A7.6,7.6,0,0,1,54.23,42,5.59,5.59,0,0,1,52,44.48L40,52.28c-2.19-1.43-10.72-7-11.94-7.8A5.59,5.59,0,0,1,25.81,42a7.59,7.59,0,0,1-.43-2.95V16.89A79.22,79.22,0,0,1,40,15.6a79,79,0,0,1,14.63,1.29Z"/><path class="cls-3" d="M34.1,38.47v1.87h9.07L45.93,38V31.19l-2.76-2.37H41.58v1.87h.9l1.59,1.36V37.1l-1.59,1.37H37.53V30.68h.93V28.82H34.1v1.86h1.56v7.79Z"/><path class="cls-3" d="M40,20.68A1.11,1.11,0,1,1,40,22.9,1.11,1.11,0,1,1,40,20.68Zm-.94,17.17H41V27.26H47.8V25.39H41v-.73a3,3,0,1,0-1.87,0v.73H32.23v1.87h6.85Z"/><path class="cls-3" d="M48.74,36v2.55a1.82,1.82,0,0,1-1.06,1.82L41,44.67V41H39.08v3.71l-6.72-4.34a1.82,1.82,0,0,1-1.06-1.82V36H29.43V39.1a2.52,2.52,0,0,0,1.35,2.43l9.24,6,9.24-6A2.52,2.52,0,0,0,50.6,39.1V36Z"/><path class="cls-2" d="M30.06,14.51V12.66c.55-.07,1.11-.14,1.66-.19v.4L30.59,13v.35l.81-.09v.31l-.81.09V14l1.13-.13v.42l-1.66.2m3.77-.33a1.78,1.78,0,0,1-1-.21c.07-.11.15-.22.22-.34a1.56,1.56,0,0,0,.8.18c.28,0,.39-.12.39-.23,0-.31-1.32,0-1.32-.69,0-.33.37-.63.92-.68a1.36,1.36,0,0,1,.92.24l-.25.3a1.23,1.23,0,0,0-.68-.17c-.25,0-.39.11-.39.22,0,.3,1.33,0,1.33.7,0,.36-.4.64-.93.68m3.09-1.67v1.43l-.54,0V12.53l-.69,0v-.41l1.91-.08v.41l-.68,0m1.31,1.39v-.4h.4v.4h-.4m2.84,0V12.27a.23.23,0,0,0,.25-.23h.25v1.84h-.5m3-1.07a.39.39,0,0,0-.41-.38c-.24,0-.38.1-.38.26v0c0,.16.13.28.37.29a.6.6,0,0,0,.42-.14ZM43.61,14a1.38,1.38,0,0,1-.81-.29l.21-.29a1,1,0,0,0,.57.21.39.39,0,0,0,.46-.43v-.11a.72.72,0,0,1-.53.18c-.45,0-.71-.26-.71-.58v0c0-.36.33-.65.84-.63a.88.88,0,0,1,.89.9v.22A.81.81,0,0,1,43.61,14Zm3.3-1a.39.39,0,0,0-.41-.38c-.24,0-.37.07-.37.24v0c0,.17.12.29.36.31a.58.58,0,0,0,.42-.12Zm-.43,1.2a1.41,1.41,0,0,1-.81-.32l.21-.28a1.05,1.05,0,0,0,.57.23.37.37,0,0,0,.46-.41v-.11a.69.69,0,0,1-.52.16c-.46,0-.72-.28-.72-.6v0c0-.36.33-.64.84-.6a.92.92,0,0,1,.89.94v.21A.78.78,0,0,1,46.48,14.2Zm2.76-1.14-.52.51.52.06v-.57Zm.48,1v.43l-.48-.06V14l-1-.11v-.32l1-1,.45,0v1.07l.29,0v.35Z"/><path d="M24.45,57.44h2v.67H25.19v.39h1.26v.66H25.19v.92h-.74Zm4.69,1.24c.29,0,.39-.06.39-.3s-.1-.31-.39-.31h-.59v.61Zm-.12.61h-.47v.79h-.72V57.44h1.34c.94,0,1.1.41,1.1.91a.81.81,0,0,1-.51.85l.48.88h-.79Zm2.54-1.85h2.11v.67H32.3v.32h1.33v.65H32.3v.37h1.38v.63H31.56Zm3.6,0h1L36.72,59l.59-1.58h1v2.64h-.72V58.55L37,60.08h-.55l-.58-1.52v1.52h-.67Zm6,1.7-.33-.85-.32.85Zm-.68-1.72h.75l1.07,2.66h-.77l-.13-.34H40.22l-.13.34h-.72Zm2.83,0h.8l1,1.4v-1.4h.71v2.64h-.68L44,58.54v1.54h-.71Zm4.5.67h-.88v-.67h2.5v.67H48.5v2h-.74Zm2.71-.67h.74v2h1.24v.63h-2Zm3,0h2.1v.67H54.21v.32h1.33v.65H54.21v.37h1.38v.63H53.47Z"/><path class="cls-2" d="M57.12,64.06l.27.27V65.6l-.37.31H54.61V64.06Zm.44,3.12,1.15-1V63.78l-1.05-1.05h-5.3v1.33h.93v4h-.93v1.32h2.25V67.23H56l1.46,2.12h1.67V68h-1l-.58-.85Zm-38.09,0-.8.81H16.43v-4h2.24l.8.8Zm-5.29-4.49v1.33h.92v4h-.92v1.32h5l1.58-1.58V64.31l-1.58-1.58ZM27,67.22l-.8.81H24.35l-.8-.81V64.86l.8-.8h1.84l.8.8ZM23.8,62.73l-1.57,1.58v3.46l1.57,1.58h2.94l1.58-1.58V64.31l-1.58-1.58Zm42.06,2.12V63.78l-1-1.05H61.35L60.3,63.78v1.87l1.05,1h2.92l.27.28v.77l-.27.28H61.9l-.27-.28v-.52H60.3V68.3l1.05,1h3.46l1-1V66.43l-1-1.05H61.9l-.27-.27v-.78l.27-.27h2.37l.27.27v.52ZM31.24,62.73l-1.57,1.58v3.46l1.57,1.58h2.94l1.58-1.58v-.93H34.43v.38l-.8.81H31.79l-.8-.81V64.86l.8-.8h1.84l.8.8v.39h1.33v-.94l-1.58-1.58Zm12.38,1.33V62.73H42.31l-3.06,2.75V62.73H37v1.33h.93v4H37v1.32h2.22V67.26l.86-.77,2.12,2.86h1.39V68h-.73L41.1,65.6l1.71-1.54Zm1.32,0H46v4H44.94v1.32h6v-2H49.58V68H47.33V66.7h2.12V65.38H47.33V64.06h2.25v.66H50.9v-2h-6Z"/><path class="cls-4" d="M0,0H80V80H0Z"/></svg>