<svg id="Layer_1" data-name="Layer 1" xmlns="http://www.w3.org/2000/svg" viewBox="0 0 80 80"><defs><style>.cls-1{fill:#024;}.cls-2{fill:#fff;}.cls-3{fill:none;}</style></defs><title>geelong-cats</title><path class="cls-1" d="M32.68,60.21H29.22v-2.1A3.53,3.53,0,0,0,29.11,57a.49.49,0,0,0-.49-.23c-.28,0-.47.09-.54.27a3.76,3.76,0,0,0-.12,1.2v5.62A3.43,3.43,0,0,0,28.08,65c.07.18.25.27.52.27a.49.49,0,0,0,.5-.27,4,4,0,0,0,.12-1.27V62.19h3.46v.47a8.35,8.35,0,0,1-.3,2.67,2.75,2.75,0,0,1-1.29,1.37,4.66,4.66,0,0,1-2.45.59,5.45,5.45,0,0,1-2.51-.5,2.49,2.49,0,0,1-1.3-1.38,8.16,8.16,0,0,1-.32-2.67V59.21a13.63,13.63,0,0,1,.1-2A2.66,2.66,0,0,1,25.19,56a3.29,3.29,0,0,1,1.36-1,5.32,5.32,0,0,1,2-.34,5.35,5.35,0,0,1,2.52.53,2.66,2.66,0,0,1,1.3,1.34,7.26,7.26,0,0,1,.32,2.49v1.15Zm5.22,2.51c-.18-1.37-.35-3.06-.53-5.07q-.52,3.47-.66,5.07ZM39.72,55l2,12.09H38.17L38,64.86H36.75L36.55,67H33L34.73,55Zm8.47,0v2.66H46.13V67H42.68V57.61h-2V55Z"/><path class="cls-1" d="M55.32,58.61H52.11v-.9a1.67,1.67,0,0,0-.12-.8.48.48,0,0,0-.41-.17.53.53,0,0,0-.47.23,1.24,1.24,0,0,0-.16.71,2,2,0,0,0,.17.91,2.65,2.65,0,0,0,1,.74,9.82,9.82,0,0,1,2.91,2A4.35,4.35,0,0,1,55.6,64a4.17,4.17,0,0,1-.33,1.9,2.55,2.55,0,0,1-1.28,1,5.67,5.67,0,0,1-2.22.41,5.39,5.39,0,0,1-2.37-.47,2.47,2.47,0,0,1-1.28-1.22,5.84,5.84,0,0,1-.3-2.1v-.79H51v1.47a1.78,1.78,0,0,0,.14.88.54.54,0,0,0,.48.19.59.59,0,0,0,.52-.25,1.32,1.32,0,0,0,.16-.73,2.08,2.08,0,0,0-.32-1.4,9.43,9.43,0,0,0-1.61-1.09,17,17,0,0,1-1.71-1.13,2.7,2.7,0,0,1-.7-1,4,4,0,0,1-.27-1.58,4.08,4.08,0,0,1,.39-2,2.59,2.59,0,0,1,1.26-1,5.49,5.49,0,0,1,2.1-.36,6.08,6.08,0,0,1,2.3.39,2.35,2.35,0,0,1,1.25,1,4.77,4.77,0,0,1,.31,2v.47Z"/><path class="cls-2" d="M15.72,27.21A41.51,41.51,0,0,0,40,56.32,41.51,41.51,0,0,0,64.22,27.21a7.31,7.31,0,0,1-2.77-10A7.87,7.87,0,0,1,62.3,16a66.06,66.06,0,0,0-44.67,0,7.19,7.19,0,0,1,1.8,4.8,7.31,7.31,0,0,1-3.71,6.37"/><path class="cls-1" d="M61.38,20.84a6.43,6.43,0,0,1,1.81-4.48L62.3,16A7.31,7.31,0,0,0,63,26.36a7.23,7.23,0,0,0,1.2.85A41.51,41.51,0,0,1,40,56.32,41.51,41.51,0,0,1,15.72,27.21,7.27,7.27,0,0,0,17.63,16l-.88.32a6.45,6.45,0,0,1-2.08,10.4A44.65,44.65,0,0,0,40,58.43a44.65,44.65,0,0,0,25.3-31.67,6.44,6.44,0,0,1-3.89-5.92"/><path class="cls-1" d="M22.8,24.41c-.26-.18-.71-.41-.67-.55.1-.34,2.52-.35,3,1.41.36,1.44.75,3.27,1.57,3.57a1.72,1.72,0,0,0,1.77-.26,5.11,5.11,0,0,1,2.49-1.15,5,5,0,0,1,2.6.75,6.63,6.63,0,0,0,2.85,1,4.34,4.34,0,0,0,2.42-1.08c.56-.37,2.1-1.31,3.08-.84.48.24.1.95-.1,1.3s-.64,1.31.24,1.68c1.19.51,4.47-2.82,7.18-2.82a4.88,4.88,0,0,1,2.48,1.15,1.73,1.73,0,0,0,1.77.26c.83-.3,1.27-2.19,1.57-3.53.41-1.81,2.8-1.77,2.82-1.45,0,.16-.34.35-.61.51s-.3.24.26.42c1.25.4,2.47.85,3.61,1.3a8.53,8.53,0,0,1,0-10.48,66.16,66.16,0,0,0-42.23,0,8.49,8.49,0,0,1,0,10.47c1.19-.48,2.4-.91,3.62-1.29.59-.18.53-.26.34-.38m22.82,20.2c-.41.47-1.92,2.79-2.59,3.59a3.75,3.75,0,0,1-6.13,0c-.67-.8-2.19-3.12-2.59-3.59-.81-.94-2-.9-4.19-.38a30,30,0,0,0-3.59,1.16A40.31,40.31,0,0,0,40,55,40.42,40.42,0,0,0,53.41,45.4a28.67,28.67,0,0,0-3.61-1.17c-2.14-.52-3.37-.56-4.18.38"/><path class="cls-1" d="M41.14,38.31c-.38.29-.82.67-1.2.67s-.82-.38-1.2-.67c-.14-.12-.11-.28.24-.33a5.84,5.84,0,0,1,1-.06,6,6,0,0,1,1,.06C41.25,38,41.28,38.19,41.14,38.31Zm0,7.37.41.4a2.77,2.77,0,0,0,.32-1.28,2.86,2.86,0,0,1,.25,1.33.49.49,0,0,1-.3.43,5.85,5.85,0,0,1-3.7,0,.49.49,0,0,1-.3-.43,2.73,2.73,0,0,1,.25-1.33,2.77,2.77,0,0,0,.32,1.28l.4-.4.36.51.46-.44.36.5.36-.5.46.44ZM53.39,30.75a21.67,21.67,0,0,0-2.52-.62,1.14,1.14,0,0,0-1.33.88,3,3,0,0,1-2.37,2.39c-2.24.37-2.78-1.48-3.34-1.3a12.5,12.5,0,0,1,2.05-1.48,1.7,1.7,0,0,0-.13.64,2.39,2.39,0,0,0,.69,1.49,2.39,2.39,0,0,0,.69-1.49,2,2,0,0,0-.38-1.1,8.11,8.11,0,0,1,2.7-.9s-1.48-.83-4,.54a12.71,12.71,0,0,0-2.64,1.81c-.26.24-1.19.94-1.05,2,.08.58.77,1,.42,1.42s-.87-.22-2.18-.22-1.88.6-2.18.22.34-.84.42-1.42c.14-1-.78-1.71-1.05-2a12.61,12.61,0,0,0-2.64-1.81c-2.56-1.37-4-.54-4-.54a8,8,0,0,1,2.7.9,2,2,0,0,0-.38,1.1,2.38,2.38,0,0,0,.7,1.49,2.4,2.4,0,0,0,.68-1.49,1.7,1.7,0,0,0-.13-.64,13,13,0,0,1,2.05,1.48c-.56-.18-1.1,1.67-3.34,1.3A3,3,0,0,1,30.38,31a1.14,1.14,0,0,0-1.33-.88,22.17,22.17,0,0,0-2.52.62A55.39,55.39,0,0,0,19,33.51a40.69,40.69,0,0,0,3.51,6.66c.56-.26,1.08-.49,1.51-.65a5.67,5.67,0,0,1,5.07,0,16,16,0,0,1,4.52,3.42c.14-.09.1-.41,0-.68a6.54,6.54,0,0,0-1.09-1.31c-1.53-1.53-.12-1.7.43-1.69a7.24,7.24,0,0,1,2,.36C33.34,38.1,29,38,29,38c3.11-.85,6.93,1,6.93,1-3.08-2.74-9.81-2.08-9.81-2.08a14.62,14.62,0,0,1,9.57.94c-2.35-2.09-6.36-2.23-6.36-2.23a9.58,9.58,0,0,1,8.31,2.88,11.37,11.37,0,0,1,1,1.43c.07.14.38.72,0,1.12a1.5,1.5,0,0,1-1.13.33,5.32,5.32,0,0,0-.17,1.32s-.45-.29-.52-1.32A3.58,3.58,0,0,1,35.7,41c-.5-.31-1.29-.81-1.68-.44s.06,1,.25,1.24,2.67,4.56,3.07,5.14a3.12,3.12,0,0,0,5.24,0c.4-.58,2.88-4.85,3.07-5.14s.64-.87.25-1.24-1.18.14-1.68.44a3.48,3.48,0,0,1-1.12.41c-.08,1-.53,1.32-.53,1.32a5.32,5.32,0,0,0-.17-1.32,1.48,1.48,0,0,1-1.12-.33c-.35-.4,0-1,0-1.12a10.12,10.12,0,0,1,1-1.43,9.58,9.58,0,0,1,8.31-2.88s-4,.14-6.36,2.23a14.66,14.66,0,0,1,9.58-.94S47.11,36.27,44,39c0,0,3.82-1.83,6.93-1,0,0-4.38.07-5.88,1.57a7.24,7.24,0,0,1,2-.36c.56,0,2,.16.43,1.69a6.54,6.54,0,0,0-1.09,1.31c-.14.27-.18.59,0,.68a16,16,0,0,1,4.52-3.42,5.69,5.69,0,0,1,5.08,0c.43.16.95.39,1.51.65A39.89,39.89,0,0,0,61,33.52,53.93,53.93,0,0,0,53.39,30.75Z"/><path class="cls-2" d="M26.81,20.72a12.77,12.77,0,0,1-1.83.79c-1.64.42-2.75-.2-3.12-1.64s.37-2.62,2.18-3.08c.64-.17,1.14-.17,1.42-.24a3.52,3.52,0,0,0,.42-.15l0,1.21a3.08,3.08,0,0,0-1.65-.05A1.53,1.53,0,0,0,23,19.62a1.33,1.33,0,0,0,1.79,1.12c.8-.2,1.16-.61,1-1.13l-.1-.4-1,.25a.9.9,0,0,0-.51.32v-.61c0-.34.07-.41.43-.5l2-.52a.54.54,0,0,0,0,.45l.53,2.08a1.47,1.47,0,0,0-.36,0M28,19.88l-.48-3c-.07-.41-.22-.63-.5-.71l4.61-.75a.35.35,0,0,0-.05.2c0,.09.18.38.43.93a2.86,2.86,0,0,0-1.67-.12l-1.75.28.17,1.06,1.94-.32a1.55,1.55,0,0,0,.57-.21L31,18a.5.5,0,0,1-.41.33l-1.7.27.18,1.14,1.85-.29a2.59,2.59,0,0,0,1.62-.82,8.69,8.69,0,0,0-.23,1.18.37.37,0,0,0,.12.19l-4.68.75c.24-.15.31-.42.25-.83m5.27-.81-.23-3c0-.42-.16-.65-.43-.76L37.25,15a.26.26,0,0,0-.06.19c0,.09.15.4.34,1a2.82,2.82,0,0,0-1.65-.27L34.11,16l.08,1.07,2-.15a1.5,1.5,0,0,0,.58-.16l-.32.67a.5.5,0,0,1-.44.29l-1.72.13L34.34,19l1.86-.13a2.58,2.58,0,0,0,1.69-.68,8.59,8.59,0,0,0-.33,1.16.35.35,0,0,0,.09.2l-4.72.35c.25-.14.35-.4.32-.82m4.93-4.15,1.87,0a.76.76,0,0,0-.41.78l0,3,1.26,0a2.55,2.55,0,0,0,1.75-.52,8.52,8.52,0,0,0-.44,1.13.4.4,0,0,0,.08.2l-4.13-.07c.26-.12.38-.37.39-.78l0-3c0-.42-.11-.67-.37-.79"/><path class="cls-2" d="M46.13,17.46a1.32,1.32,0,0,0-1.28-1.6,1.44,1.44,0,0,0-1.64,1.53A1.32,1.32,0,0,0,44.5,19a1.43,1.43,0,0,0,1.63-1.51m-1.64,2.36c-1.66-.13-2.53-1.11-2.42-2.54A2.37,2.37,0,0,1,44.85,15a2.3,2.3,0,0,1,2.43,2.59,2.38,2.38,0,0,1-2.79,2.21m4.22-.48c-.06.42,0,.67.25.85l-1.74-.28c.29-.08.43-.31.5-.73l.48-2.94c.07-.42,0-.69-.24-.86l2.15.35a.3.3,0,0,0-.06.11.57.57,0,0,0,0,.18l1.15,3.69.46-2.9c.07-.42,0-.7-.25-.86l1.69.28c-.38.12-.43.37-.48.72a.1.1,0,0,0,0,0l-.54,3.33a.49.49,0,0,0,0,.4l-1.77-.29a.25.25,0,0,0,.08-.12.53.53,0,0,0,0-.17l-1.28-3.82-.42,3ZM57,21.71a13.45,13.45,0,0,1-2-.18c-1.65-.42-2.32-1.49-2-2.93s1.58-2.13,3.4-1.67c.63.16,1.07.4,1.35.47a3.7,3.7,0,0,0,.44.07l-.59,1.05a3.23,3.23,0,0,0-1.43-.83,1.53,1.53,0,0,0-2.06,1.23,1.33,1.33,0,0,0,1,1.84c.81.2,1.31,0,1.44-.51l.11-.4-1-.25a.83.83,0,0,0-.6,0l.3-.54c.16-.29.26-.32.62-.23l2,.51a.58.58,0,0,0-.23.39l-.53,2.08L57,21.71"/><path class="cls-3" d="M0,0H80V80H0Z"/></svg>