<svg id="Layer_1" data-name="Layer 1" xmlns="http://www.w3.org/2000/svg" viewBox="0 0 50 50"><defs><style>.cls-1{fill:#007cbb;}.cls-2{fill:#e13210;}.cls-3{fill:#fcd800;}.cls-4{fill:#fefefe;}.cls-5{fill:none;}</style></defs><title>gold-coast-suns</title><path class="cls-1" d="M19.31,23.37a9.25,9.25,0,0,1-1.17-.61,9,9,0,0,1-1.22-.91,6.15,6.15,0,0,1-1-1.12,4.59,4.59,0,0,1-.66-1.46,3.93,3.93,0,0,1-.07-1.49,4.3,4.3,0,0,1,.53-1.52,6.06,6.06,0,0,1,.93-1.2,8,8,0,0,1,1.21-1,11,11,0,0,1,1.18-.67,11.29,11.29,0,0,1,1.21-.5,14,14,0,0,1,2.14-.56c.3-.06.62-.1.95-.14l1-.09c.31,0,.62,0,.91,0h0l1,0c.3,0,.62,0,.93.08h0l.42.06A15.86,15.86,0,0,0,24.68,12h0a16.93,16.93,0,0,0-1.88.11,15.13,15.13,0,0,0-2,.37c-.37.1-.72.21-1.06.33a10.18,10.18,0,0,0-1.21.49,10.82,10.82,0,0,0-1.17.66,8.63,8.63,0,0,0-1.2,1,5.83,5.83,0,0,0-.92,1.19l0,0a4.34,4.34,0,0,0-.51,1.48,4.1,4.1,0,0,0,.07,1.48,4.72,4.72,0,0,0,.66,1.45,5.57,5.57,0,0,0,1,1.1,7,7,0,0,0,1.21.9,11.5,11.5,0,0,0,1.16.61,8.65,8.65,0,0,0,1.08.42l-.53-.22"/><path class="cls-2" d="M34.21,18.3c0,2.8-4,5.07-9,5.07S16.3,21.1,16.3,18.3s4-5.06,9-5.06,9,2.27,9,5.06"/><path class="cls-3" d="M24.82,17.2h0a4,4,0,0,0-.57-.15l-.45,0a7.14,7.14,0,0,0-.8,0H21.23c-.77,0-1.11.23-1.26.85a3.66,3.66,0,0,0-.07.42l-.06.6a2.41,2.41,0,0,0,0,.53v.06c0,.75.61.75,1.22.75h1.64a2,2,0,0,0,.36,0c.48-.08.81-.17.91-.73a.09.09,0,0,0,0-.05L24,18.9h-3l.05-.54h3.62l-.11,1.19a2.66,2.66,0,0,1-.1.49.94.94,0,0,1-.32.5,1.37,1.37,0,0,1-.38.15,3.43,3.43,0,0,1-.55.06l-.63,0h-2a2.28,2.28,0,0,1-1.19-.24,1,1,0,0,1-.33-.69,2.17,2.17,0,0,1,0-.51l.16-1.42v0h0a2,2,0,0,1,.24-.8,1.19,1.19,0,0,1,.69-.54,3.56,3.56,0,0,1,1-.12H23.4l.36,0a1.62,1.62,0,0,1,.4.05,1.1,1.1,0,0,1,.29.09.54.54,0,0,1,.22.15.86.86,0,0,1,.15.46M34.63,20a5,5,0,0,1-.87,1.24,7.29,7.29,0,0,1-1.22,1A10.17,10.17,0,0,1,31.3,23,11.83,11.83,0,0,1,30,23.5c-.36.12-.75.24-1.14.33a16,16,0,0,1-2.16.36l-1,.06c-.31,0-.63,0-1,0a15.75,15.75,0,0,1-3.06-.41q-.54-.14-1.05-.3a4.84,4.84,0,0,1-.49-.18,10.47,10.47,0,0,1-1.82-.87,9.1,9.1,0,0,1-1.17-.87,6.67,6.67,0,0,1-.93-1.06,4.37,4.37,0,0,1-.61-1.36,3.34,3.34,0,0,1-.07-1.37A3.79,3.79,0,0,1,16,16.45h0l0,0a5.08,5.08,0,0,1,.87-1.13,7,7,0,0,1,1.17-.94,9.73,9.73,0,0,1,1.13-.65c.37-.17.76-.34,1.18-.49a14.22,14.22,0,0,1,3-.69l1-.08c.3,0,.6,0,.89,0h0a14.71,14.71,0,0,1,1.88.11h0a13.52,13.52,0,0,1,2.09.4,10.36,10.36,0,0,1,1.19.39,11.85,11.85,0,0,1,1.19.53,8.47,8.47,0,0,1,1.28.81,6,6,0,0,1,1.09,1,5.14,5.14,0,0,1,.53.75,4.34,4.34,0,0,1,.28.62A3.58,3.58,0,0,1,35,18.34a.38.38,0,0,1,0,.1v0A3.75,3.75,0,0,1,34.63,20m-.1-1.69A3.37,3.37,0,0,0,34.24,17a4.49,4.49,0,0,0-1-1.37,6.87,6.87,0,0,0-1.17-.92A9.24,9.24,0,0,0,30.84,14a10.73,10.73,0,0,0-1.12-.42c-.35-.11-.71-.21-1.08-.29a9.32,9.32,0,0,0-.92-.17,15.63,15.63,0,0,0-2.47-.2h0c-.52,0-1,0-1.57.08a14.73,14.73,0,0,0-2.63.51,11.43,11.43,0,0,0-1.08.38,8.52,8.52,0,0,0-1.1.52,7.51,7.51,0,0,0-1.21.81,5.2,5.2,0,0,0-1,1.07A3.77,3.77,0,0,0,16,17.75a3,3,0,0,0-.05.42v.19h2.09L18,18.9H16c0,.1.05.22.08.35l0,.06a4.37,4.37,0,0,0,.7,1.28,5.61,5.61,0,0,0,1,1,7.63,7.63,0,0,0,1.18.74,9.41,9.41,0,0,0,1.07.48q.51.2,1.08.36c.31.09.62.16.92.23a17.33,17.33,0,0,0,1.76.25q.69.06,1.38.06h.28c.3,0,.6,0,.89,0a14.94,14.94,0,0,0,2.89-.5,12.05,12.05,0,0,0,1.2-.4,9.52,9.52,0,0,0,1.2-.57,7,7,0,0,0,1.29-.9l0,0,.49-.49H27.37a4.63,4.63,0,0,1-.54,0,1.56,1.56,0,0,1-.59-.15c-.34-.16-.49-.53-.46-1.12v-.14l.15-1.43h0v0h0a2,2,0,0,1,.08-.43,1.2,1.2,0,0,1,.56-.74,1.72,1.72,0,0,1,.67-.23,4,4,0,0,1,.64,0h2.18a2.47,2.47,0,0,1,1.09.18.62.62,0,0,1,.32.61l-.2-.07A5.79,5.79,0,0,0,29.67,17H27.88a1.07,1.07,0,0,0-1,.43,1.44,1.44,0,0,0-.2.52,2.88,2.88,0,0,0-.05.33l-.07.6V19c0,.11,0,.22,0,.33v.13a.76.76,0,0,0,.19.56,1,1,0,0,0,.75.23H34L34,20a3.44,3.44,0,0,0,.48-1.53v0c0-.06,0-.11,0-.17"/><path class="cls-4" d="M25.13,17.18a1.09,1.09,0,0,0-.22-.65.94.94,0,0,0-.33-.23,1.65,1.65,0,0,0-.36-.11,3.11,3.11,0,0,0-.44-.06l-.38,0H21.22a3.75,3.75,0,0,0-1.11.14,1.49,1.49,0,0,0-.87.67,2.22,2.22,0,0,0-.28.94L18.8,19.3a2.71,2.71,0,0,0,0,.57,1.18,1.18,0,0,0,.47.92,2.48,2.48,0,0,0,1.36.29h2.66a4,4,0,0,0,.59-.07,1.72,1.72,0,0,0,.49-.19,1.2,1.2,0,0,0,.45-.67,2.92,2.92,0,0,0,.11-.56L25.07,18H20.82l-.1,1.18h3v.13h0c-.06.35-.19.41-.65.48a1.47,1.47,0,0,1-.31,0H21.05c-.76,0-.89-.06-.91-.44v-.07a2.57,2.57,0,0,1,0-.48l.06-.59a3.08,3.08,0,0,1,.07-.39c.1-.42.26-.6.95-.6H23c.28,0,.53,0,.77,0a3.71,3.71,0,0,1,.43.06,2.83,2.83,0,0,1,.5.13l.15.07.26.15,0-.3v-.25Zm-.32,0a3.56,3.56,0,0,0-.56-.15l-.45,0a7.14,7.14,0,0,0-.8,0H21.23c-.77,0-1.11.23-1.26.85a3.66,3.66,0,0,0-.07.42l-.06.6a2.41,2.41,0,0,0,0,.53v.06c0,.75.61.75,1.22.75h1.64a2,2,0,0,0,.36,0c.48-.08.81-.17.91-.73a.09.09,0,0,0,0-.05L24,18.9h-3l.05-.54h3.62l-.11,1.19a2.66,2.66,0,0,1-.1.49,1,1,0,0,1-.32.5,1.32,1.32,0,0,1-.39.15,3.19,3.19,0,0,1-.54.06l-.63,0h-2a2.37,2.37,0,0,1-1.18-.24,1,1,0,0,1-.33-.69,2.17,2.17,0,0,1,0-.51l.16-1.42v0h0a2.1,2.1,0,0,1,.24-.81,1.18,1.18,0,0,1,.69-.53,3.56,3.56,0,0,1,1-.12h2.54a2.25,2.25,0,0,1,.4.06,1.1,1.1,0,0,1,.29.09.54.54,0,0,1,.22.15.86.86,0,0,1,.15.46h0Zm8.48-1.61a7.47,7.47,0,0,0-1.17-.93A10.39,10.39,0,0,0,30.84,14a11.65,11.65,0,0,0-1.12-.42,14.2,14.2,0,0,0-2.9-.58c-.52-.05-1-.08-1.57-.08h0c-.52,0-1,0-1.57.08a14.73,14.73,0,0,0-2.63.51,11.43,11.43,0,0,0-1.08.38,8.52,8.52,0,0,0-1.1.52,7.51,7.51,0,0,0-1.21.81,5.2,5.2,0,0,0-1,1.07A3.77,3.77,0,0,0,16,17.75a3.05,3.05,0,0,0-.05.41v.2h2.09L18,18.9H16c0,.1.05.22.08.35l0,.06a4.37,4.37,0,0,0,.7,1.28,5.61,5.61,0,0,0,1,1,7.63,7.63,0,0,0,1.18.74,9.41,9.41,0,0,0,1.07.48q.51.2,1.08.36c.31.09.62.16.92.23a17.33,17.33,0,0,0,1.76.25c.46,0,.92.06,1.39.06h.28c.29,0,.59,0,.88,0a14.94,14.94,0,0,0,2.89-.5,11.25,11.25,0,0,0,1.2-.4,9.52,9.52,0,0,0,1.2-.57,7,7,0,0,0,1.29-.9l0,0,.49-.49H27.37a4.63,4.63,0,0,1-.54,0,2,2,0,0,1-.59-.15c-.34-.16-.49-.53-.46-1.12v-.14l.15-1.43h0v0h0a2,2,0,0,1,.08-.43,1.2,1.2,0,0,1,.56-.74,1.78,1.78,0,0,1,.67-.23,4,4,0,0,1,.64,0h2.18a2.47,2.47,0,0,1,1.09.18.62.62,0,0,1,.32.61l-.2-.07A5.79,5.79,0,0,0,29.67,17H27.88a1.07,1.07,0,0,0-1,.43,1.44,1.44,0,0,0-.2.52,2.88,2.88,0,0,0-.05.33l-.07.6V19c0,.11,0,.22,0,.33v.13a.76.76,0,0,0,.19.56,1,1,0,0,0,.75.23H34L34,20a3.42,3.42,0,0,0,.48-1.54v0c0-.06,0-.11,0-.17A3.33,3.33,0,0,0,34.24,17,4.49,4.49,0,0,0,33.29,15.6Zm.92,2.85v0a3.18,3.18,0,0,1-.44,1.4h-6.3a.75.75,0,0,1-.53-.13.41.41,0,0,1-.09-.33.76.76,0,0,0,0-.15c0-.09,0-.18,0-.29v-.1l.06-.6c0-.11,0-.2,0-.3a1.3,1.3,0,0,1,.16-.41c.15-.24.38-.28.76-.28h1.79a6,6,0,0,1,1.53.16,1.75,1.75,0,0,1,.33.13l.26.15v-.36a1,1,0,0,0-.5-1,2.65,2.65,0,0,0-1.23-.22H27.9a6.77,6.77,0,0,0-.69,0,2.41,2.41,0,0,0-.78.27,1.5,1.5,0,0,0-.7.93,3,3,0,0,0-.07.32.7.7,0,0,0,0,.16h0v0l-.15,1.43a.49.49,0,0,0,0,.12v0c-.05.9.32,1.27.65,1.42a2,2,0,0,0,.69.18,5,5,0,0,0,.57,0h5.37a6.85,6.85,0,0,1-1.18.81,8.88,8.88,0,0,1-1.17.55,11.62,11.62,0,0,1-2.16.63c-.32.07-.65.12-1,.16s-.57.07-.85.09l-.87,0h-.07a14.62,14.62,0,0,1-3.29-.31,12.35,12.35,0,0,1-2-.56,10.71,10.71,0,0,1-1-.47,7,7,0,0,1-1.13-.72,5.23,5.23,0,0,1-1-.92,3.65,3.65,0,0,1-.65-1.17h1.87l.1-1.18h-2.1a1,1,0,0,1,0-.24,3.48,3.48,0,0,1,.56-1.33,5.42,5.42,0,0,1,.93-1A6.93,6.93,0,0,1,19,14.69a10.32,10.32,0,0,1,1.06-.51,13.43,13.43,0,0,1,2-.6,13.64,13.64,0,0,1,1.68-.26c.26,0,.53-.05.8-.06l.74,0h0l.77,0a14.61,14.61,0,0,1,2.55.34c.36.08.72.18,1.06.29a10.53,10.53,0,0,1,1.08.4,9,9,0,0,1,1.24.65,6.36,6.36,0,0,1,1.12.89A4.24,4.24,0,0,1,34,17.09a2.94,2.94,0,0,1,.26,1.22Zm.88-1.51a6.53,6.53,0,0,0-.31-.66,5.48,5.48,0,0,0-.56-.8,7.29,7.29,0,0,0-1.14-1.08,9.56,9.56,0,0,0-1.33-.83A11.13,11.13,0,0,0,30.54,13c-.39-.15-.81-.28-1.23-.4a15.4,15.4,0,0,0-2.13-.41h0a15.18,15.18,0,0,0-1.91-.11h0l-.91,0-1,.09c-.32,0-.64.08-.95.14a14,14,0,0,0-2.14.56,12.41,12.41,0,0,0-1.22.5,11.92,11.92,0,0,0-1.17.67,8.11,8.11,0,0,0-1.21,1,6,6,0,0,0-.93,1.2v0h0a4.39,4.39,0,0,0-.51,1.49,3.93,3.93,0,0,0,.07,1.49,4.34,4.34,0,0,0,.66,1.46,6,6,0,0,0,1,1.12,9,9,0,0,0,1.22.91,10.73,10.73,0,0,0,1.87.9l.5.18a14.33,14.33,0,0,0,3.16.66,14,14,0,0,0,1.58.07,14.72,14.72,0,0,0,1.49-.07A13.76,13.76,0,0,0,29,24.14a12.29,12.29,0,0,0,2.49-.88,9.58,9.58,0,0,0,1.27-.72A8.31,8.31,0,0,0,34,21.46a5.34,5.34,0,0,0,.92-1.32,3.94,3.94,0,0,0,.42-1.63.13.13,0,0,0,0-.06,4,4,0,0,0-.25-1.5ZM35,18.43v.06A3.75,3.75,0,0,1,34.63,20a5,5,0,0,1-.87,1.24,7.29,7.29,0,0,1-1.22,1,8.94,8.94,0,0,1-1.24.7A10.15,10.15,0,0,1,30,23.5c-.36.12-.75.23-1.14.33a16,16,0,0,1-2.16.36l-1,.06c-.31,0-.63,0-1,0a16.74,16.74,0,0,1-2-.19,14,14,0,0,1-2.12-.52,4.84,4.84,0,0,1-.49-.18,10.47,10.47,0,0,1-1.82-.87,8.32,8.32,0,0,1-1.17-.88,5.89,5.89,0,0,1-.93-1.06,4.22,4.22,0,0,1-.61-1.35,3.56,3.56,0,0,1-.07-1.38A4,4,0,0,1,16,16.45h0l0,0a5.61,5.61,0,0,1,.87-1.13,8.17,8.17,0,0,1,1.17-.94,11.35,11.35,0,0,1,1.13-.64,11.61,11.61,0,0,1,1.18-.49,14.22,14.22,0,0,1,3-.69l1-.08.89,0h0l1,0,.92.08h0a14.82,14.82,0,0,1,2.09.4,11,11,0,0,1,1.19.39,11.85,11.85,0,0,1,1.19.53,7.75,7.75,0,0,1,1.28.81,6.67,6.67,0,0,1,1.09,1,5.22,5.22,0,0,1,.53.76,4.34,4.34,0,0,1,.28.62A3.58,3.58,0,0,1,35,18.34a.38.38,0,0,1,0,.1Z"/><path class="cls-2" d="M10.56,25.85C10.44,24.38,9.66,24,9,24c-.94,0-1.46.61-1.46,1.68,0,2.92,5.92,4.32,5.92,9,0,2.82-1.88,4.39-4.6,4.39S4.62,36.81,4.5,34.25l2.77-.4c.12,1.73.8,2.58,1.74,2.58a1.5,1.5,0,0,0,1.69-1.56c0-3.39-5.92-4.3-5.92-9.21,0-2.72,1.64-4.27,4.51-4.27A3.76,3.76,0,0,1,12,22.46a5,5,0,0,1,1.33,3.09Zm13,7.15,0,1.44C23.5,37.38,21.81,39,19,39s-4.46-1.61-4.46-4.55l.06-10.93L17.5,24.7v9.86c0,1.26.5,1.87,1.55,1.87s1.55-.61,1.55-1.87l0-9,2.93.51s2.18.23,2.18.23v.53c-1.55.07-2.23,0-2.23,2.05l0,4.15ZM35.1,34.56l0,2c0,1.57.93,1.61,2.58,1.68v.6s-2.49,0-2.58-.07H32.54l-3.71-10,0,.24v9.76H26.16V26.24l4.27-.79,2,6h.05V24.75l2.63-1,0,10.78Z"/><path class="cls-2" d="M42.54,25.85C42.42,24.38,41.64,24,41,24c-.94,0-1.46.61-1.46,1.68,0,2.92,5.92,4.32,5.92,9,0,2.82-1.88,4.39-4.6,4.39s-4.25-2.19-4.37-4.75l2.77-.4c.12,1.73.8,2.58,1.74,2.58a1.5,1.5,0,0,0,1.69-1.56c0-3.39-5.92-4.3-5.92-9.21,0-2.72,1.64-4.27,4.51-4.27A3.76,3.76,0,0,1,44,22.46a5,5,0,0,1,1.34,3.09Z"/><path class="cls-5" d="M0,0H50V50H0Z"/></svg>