<svg id="Layer_1" data-name="Layer 1" xmlns="http://www.w3.org/2000/svg" viewBox="0 0 80 80"><defs><style>.cls-1{fill:#562500;}.cls-2{fill:#ffc400;}.cls-3{fill:#212121;}.cls-4{fill:#fff;}</style></defs><title>hawthorn-hawks</title><path class="cls-1" d="M27.4,23.37l.9-3.57a11,11,0,0,0,.27-1.62h0a13.79,13.79,0,0,0,.24,1.64l.79,3.55Zm3.84-9.13h-5l-3,10.11V14.24H18.56v5.09H16.75V14.25H12.08V27.39h4.67V22.21h1.81v5.18h7.86l.41-1.62h3.35l.22,1c1.46-.24,2.93-.42,4.4-.56l-3.56-12Zm35.67,4.91c-1.1-.53-1.46-.86-1.46-1.41s.38-.73,1.06-.73a4.07,4.07,0,0,1,1.94.54l1-2.7a7.37,7.37,0,0,0-3.63-.8c-3,0-4.88,2-4.88,4.42a4,4,0,0,0,2.57,3.74c1.08.51,1.42.86,1.42,1.35s-.38.71-1.08.71a3.86,3.86,0,0,1-2-.63l-.49,1.49L59,20.22l3.09-6H57.34L54.86,20h0V14.24H46.29l-1.16,6A13,13,0,0,0,45,21.74h0a10.71,10.71,0,0,0-.16-1.47l-1.21-6H39.79l-1.27,6a14.61,14.61,0,0,0-.19,1.47h0a11.76,11.76,0,0,0-.17-1.47l-1.1-6H32.27l3.37,11.9q2.53-.2,5.07-.21L41.43,23a7.88,7.88,0,0,0,.2-1.27h0A9.89,9.89,0,0,0,41.88,23L42.65,26c1.67,0,3.33.15,5,.31l2.51-8.93v9.23c1.56.22,3.11.5,4.65.83h0V21.16h0l2.32,6.23h5.18l0,0a12,12,0,0,0,2.42.22c3,0,5.1-1.91,5.1-4.36,0-1.53-.36-2.82-3-4.07"/><path class="cls-2" d="M19.49,30.58C19.85,46.92,27.67,57,41,67.62c13.28-10.62,21.1-20.7,21.46-37a64.91,64.91,0,0,0-42.92,0"/><path class="cls-1" d="M64.35,37a23,23,0,0,0,.39-3.8c-25.68-10-32,1.43-32,1.43C27,35.83,22.4,39.39,24.14,45a9,9,0,0,0,3.35,4.42,2.87,2.87,0,0,1-.33-2.16c.44-1.9,3-3.16,6.8-3,5.95.26,7.7,1.34,7.7,1.34s-9.94-2.2-12.69.07a8.82,8.82,0,0,1,2.11-.25c6,0,10.79,4,10.79,13.41A17.25,17.25,0,0,1,40.13,67C27.8,57,20.38,47.29,19.55,32.25c-.76.27-1.51.56-2.26.86.38,21,23.65,36.32,23.65,36.32s1.86-1.22,3-2.06a23.64,23.64,0,0,0-1.75-18.79,20.64,20.64,0,0,1,3.33,17.61q2.15-1.66,4.14-3.51A23.8,23.8,0,0,0,44.9,47.13a20.35,20.35,0,0,1,6,14.35C52,60.36,53.13,59.19,54.16,58a24.21,24.21,0,0,0-7-13.08,20.73,20.73,0,0,1,8,11.9Q56.55,55,57.81,53.1a26.53,26.53,0,0,0-9.12-10.81,22.62,22.62,0,0,1,9.87,9.61c.72-1.16,1.38-2.36,2-3.58a29,29,0,0,0-11.11-9.07,25,25,0,0,1,11.68,7.9c.58-1.26,1.11-2.55,1.57-3.86A31.91,31.91,0,0,0,49.13,36a27.28,27.28,0,0,1,14,6.08,38.59,38.59,0,0,0,1-3.81A33.66,33.66,0,0,0,48.22,33a30,30,0,0,1,16.13,4"/><path class="cls-2" d="M57.81,52.73ZM28.39,38.78c-.12.85,0,2.23,2.15,3.47,1.66,1,4.27,1.14,6,1.37,2.12.28,4.4.83,5.12,1.93-.72-1.93-4.62-2.13-7.12-2.88-2.73-.83-2.61-3.49-2.15-4.91.25-.79.75-1.69.28-2.19s-1.13-.15-1.13-.15A14.66,14.66,0,0,0,27.85,37c.53.26.65,1,.54,1.77"/><path class="cls-1" d="M31.58,38.49a.54.54,0,0,0-.66-.39,3.07,3.07,0,0,0-1.46.79.25.25,0,0,0-.07.32c.06.09.21.1.35,0h0a2,2,0,0,1,.45-.19,1.3,1.3,0,0,1,.63,0h0a.57.57,0,0,0,.26,0,.55.55,0,0,0,.5-.58"/><path class="cls-3" d="M40.57,35.91a9.29,9.29,0,0,1-2,.49A3.71,3.71,0,1,0,46,35.64a3.77,3.77,0,0,0-.72-1.85,11.11,11.11,0,0,0-3,1.27,10.69,10.69,0,0,1-1.69.85"/><path class="cls-2" d="M44.4,34a12.71,12.71,0,0,0-1.82.83,1.5,1.5,0,1,1-1.76,1.18,1.52,1.52,0,0,1,.09-.28l-.34.14a7.72,7.72,0,0,1-1.16.34,2.89,2.89,0,1,0,5-2.21"/><path class="cls-4" d="M42.49,35a.65.65,0,0,0,1.3,0,.67.67,0,0,0-.35-.58c-.4.19-.73.37-.94.49a.28.28,0,0,0,0,.09"/><path class="cls-3" d="M40.57,35.91a10.69,10.69,0,0,0,1.69-.85,10.64,10.64,0,0,1,3.24-1.31A3.26,3.26,0,0,0,47.44,33a30.11,30.11,0,0,0-11.68,3.09c.94.72,3.5.34,4.81-.17"/><path d="M36.54,43.62c2.12.28,4.4.83,5.12,1.93,0,0-1.75-1.08-7.7-1.34-3.82-.16-6.36,1.1-6.8,3a2.87,2.87,0,0,0,.33,2.16A9,9,0,0,1,24.14,45a6.6,6.6,0,0,1,2.2-7.47s.84-.72,1.44-.5.72,1,.61,1.8,0,2.23,2.15,3.47c1.66,1,4.27,1.14,6,1.37"/><path class="cls-4" d="M29.71,36.51a8.59,8.59,0,0,0-3.65,2.91A13.45,13.45,0,0,1,30,37.1a.32.32,0,0,0,.17-.42h0a.32.32,0,0,0-.43-.16"/></svg>