<?xml version="1.0" encoding="utf-8"?>
<!-- Generator: Adobe Illustrator 23.1.0, SVG Export Plug-In . SVG Version: 6.00 Build 0)  -->
<svg version="1.1" id="Layer_1" xmlns="http://www.w3.org/2000/svg" xmlns:xlink="http://www.w3.org/1999/xlink" x="0px" y="0px"
	 viewBox="0 0 80 80" style="enable-background:new 0 0 80 80;" xml:space="preserve">
<style type="text/css">
	.st0{fill:none;}
	.st1{fill:#DD1C2B;}
	.st2{fill:#D71F2E;}
	.st3{fill:#000032;}
</style>
<title>melbourne</title>
<path class="st0" d="M0,0h80v80H0V0z"/>
<path class="st0" d="M0,0h80v80H0V0z"/>
<g>
	<g>
		<path class="st1" d="M67.347,17.91c-0.753-0.263-1.531-0.522-2.318-0.771v-2.279l-0.595-0.276
			c-0.088-0.041-2.208-1.015-6.307-1.989c-6.778-1.611-13.626-1.95-18.177-1.95c-8.246,0-14.436,1.06-18.177,1.95
			c-4.099,0.975-6.219,1.948-6.307,1.989l-0.595,0.276v2.279c-0.787,0.25-1.566,0.509-2.318,0.771l-0.689,0.24V35.4l3.662,4.043
			c0.791,5.19,2.309,9.976,4.512,14.226c1.873,3.614,4.244,6.855,7.048,9.631c5.015,4.967,10.094,7.143,12.079,7.6
			c0.266,0.061,0.6,0.121,0.602,0.122l0.182,0.033l0.182-0.033c0.003-0.001,0.34-0.061,0.605-0.122
			c1.979-0.456,7.043-2.625,12.047-7.569c2.796-2.763,5.164-5.988,7.038-9.584c2.205-4.231,3.728-8.996,4.53-14.162l3.684-4.194
			V18.151L67.347,17.91z"/>
	</g>
	<path class="st1" d="M61.211,33.645c-0.012-0.003-0.023-0.006-0.035-0.009c-0.901,24.725-17.18,32.718-20.693,33.549
		c-0.212,0.05-0.491,0.102-0.491,0.102s-0.278-0.051-0.489-0.101c-3.51-0.829-19.8-8.823-20.695-33.562
		c-0.011,0.003-0.023,0.006-0.034,0.009c0.313,25.848,17.154,34.129,20.73,34.973c0.212,0.05,0.489,0.101,0.489,0.101
		s0.279-0.051,0.491-0.102C44.063,67.758,60.893,59.478,61.211,33.645z"/>
	<path class="st2" d="M13.764,34.745"/>
	<path class="st2" d="M13.764,34.745"/>
	<g>
		<path class="st3" d="M67.051,18.794c-0.998-0.349-2.001-0.676-3.007-0.986l0-2.379c0,0-8.281-3.844-24.052-3.844
			S15.941,15.43,15.941,15.43l0,2.379c-1.006,0.309-2.008,0.637-3.007,0.986c0,5.375,0,10.75,0,16.124l3.605,3.98
			c3.296,22.521,19.237,30.073,22.899,30.916c0.24,0.055,0.554,0.112,0.554,0.112s0.316-0.057,0.556-0.112
			c3.658-0.843,19.531-8.365,22.875-30.766l3.627-4.129C67.051,29.543,67.051,24.17,67.051,18.794z"/>
	</g>
	<path class="st1" d="M61.211,33.645c-0.012-0.003-0.023-0.006-0.035-0.009c-0.901,24.725-17.18,32.718-20.693,33.549
		c-0.212,0.05-0.491,0.102-0.491,0.102s-0.278-0.051-0.489-0.101c-3.51-0.829-19.8-8.823-20.695-33.562
		c-0.011,0.003-0.023,0.006-0.034,0.009c0.313,25.848,17.154,34.129,20.73,34.973c0.212,0.05,0.489,0.101,0.489,0.101
		s0.279-0.051,0.491-0.102C44.063,67.758,60.893,59.478,61.211,33.645z"/>
	<g>
		<path class="st1" d="M15.175,20.611c0.832-0.272,1.671-0.529,2.513-0.771c0.19,1.749,0.381,3.497,0.571,5.246
			c0.038,0.532,0.057,0.798,0.095,1.33c0.044-0.555,0.067-0.832,0.111-1.387c0.201-1.858,0.403-3.717,0.604-5.575
			c0.847-0.23,1.7-0.445,2.555-0.645c0,3.988,0,7.976,0,11.965c-0.763,0.179-1.143,0.273-1.902,0.471c0-2.46,0-4.919,0-7.379
			c-0.045,0.754-0.067,1.132-0.112,1.886c-0.207,1.896-0.414,3.792-0.621,5.688c-0.541,0.147-0.811,0.222-1.351,0.379
			c-0.206-1.775-0.412-3.549-0.618-5.324c-0.044-0.736-0.066-1.104-0.111-1.84c0,2.46,0,4.919,0,7.379
			c-0.696,0.209-1.044,0.317-1.736,0.542C15.175,28.588,15.175,24.6,15.175,20.611z"/>
		<path class="st1" d="M22.417,18.628c1.325-0.295,2.657-0.563,3.996-0.79c0,0.782,0,1.172,0,1.954
			c-0.802,0.138-1.202,0.211-2.002,0.369c0,0.996,0,1.991,0,2.987c0.78-0.154,1.171-0.226,1.953-0.361c0,0.769,0,1.153,0,1.921
			c-0.783,0.135-1.173,0.207-1.953,0.361c0,1.082,0,2.164,0,3.245c0.799-0.158,1.2-0.232,2.002-0.369c0,0.743,0,1.114,0,1.857
			c-1.339,0.227-2.671,0.495-3.996,0.79C22.417,26.604,22.417,22.616,22.417,18.628z"/>
		<path class="st1" d="M27.211,17.705c0.803-0.129,1.205-0.189,2.011-0.298c0,3.369,0,6.739,0,10.108
			c0.721-0.097,1.082-0.142,1.804-0.223c0,0.743,0,1.114,0,1.857c-1.276,0.151-2.545,0.325-3.815,0.521
			C27.211,25.681,27.211,21.693,27.211,17.705z"/>
		<path class="st1" d="M31.725,17.108c0.884-0.093,1.771-0.17,2.657-0.23c1.959-0.21,2.253,1.319,2.27,2.893
			c0.009,0.821,0.123,2.188-0.768,2.667c1.098,0.354,0.849,2.188,0.849,3.029c0.002,1.654-0.385,3.294-2.335,3.374
			c-0.892,0.061-1.785,0.138-2.674,0.231C31.725,25.085,31.725,21.096,31.725,17.108z M34.17,21.866
			c0.522-0.038,0.555-0.281,0.555-1.572c0-1.292-0.016-1.567-0.555-1.528c-0.183,0.013-0.274,0.02-0.457,0.034
			c0,1.033,0,2.067,0,3.1C33.896,21.887,33.988,21.88,34.17,21.866z M34.203,27.047c0.555-0.04,0.588-0.412,0.588-1.687
			c0-1.276-0.033-1.598-0.588-1.558c-0.196,0.014-0.294,0.021-0.489,0.037c0,1.082,0,2.164,0,3.245
			C33.909,27.069,34.007,27.061,34.203,27.047z"/>
		<path class="st1" d="M43.37,25.329c0-2.858,0-5.716,0-8.574c0.81,0.034,1.215,0.057,2.025,0.111c0,2.874,0,5.748,0,8.622
			c0,1.276,0.033,1.566,0.604,1.609c0.571,0.043,0.603-0.243,0.603-1.519c0-2.874,0-5.748,0-8.622
			c0.789,0.065,1.184,0.103,1.971,0.188c0,2.858,0,5.716,0,8.574c0.04,1.959-0.421,3.387-2.624,3.249
			C43.779,28.83,43.357,27.247,43.37,25.329z"/>
		<path class="st1" d="M49.29,17.225c0.895,0.103,1.789,0.223,2.679,0.359c2.133,0.346,2.318,2.383,2.314,4.179
			c-0.002,1.091,0.111,2.745-0.954,3.45c0.297,1.569,0.593,3.139,0.889,4.708c-0.782-0.141-1.173-0.207-1.958-0.328
			c-0.259-1.395-0.518-2.79-0.778-4.186c-0.097-0.014-0.146-0.021-0.243-0.035c0,1.356,0,2.713,0,4.069
			c-0.779-0.11-1.169-0.161-1.95-0.252C49.289,25.201,49.289,21.213,49.29,17.225z M51.709,23.584
			c0.568,0.084,0.559-0.469,0.584-2.011c0.009-0.577,0.199-1.931-0.584-2.139c-0.188-0.028-0.282-0.041-0.47-0.068
			c0,1.383,0,2.766,0,4.15C51.427,23.542,51.521,23.556,51.709,23.584z"/>
		<path class="st1" d="M54.9,18.082c0.852,0.161,1.277,0.248,2.125,0.432c0.279,1.343,0.557,2.686,0.835,4.029
			c0.135,0.715,0.202,1.073,0.337,1.789c0-1.851,0-3.703,0-5.554c0.75,0.175,1.124,0.267,1.871,0.46c0,3.988,0,7.976,0,11.965
			c-0.753-0.195-1.13-0.287-1.887-0.464c-0.358-1.62-0.716-3.24-1.075-4.86c-0.135-0.662-0.202-0.993-0.337-1.655
			c0,2.067,0,4.134,0,6.2c-0.746-0.16-1.12-0.235-1.868-0.376C54.9,26.059,54.9,22.07,54.9,18.082z"/>
		<path class="st1" d="M60.854,19.445c1.318,0.357,2.629,0.742,3.927,1.166c0,0.782,0,1.172,0,1.954
			c-0.781-0.254-1.172-0.375-1.958-0.609c0,0.996,0,1.991,0,2.987c0.766,0.228,1.149,0.346,1.911,0.593c0,0.769,0,1.153,0,1.921
			c-0.762-0.247-1.144-0.366-1.911-0.593c0,1.082,0,2.164,0,3.245c0.785,0.233,1.177,0.355,1.958,0.609c0,0.743,0,1.114,0,1.857
			c-1.298-0.424-2.609-0.809-3.927-1.166C60.854,27.422,60.854,23.434,60.854,19.445z"/>
		<path class="st1" d="M38.08,28.131c-0.678-0.807-0.71-2.341-0.71-5.474c0-3.003,0.032-4.537,0.662-5.377
			c0.388-0.484,1.033-0.694,2.002-0.694s1.631,0.21,1.986,0.662c0.662,0.823,0.678,2.357,0.678,5.409
			c0,3.342-0.016,4.796-0.694,5.538c-0.355,0.404-1.001,0.549-1.97,0.549C39.081,28.745,38.435,28.567,38.08,28.131z M40.679,22.706
			c0-3.907,0-4.134-0.646-4.134c-0.63,0-0.63,0.226-0.63,4.134c0,3.94,0,4.15,0.63,4.15C40.679,26.855,40.679,26.645,40.679,22.706z
			"/>
	</g>
	<g>
		<polygon class="st1" points="36.421,41.254 36.432,41.282 35.849,39.568 		"/>
		<polygon class="st1" points="43.577,41.253 43.911,40.272 43.577,41.253 		"/>
		<polygon class="st1" points="35.009,42.994 38.619,53.269 38.619,47.713 36.623,41.842 36.623,41.842 36.432,41.282 
			36.421,41.254 35.849,39.568 35.43,38.339 35.431,38.339 35.329,38.038 35.329,38.038 34.997,37.06 31.886,37.06 33.073,38.301 
			33.073,42.793 33.073,43.005 33.073,43.005 33.072,57.843 31.94,59.07 36.134,59.07 35.009,57.843 		"/>
		<path class="st1" d="M32.613,39.95c-0.11,0.066-0.223,0.13-0.333,0.192c-0.104,0.059-0.213,0.12-0.318,0.182
			c-0.177,0.105-0.356,0.228-0.564,0.387c-0.341,0.26-0.665,0.539-0.962,0.829c-0.57,0.556-1.072,1.183-1.493,1.861
			c-0.406,0.656-0.741,1.35-0.993,2.064c-0.086,0.243-0.171,0.492-0.253,0.732c-0.042,0.122-0.083,0.244-0.125,0.365
			c-0.123,0.356-0.226,0.648-0.326,0.92c-0.002,0.005-0.005,0.011-0.008,0.017c-0.01,0.021-0.021,0.045-0.021,0.069
			c0,0.026,0.013,0.053,0.024,0.077c0.004,0.008,0.007,0.015,0.009,0.021l0.121,0.329c0.027,0.074,0.053,0.149,0.078,0.223
			l0.461,1.339c0.198,0.574,0.449,1.142,0.747,1.688c0.383,0.702,0.844,1.35,1.369,1.928c0.273,0.3,0.571,0.589,0.885,0.859
			c0.276,0.237,0.647,0.542,1.065,0.789c0.1,0.059,0.203,0.118,0.303,0.174c0.11,0.062,0.223,0.126,0.333,0.192l0.053,0.031v-2.61
			c-0.328-0.254-0.634-0.526-0.91-0.81c-0.476-0.492-0.868-1.024-1.165-1.582c-0.332-0.624-0.544-1.273-0.63-1.928
			c-0.111-0.848-0.02-1.724,0.263-2.533c0.205-0.585,0.51-1.151,0.907-1.684c0.391-0.524,0.869-1.013,1.424-1.456
			c0.037-0.03,0.075-0.058,0.112-0.087v-2.611L32.613,39.95z"/>
		<path class="st1" d="M43.011,54.642c-0.897,0.197-1.831,0.305-2.776,0.319c-0.074,0.001-0.148,0.002-0.222,0.002
			c-0.806,0-1.609-0.068-2.386-0.201c-0.762-0.131-1.505-0.327-2.212-0.583v2.2c0.863,0.245,1.762,0.421,2.676,0.523
			c0.633,0.07,1.28,0.106,1.921,0.106c0.426,0,0.857-0.016,1.282-0.047c1.042-0.076,2.068-0.247,3.05-0.507
			c0.076-0.02,0.155-0.042,0.241-0.066V54.19C44.079,54.371,43.55,54.524,43.011,54.642z"/>
		<path class="st1" d="M38.619,40.241v-2.058c-0.055,0.004-0.111,0.009-0.166,0.014c-0.849,0.076-1.69,0.217-2.501,0.417
			l0.672,1.973C37.272,40.424,37.942,40.308,38.619,40.241z"/>
		<polygon class="st1" points="46.925,43.005 46.924,43.005 46.924,39.304 46.925,39.304 46.925,38.301 48.112,37.06 45.002,37.06 
			44.683,37.998 44.668,38.041 44.592,38.265 44.593,38.266 43.911,40.272 43.577,41.253 43.577,41.253 43.401,41.769 43.4,41.769 
			41.373,47.729 41.373,53.27 41.379,53.271 44.989,42.994 44.989,53.13 44.99,53.13 44.99,56.83 44.989,56.83 44.989,57.843 
			43.865,59.07 48.059,59.07 46.926,57.843 		"/>
		<path class="st1" d="M48.751,43.693c0.316,0.369,0.567,0.726,0.769,1.091l0.027,0.049l2.01-1.849l-0.039-0.032
			c-0.282-0.235-0.565-0.478-0.838-0.714c-0.194-0.167-0.394-0.34-0.593-0.508c-0.065-0.055-0.129-0.11-0.193-0.165
			c-0.206-0.176-0.419-0.359-0.639-0.527c-0.281-0.216-0.579-0.425-0.885-0.62c-0.194-0.123-0.389-0.239-0.537-0.326
			c-0.161-0.095-0.307-0.179-0.462-0.25l-0.007-0.003l-0.034-0.017v2.565C47.87,42.783,48.349,43.222,48.751,43.693z"/>
		<path class="st1" d="M49.52,50.352c-0.431,0.781-1.067,1.511-1.891,2.17c-0.095,0.076-0.195,0.152-0.296,0.226v2.564
			c0.013-0.006,0.026-0.013,0.031-0.015l0.007-0.003c0.282-0.129,0.551-0.296,0.812-0.458l0.066-0.041
			c0.309-0.192,0.609-0.397,0.893-0.609c0.237-0.177,0.465-0.371,0.685-0.558c0.052-0.044,0.104-0.088,0.156-0.132
			c0.258-0.218,0.514-0.437,0.798-0.682l0.128-0.11c0.199-0.171,0.405-0.349,0.61-0.519l0.039-0.032l-2.01-1.849L49.52,50.352z"/>
		<path class="st1" d="M40.968,50.437l0-10.199c0.23,0.013,1.284,0.086,2.401,0.368l0.68-1.999c-0.775-0.19-1.578-0.325-2.389-0.402
			c-0.227-0.021-0.461-0.039-0.696-0.052l0.004-2.284c0.251,0.002,1.493,0.017,1.992,0.072c0.551,0.061,1.471,0.368,1.48,0.371
			l0.057,0.019l0.046-2.365h-6.607l1.008,1.233l0.083,0.683v18.639l0.041,0.003c0.327,0.023,0.601,0.033,0.887,0.033
			c0.287,0,0.584-0.01,0.971-0.025l0.042-0.002l0-0.457h0V50.437z"/>
		<polyline class="st1" points="39.993,59.069 41.524,57.413 38.461,57.413 39.993,59.069 		"/>
		<path class="st1" d="M38.79,57.37"/>
	</g>
</g>
</svg>
