<svg id="Layer_1" data-name="Layer 1" xmlns="http://www.w3.org/2000/svg" xmlns:xlink="http://www.w3.org/1999/xlink" viewBox="0 0 80 80"><defs><style>.cls-1{fill:#fff;}.cls-2{fill:none;}.cls-3{mask:url(#mask);}.cls-4{fill:#c3d0e4;}.cls-5{fill:#003ca0;}</style><mask id="mask" x="12" y="5.1" width="56.24" height="69.83" maskUnits="userSpaceOnUse"><g id="b"><path id="a" class="cls-1" d="M12,5.1H68.24V74.93H12Z"/></g></mask></defs><title>north-melbourne-kangaroos</title><path class="cls-2" d="M0,0H80V80H0Z"/><g class="cls-3"><path class="cls-1" d="M64.75,40.55c1.28-2.81,1.92-8.45,1.92-8.45l-1.64-3A112.16,112.16,0,0,0,52.9,25.84s-1.91-2.39-2.76-3.5l1-1.87s-1.79-1.79-2.29-2.2l.41-.55A11.08,11.08,0,0,0,51,8.81l0-.09v0c-.39-1.36-1.1-4.11-3.09-3.52a6.77,6.77,0,0,0-2.33,1.94c-.74.76-1.44,1.55-2.11,2.37s-1.32,1.78-2,2.63a18.35,18.35,0,0,0-2.17,3.29l-1.16-.25a18.86,18.86,0,0,0-2.26-1.81,16.42,16.42,0,0,0-4.68-2.51,22.22,22.22,0,0,0-3.9-.47,27.07,27.07,0,0,0-4.93,0h0l-.37,0a7.29,7.29,0,0,0-2.82.84l-.08,0-.07.06a1.7,1.7,0,0,0-.68,1.06c-.21,1,.41,1.55,1.33,2.34a14.49,14.49,0,0,0,1.86,1.38l.23.18.76.62a4.71,4.71,0,0,1,.29.46c.8,1.77,2.48,4.34,7.78,6.85l-.12.72-.92.18a131.79,131.79,0,0,0-14,3.57l-.45.14-1.62,3A45.7,45.7,0,0,0,15,39.47l.34,1.08H12V67.27l1.77-.86q1.88-.91,3.81-1.68l.78-.3h0L19.45,64c1.22-.43,2.46-.82,3.71-1.17v5.31h8l7.38,6.75h2.62l7.63-6.75H57V62.84c1.39.39,2.78.84,4.13,1.32l.59.22.67.26c1.37.53,2.74,1.13,4.06,1.77l1.77.86V40.55Z"/></g><path class="cls-4" d="M27.59,35.69l-4.12,2.38c2.51-.72,5-1.45,7.45-2.17.07-.65.18-1.38.3-2.16l-3.33,2c0-.77-.3-.1-.3-.1M47.27,15.55a7.77,7.77,0,0,0,1.32-6.29v0A.67.67,0,0,0,48.47,9a1.94,1.94,0,0,0-.25.22c0,.07.08.23.08.25v0a7.7,7.7,0,0,1-1.59,6.23A12.27,12.27,0,0,1,44.65,18l.21.1a10.64,10.64,0,0,0,2.41-2.51m-.9,7.24c1.53,2,3.28,3.9,4.91,5.95.52.61.94,1.21,1.46,1.83l.1,0,.06-.18q-2.8-3.71-5.51-7.46l-.29-.41L47.56,21a10.73,10.73,0,0,0-4.39-2.59,6.12,6.12,0,0,0-1.28-.14h0a5.55,5.55,0,0,0-.82.06h0l-.08,0c-.74.17-1.68.34-2.42.51.51.33.71.38,1.22.71h0a1.11,1.11,0,0,1,.29.17c.15.1.19.11.32.21l.17,0c-.33-.5-1.18-1.36,1-1.68h0c.67-.15,4.49,1.44,5.09,2.93ZM23.83,13.53c1.67.16,6.66.44,10.29,3a22.07,22.07,0,0,1,3.43,2.63h0a15.45,15.45,0,0,0-12.24-5.73q-.9,0-1.83.09ZM34.12,30.12a3.3,3.3,0,0,0,.18.32l.05,0,0,.06.08.12a1.87,1.87,0,0,0,.19.23h0a4.64,4.64,0,0,0,3.15,1.78,3.55,3.55,0,0,0,.46,0,2.8,2.8,0,0,0,1-.2c-1.21-.09-1.69-2.73-1.83-3.81l-.07,0c-.28,2.93-3.22,2.14-2.51-5a8.13,8.13,0,0,0-1.27,4.11h0l-.16.73s0,.05,0,.08h-.08a4.74,4.74,0,0,0,.25,1.18,4.51,4.51,0,0,0,.69,1.24,1.34,1.34,0,0,1-.11-.19l-.09-.6ZM46.49,11.41l-.21.21c-.32.26-.64.55-1,.86a15.57,15.57,0,0,0-3.51,4.87h.32l.12-.22c.62-1,2-3.36,2.93-4,0,0-2.12,3.21-2.21,4.29h0a4.68,4.68,0,0,0,.76.18c-.1-1,2.42-5.62,2.7-6.14l.05-.06m4.44,24.5c-.24.14-.49.27-.73.39l4.6,2.09.56.25.08,0q-2.27-1.37-4.51-2.76m-3.86-8.13h0c-.32-.43-.62-.85-.93-1.28.67,1.48,2.25,4.16,3,5.52l.94.25-1.18-2c-.45-.65-1.38-1.88-1.8-2.5"/><path class="cls-4" d="M54.19,34.87l0,.31-.29.11-1.08.42-.69-.56.15-.11,1.31-.52h0v0c.1-1.26.21-2.6.33-4.08l0-.26,0,0q-3.12-3.73-6.16-7.55l.94-1.68,0-.05-.27-.25a9.57,9.57,0,0,0-2.52-1.85,11,11,0,0,0,2.3-2.86,9.15,9.15,0,0,0,.84-6.72c-.19-.81-.37-1.3-.49-1.28a.08.08,0,0,0-.07,0L47.37,9.35,46.23,11a16.45,16.45,0,0,0-2.3,2.1l.08-.5-1.14,1.77a13.77,13.77,0,0,0-1.76,3l-.32.06h0l-.48.11.28.24-1.2,0-.15.39a8.28,8.28,0,0,1-1.2-.22l-.1.3a16.21,16.21,0,0,0-3.2-2.92c-.3-.19-.59-.38-.9-.55l-2.55-1.49,0,.37a19,19,0,0,0-6.2-1,19.6,19.6,0,0,0-2.84.15c-.2,0-.46.06-.51.25a.46.46,0,0,0,.18.5l2.24,1.57a6.93,6.93,0,0,1,.76,1.18c.78,1.7,2.46,4.48,9.08,7a10.46,10.46,0,0,0-.76,2.89l-.45-.74s-.62,2.87-1.18,5.91l-9.76,7.22,2.39-2,5.95-4.94.56-.46,1.25-7,0-.21.53.55.13-.82c-6.07-2.54-7.81-5.13-8.6-6.86a5.4,5.4,0,0,0-.52-.81l-.88-.71-.29-.24a13.1,13.1,0,0,1-1.76-1.3c-.91-.79-1-.89-.9-1.19,0-.11.22-.3.22-.3a6.08,6.08,0,0,1,2.32-.68l.36,0a24.86,24.86,0,0,1,3-.17,18.44,18.44,0,0,1,5.26.82l0-.28a23.89,23.89,0,0,1,3.15,1.61c.46.25.9.52,1.33.81a17.41,17.41,0,0,1,2.9,2.46l.36.46.35-.74,1.19.27.21-.49a16.47,16.47,0,0,1,2.24-3.47l1.19-1.76,0,.46c.46-.46.94-.9,1.45-1.32l.85-1.1c.68-.84,1.37-1.72,2-2.6a.56.56,0,0,1,.39-.19c.35,0,.76.33,1.44,2.69v0A9.87,9.87,0,0,1,48.45,17a10.81,10.81,0,0,1-1.22,1.45,18.87,18.87,0,0,1,2.58,2.2l-.19.34-.8,1.45c1.62,2.14,3.54,4.48,5.65,7.14l.18.22Z"/><path class="cls-4" d="M35.13,38.51c.49-.87,2.81-4.64,6.29-4.71,1.26.48,1.69,2.15,1.8,2.7h.07a19.42,19.42,0,0,0,.38-2.28l-.07,0a5.43,5.43,0,0,0-1.79-.61c-.3,0-.48-.06-.48-.06v0l.2-.45-1.3.3-1.63.38.1-.4A7.36,7.36,0,0,1,36,32.53h0l-.07,0h0l-.14-.08q-.35,3-.72,6.1Z"/><path class="cls-5" d="M26.83,62.23c-.11.84-.22,1.66-.33,2.47-.12-.79-.25-1.56-.38-2.31l-1.49.38v4h1.1V64.55c.12.74.25,1.49.38,2.26h.84c.12-.81.23-1.62.34-2.46l0,2.46h1.1l-.06-4.89c-.51.09-1,.2-1.51.31M30.62,66l0-1.5.66,0v-.87l-.67.05V62.42l.73-.08v-.87c-.63.08-1.27.17-1.9.27l.08,5.07h1.9v-.87h-.74m3.68-.06h-.74l-.06-4.68-1.17.11.08,5.48h1.9v-.92m2.44,0H36.5l0-1.66h.25l.11.13v1.44l-.11.1M36.47,62h.24l.11.14v1.08l-.11.1h-.24V62M38,61.41,37.52,61c-.75,0-1.49.07-2.24.12l.06,5.73h2.21l.47-.46L38,64l-.25-.28.25-.27v-2m2.6,4.35-.11.09h-.12l-.12-.09V62l.12-.09h.12l.11.09v3.79m-1.07-4.84-.46.47v5l.46.46h1.76l.47-.46v-5l-.47-.47c-.59,0-1.18,0-1.78,0m3.32,0,0,5.4.46.46H45l.47-.45.06-5.27L44.38,61l-.05,4.75-.11.09H44.1L44,65.78,44,61l-1.18,0m5.27,2.51-.11.08-.24,0,0-1.33.24,0,.1.1v1.15m-1.49-2.28-.07,5.63h1.16l0-2.39H48l.11.09,0,2.29h1.17l0-2.48-.3-.28.31-.23,0-1.93-.46-.48c-.74-.09-1.48-.17-2.22-.23m5.29,2.73-.48-2.13-1.07-.17-.08,5.2h1.09l0-2.07c.16.7.33,1.39.5,2.07H53L53,62.09l-1.08-.2,0,2M54,66.82h1.9v-.65l-.74,0v-1.2l.66.08v-.67l-.66-.1v-.95l.72.16v-.66c-.62-.17-1.24-.32-1.86-.47l0,4.5M43.94,25.67a4.32,4.32,0,0,1-3.63.57l0,0a4.37,4.37,0,0,1,1.07,2.34h.06a6.19,6.19,0,0,1,1.06-1.41h-.71l1.57-.91c.28-.29.51-.51.61-.61Zm11,2.42a77.78,77.78,0,0,1,8.12,3,25.32,25.32,0,0,1-1.36,6.67c.72.64,1.45,1.26,2.2,1.86a26.26,26.26,0,0,0,1.52-7.54c-.34-.67-.7-1.34-1.07-2a94,94,0,0,0-10.05-2.72l.64.71Z"/><path class="cls-5" d="M48.16,35.83a8.42,8.42,0,0,1-3-.55,5.13,5.13,0,0,1,0-.88h0l.65.15a10.33,10.33,0,0,1,2.91,1.19l.07,0a2.33,2.33,0,0,1-.56,0Zm4.26-1.74.3-.61,0-.07,0-.08.23-.46.35-.75L53.18,34l-.86.32.1-.2ZM44.65,18c-.3-.13-.6-.25-.91-.35l-.37-.1-.4-.08c.09-1.08,2.21-4.28,2.21-4.29-.91.64-2.31,2.95-2.93,4l-.12.21h-.32a15.57,15.57,0,0,1,3.51-4.87c.32-.31.64-.6,1-.86a3.07,3.07,0,0,0,.25-.26l1.12-1.52.12-.16c.14-.17.3-.36.45-.51A1.94,1.94,0,0,1,48.47,9a.67.67,0,0,1,.12.29v0a7.77,7.77,0,0,1-1.32,6.29,10.84,10.84,0,0,1-2.41,2.51l-.21-.1ZM31,36.73c.15-.43.43-1.4.68-2.31.16-.57.32-1.19.49-1.82l1.13-4.46.06.37h.13v-.08l.16-.73h0a8.13,8.13,0,0,1,1.27-4.11l.23-.37v0L35,22.47l0,0c-7.51-2.78-8.79-5.6-9.21-6.53a8.38,8.38,0,0,0-.93-1.42l-.09-.09-.93-.65-.33-.23q.93-.09,1.83-.09a15.45,15.45,0,0,1,12.24,5.73h.09a8.29,8.29,0,0,1,2.06.42h0c-.51-.33-.71-.38-1.22-.71.74-.17,1.69-.34,2.42-.51l.08,0h0a5.55,5.55,0,0,1,.82-.06h0a5.7,5.7,0,0,1,1.28.14A10.73,10.73,0,0,1,47.56,21l-.46,1.47.29.41c1.63,2.27,3.43,4.71,5.51,7.46l-.06.18-.1,0a8.87,8.87,0,0,1-1.61.37h0c-.24,0-.25,0-.66-.27-.14-.08-.28-.16-.43-.23l-.34-.19L46,26.09l0,.23.12.18c.31.43.61.85.93,1.28h0c.42.62,1.35,1.85,1.8,2.51l1.18,2L52,33c-.17.52-.26.86-.43,1.39l-1.16.74L50,35.4a3.79,3.79,0,0,1-.79.3l-.3.06-.05,0-2.41-1.79-.89-.68-.17-.13-.44.43c0,.12,0,.23,0,.35h0V34c-1.25-.81-3.66-2-3.66-2a1.47,1.47,0,0,1,.18-1l0-.06-.06-.14a4.89,4.89,0,0,1-2,1.66,2.71,2.71,0,0,1-1,.2,3.55,3.55,0,0,1-.46,0,4.64,4.64,0,0,1-3.15-1.78h0l-.19-.23-.08-.12,0-.06-.05,0a3.3,3.3,0,0,1-.18-.32l0,0,.09.6a1.34,1.34,0,0,0,.11.19,1.79,1.79,0,0,0,.25.34,4,4,0,0,0,1.22,1.14l.14.08h0l.07,0h0a7.36,7.36,0,0,0,2.71.79l-.1.4,1.63-.38,1.3-.3-.2.45v0a4.07,4.07,0,0,0,.61.08,5.57,5.57,0,0,1,1.66.59l.07,0a2.44,2.44,0,0,1,.51.29c.13.4.28.87.28.89l.12.54.2.09a14,14,0,0,0,3.66.75,2.64,2.64,0,0,0,.74-.1,4.87,4.87,0,0,0,1-.39c.23-.11.47-.23.73-.38,2.19,1.36,4.4,2.7,6.61,4l0,0,.34-.14-.08-.07-2.29-1.83L52.8,35.71l-.69-.56.15-.11,1.31-.52,0,0v0c.1-1.25.21-2.59.33-4.08l0-.25,0,0q-3.12-3.73-6.16-7.55l.94-1.68,0-.05-.27-.25a9.57,9.57,0,0,0-2.52-1.85,11,11,0,0,0,2.3-2.86,9.15,9.15,0,0,0,.84-6.72c-.19-.81-.37-1.3-.49-1.28a.06.06,0,0,0-.06,0L47.37,9.35,46.23,11a16.45,16.45,0,0,0-2.3,2.1l.08-.5-1.14,1.77a13.36,13.36,0,0,0-1.75,3l-.33.06h0l-.48.11.28.24-1.2,0-.15.39a8.28,8.28,0,0,1-1.2-.22l-.1.29a16.22,16.22,0,0,0-3.2-2.91c-.22-.15-.45-.28-.67-.42h0l-.23-.13-2.55-1.49,0,.37a19,19,0,0,0-6.2-1,19.6,19.6,0,0,0-2.84.15c-.2,0-.46.06-.51.25a.46.46,0,0,0,.18.5l2.24,1.57a6.55,6.55,0,0,1,.76,1.18c.78,1.7,2.46,4.48,9.08,7a10.46,10.46,0,0,0-.76,2.89l-.45-.74s-.62,2.87-1.18,5.91l-9.76,7.22h.63l1-.54,4.12-2.38s.32-.67.3.1l3.33-2q-.18,1.08-.3,2.16c0,.23-.08.65-.09.86l.12,0Z"/><path class="cls-5" d="M42.17,24.14a.39.39,0,0,1-.4.24c.13-.09.11-.3.16-.45C42.15,24,42.17,24.14,42.17,24.14ZM41.42,22l.27.8-.48-.42a8.54,8.54,0,0,0-2.48-1.39A6.92,6.92,0,0,0,38,21a4.9,4.9,0,0,1,1.28.82c.27.25.86.85.48,1.19a.35.35,0,0,1-.35,0l0,0a1.59,1.59,0,0,0,.21.15,6.75,6.75,0,0,1,.79.72c0-.33.18-.48.44-.61a1.82,1.82,0,0,0-.44-.51,3.28,3.28,0,0,1,.88.6c-.16.1-.27.12-.35.22-.7.87,1.26,1.71,1.54.6a2.31,2.31,0,0,0,.47.11.4.4,0,0,1-.35.09c.08.83-.87,1.21-1.72,1.15l0,.05a3,3,0,0,0,2.59-.82c.08-.08.16-.25.27-.3s.25.06.38.11c.3-.16,1.28-.68,1.93-1.05l-.29,0a5.51,5.51,0,0,1-2.52.13c-.7-.24-1.67-1.55-1.82-1.76ZM19.27,50.43q-.94-4.34-1.85-8.68H13.5V65.18c1.28-.62,2.57-1.19,3.89-1.71l0-9c.63,2.85,1.25,5.59,1.87,8.26,1.27-.45,2.56-.86,3.86-1.22l.14-19.79h-4l-.05,8.68m11,6.31-.4.34-.46.06L29,56.91,29.11,45l.42-.3H30l.4.28Zm-3.76-15c-.57.5-1.13,1-1.69,1.52L24.75,59.6l1.66,1.12c2.13-.46,4.29-.82,6.46-1.07.57-.53,1.15-1.06,1.72-1.57l.06-14.94L33,41.75Zm14.84,7.06H40.5V44.6h.88l.4.27v3.67l-.4.27m4.69,2.43L45,50.33l1.11-.79,0-6.4-1.71-1.39H36.25l-.06,17.6c1.44-.09,2.87-.13,4.31-.13V51.66h.89l.4.28v7.29c1.44,0,2.88.11,4.31.23l0-8.22m.69-9.49,0,2.9,2.69.05.09,15.18c1.43.2,2.86.46,4.28.76l-.11-15.82,2.7.11,0-3.18Zm16.12,0,0,8.4L61.61,50l0-8.21H57.35l.13,19.8c1.41.39,2.81.84,4.2,1.34l0-9.49,1.29.27,0,9.7c1.39.54,2.77,1.14,4.14,1.81V41.75ZM18.64,37.2a25.08,25.08,0,0,1-1.19-6l-.67-.06.65-.27a115.1,115.1,0,0,1,12.12-4l.42-.56a128,128,0,0,0-13.83,3.52c-.38.66-.73,1.32-1.08,2a26.81,26.81,0,0,0,1.41,7.19c.74-.6,1.46-1.22,2.17-1.86m8.17-20.77c4.72,4.83,7.34,5.16,8.5,4.95-.29-.19-1-.5-1.28-.7h.88l-.44-.49,1.16.31a9.22,9.22,0,0,0-2.53-1.95l-2.91-1,.34-.1a25.07,25.07,0,0,0-3.61-1l-.11,0ZM41,71.93l-.54.38-4.23-3.9H33.52c3.11,3.06,5.5,5,5.65,5.13h1.74l5.81-5.15h-1Z"/></svg>