<?xml version="1.0" encoding="utf-8"?>
<!-- Generator: Adobe Illustrator 23.1.0, SVG Export Plug-In . SVG Version: 6.00 Build 0)  -->
<svg version="1.1" id="Layer_1" xmlns="http://www.w3.org/2000/svg" xmlns:xlink="http://www.w3.org/1999/xlink" x="0px" y="0px"
	 viewBox="0 0 80 80" style="enable-background:new 0 0 80 80;" xml:space="preserve">
<style type="text/css">
	.st0{fill:none;}
	.st1{fill:#008AAB;}
	.st2{fill:#FFFFFF;}
</style>
<path class="st0" d="M0,0h80v80H0V0z"/>
<g>
	<g>
		<path class="st1" d="M17.7,10.8v39.5c0,2.4,1.2,4.7,3.1,6.2L40,71.1l19.3-14.6c1.9-1.4,3.1-3.8,3.1-6.2V10.8H17.7z"/>
	</g>
	<path class="st2" d="M19,12.1v38.3c0,2,1,3.9,2.6,5.2l18.5,14l18.5-14c1.6-1.2,2.6-3.1,2.6-5.2V12.1H19z"/>
	<rect x="21" y="14.1" width="38" height="36.1"/>
	<polygon points="53.1,57 49.3,59.9 49.3,51.9 53.1,51.9 	"/>
	<polygon points="47.6,61.2 43.7,64.1 43.7,51.9 47.6,51.9 	"/>
	<polygon points="36.4,64.1 32.5,61.2 32.5,51.9 36.4,51.9 	"/>
	<polygon points="30.8,59.9 26.9,57 26.9,51.9 30.8,51.9 	"/>
	<path d="M21.3,51.9h3.8v3.7l-2.4-1.8C22.1,53.3,21.6,52.7,21.3,51.9z"/>
	<polygon points="40,66.9 38.1,65.4 38.1,51.9 42,51.9 42,65.4 	"/>
	<path d="M57.3,53.8l-2.4,1.8v-3.7h3.8C58.4,52.7,57.9,53.3,57.3,53.8z"/>
	<g>
		<g>
			<path class="st2" d="M39.1,42.4l-0.3,0c0,0,0,0,0,0l0-0.1c0,0,0,0,0,0l0.4-0.4h0.2c0,0,0,0,0,0v1.9c0,0,0,0,0,0h-0.2c0,0,0,0,0,0
				C39.1,43.8,39.1,42.4,39.1,42.4z"/>
			<path class="st2" d="M40.1,42.9L40.1,42.9c-0.1-0.1-0.3-0.2-0.3-0.5c0-0.3,0.3-0.5,0.6-0.5c0.4,0,0.7,0.2,0.7,0.5
				c0,0.2-0.2,0.4-0.3,0.5l0,0c0.1,0.1,0.4,0.2,0.4,0.5c0,0.3-0.3,0.6-0.7,0.6c-0.4,0-0.7-0.2-0.7-0.6C39.8,43.1,40,42.9,40.1,42.9z
				 M40.5,43.6c0.2,0,0.3-0.1,0.3-0.3c0-0.1-0.1-0.3-0.3-0.3c-0.2,0-0.3,0.2-0.3,0.3S40.3,43.6,40.5,43.6z M40.7,42.4
				c0-0.1-0.1-0.2-0.3-0.2c-0.1,0-0.3,0.1-0.3,0.2c0,0.1,0.1,0.2,0.3,0.3C40.6,42.6,40.7,42.5,40.7,42.4z"/>
			<path class="st2" d="M41.4,43.8l0.7-1.6h-0.8c0,0,0,0,0,0V42c0,0,0,0,0,0h1.2c0,0,0,0,0,0v0l-0.9,1.8c0,0,0,0.1-0.1,0.1h-0.2
				C41.5,43.9,41.4,43.9,41.4,43.8L41.4,43.8L41.4,43.8z"/>
			<path class="st2" d="M42.8,42.9c0-0.6,0.3-1,0.7-1c0.5,0,0.7,0.4,0.7,1s-0.3,1-0.7,1C43,43.9,42.8,43.5,42.8,42.9z M43.8,42.9
				c0-0.4-0.1-0.7-0.4-0.7c-0.2,0-0.4,0.2-0.4,0.7c0,0.4,0.1,0.7,0.4,0.7C43.7,43.6,43.8,43.3,43.8,42.9z"/>
		</g>
		<path class="st2" d="M41.9,19.8H30.7v2.4h1.5V36h-1.5v2.4h3l0.9-2.4l0,0v-3.4h7.3L41,30.1h-6.4v-7.9h7.2c2.2,0,4,1.8,4,4
			c0,0.7-0.2,1.3-0.5,1.9l1,2.7c1.2-1.2,1.9-2.8,1.9-4.5C48.2,22.7,45.4,19.8,41.9,19.8z"/>
		<polygon class="st2" points="49.1,41.7 42.6,24 40.3,24 38.5,28.9 41.1,28.9 41.4,27.9 44.7,36.7 38.2,36.7 39.3,33.8 36.7,33.8 
			33.8,41.7 32.2,41.7 32.2,44.1 37.9,44.1 37.9,41.7 36.3,41.7 37.3,39.1 45.6,39.1 46.6,41.7 45,41.7 45,44.1 50.7,44.1 
			50.7,41.7 		"/>
	</g>
</g>
<path class="st0" d="M0,0h80v80H0V0z"/>
</svg>
