<?xml version="1.0" encoding="utf-8"?>
<!-- Generator: Adobe Illustrator 24.0.1, SVG Export Plug-In . SVG Version: 6.00 Build 0)  -->
<svg version="1.1" id="Layer_1" xmlns="http://www.w3.org/2000/svg" xmlns:xlink="http://www.w3.org/1999/xlink" x="0px" y="0px"
	 viewBox="0 0 80 80" style="enable-background:new 0 0 80 80;" xml:space="preserve">
<style type="text/css">
	.st0{fill:#181716;}
	.st1{fill:#FFD200;}
	.st2{fill:#FFFFFF;}
	.st3{fill:#E31B23;}
	.st4{fill:#F6BAA5;}
	.st5{fill:#FFD840;}
	.st6{fill:#7E5622;}
</style>
<title>richmond-tigers</title>
<path class="st0" d="M40.3,60.2c0,0-5.3-3.2-5.3-3.2c-1.5-1-3.2-2.3-4.7-3.6l-0.8-0.8c-3.3-3-6-6.7-7.9-10.9
	c-0.1-0.2-0.2-0.4-0.2-0.5c0,0,0,0,0-0.1c-0.1-0.2-0.2-0.4-0.2-0.6c0,0,0,0,0,0c-0.2-0.6-0.5-1.2-0.7-1.9c0,0,0,0,0,0
	c-0.1-0.2-0.1-0.4-0.2-0.6c0,0,0,0,0,0C18.7,32.3,18.4,26,20,19.3c0,0,0.8-0.4,2.5-0.9c1.2-0.4,2.1-0.5,2.1-0.5
	c1-0.2,2.2-0.4,3.6-0.6c-0.5-0.5-1-1.1-1.2-1.5c0-0.1-0.1-0.2-0.1-0.2c-0.9-1.6-0.8-4.1,0-4.3c0.5-0.1,0.9,0,1.5,0.1
	c1.3,0.2,3.3,0.3,5.1,0.3c0,0,3.3-1.7,7.1-0.7c0,0,3-1.1,6.1,0.8c1.8,0.3,3.2,0.4,5.6,0.4c1,0,1.5,0.4,1.4,1.2
	c-0.3,2-0.9,3.2-1.5,3.9c1.6,0.2,2.9,0.4,4,0.7l0,0c0.9,0.2,2.1,0.5,2.1,0.5c1.7,0.5,2.5,0.8,2.5,0.9c0.1,0.4,0.2,0.8,0.3,1.2
	c0,0.1,0,0.1,0,0.2c0,0.2,0.1,0.3,0.1,0.5c0,0.1,0,0.1,0,0.2c0,0.2,0.1,0.3,0.1,0.5c0,0,0,0.1,0,0.1c0.1,0.8,0.2,1.6,0.3,2.4
	c0,0,0,0.1,0,0.1c0,0.2,0,0.4,0.1,0.5c0,0,0,0.1,0,0.1c0,0.2,0,0.4,0,0.6c0,0,0,0,0,0c0.1,0.8,0.1,1.6,0.1,2.4c0,0,0,0,0,0.1
	c0,0.2,0,0.4,0,0.6c0,0,0,0,0,0c0,1-0.1,1.9-0.2,2.9c0,0,0,0,0,0c-0.8,8.5-4.7,15.8-10.5,21C51.1,52.6,46.2,57,40.3,60.2z"/>
<path class="st0" d="M33.4,69.3c0.1,0,0.3,0,0.4,0h0.6c0.1,0,0.3,0,0.4,0c0,0,0,0,0,0c0,0.1,0,0.3,0,0.4c0,0-0.1,0-0.1,0
	c0-0.1,0-0.2-0.1-0.2c0-0.1-0.1-0.1-0.1-0.1c-0.1,0-0.4,0-0.4,0c0,0,0,0,0,0.1c0,0.2,0,0.4,0,0.6c0,0,0,0,0,0c0.1,0,0.3,0,0.4,0
	c0.1,0,0.1,0,0.1-0.1c0,0,0-0.1,0-0.1c0,0,0.1,0,0.1,0c0,0.1,0,0.2,0,0.3c0,0.1,0,0.2,0,0.3c0,0-0.1,0-0.1,0c0-0.1,0-0.1,0-0.1
	c0,0,0-0.1-0.1-0.1c0,0-0.3,0-0.4,0c0,0,0,0,0,0v0.6c0,0,0,0.1,0.1,0.1c0.1,0,0.2,0,0.3,0c0.2,0,0.2,0,0.3-0.1
	c0.1-0.1,0.1-0.2,0.2-0.3c0,0,0.1,0,0.1,0c0,0.1-0.1,0.3-0.1,0.4c0,0,0,0-0.2,0c-0.3,0-0.5,0-0.8,0c-0.2,0-0.4,0-0.5,0
	c0,0,0-0.1,0-0.1c0.1,0,0.2,0,0.2,0c0.1,0,0.1-0.1,0.1-0.2c0-0.2,0-0.4,0-0.7c0-0.2,0-0.5,0-0.6c0-0.1,0-0.1-0.1-0.1
	C33.5,69.4,33.5,69.4,33.4,69.3C33.4,69.3,33.4,69.3,33.4,69.3z"/>
<path class="st0" d="M35.8,70.9C35.9,71,36,71,36.1,71c0.1,0,0.3-0.1,0.3-0.2c0-0.2-0.1-0.2-0.3-0.4c-0.3-0.2-0.5-0.3-0.5-0.6
	c0-0.3,0.3-0.5,0.6-0.5c0.2,0,0.3,0,0.5,0c0,0.1,0,0.2,0,0.4c0,0-0.1,0-0.1,0c0-0.2-0.1-0.3-0.1-0.3c-0.1,0-0.1-0.1-0.2-0.1
	c-0.2,0-0.3,0.1-0.3,0.3c0,0.1,0.1,0.2,0.2,0.3c0.1,0.1,0.2,0.1,0.3,0.2c0.2,0.1,0.3,0.3,0.3,0.5c0,0.3-0.3,0.6-0.7,0.6
	c-0.2,0-0.4-0.1-0.4-0.1c0,0-0.1-0.4-0.1-0.5c0,0,0.1,0,0.1,0C35.7,70.8,35.7,70.9,35.8,70.9z"/>
<path class="st0" d="M38.6,71.1c-0.1,0-0.3,0-0.4,0c-0.3,0-0.4,0-0.5,0c0,0,0-0.1,0-0.1c0.1,0,0.1,0,0.2,0c0.1,0,0.1-0.1,0.1-0.2
	c0-0.3,0-0.9,0-1.3c0,0,0,0,0,0c-0.1,0-0.2,0-0.3,0c-0.1,0-0.1,0-0.1,0.1c0,0.1-0.1,0.2-0.1,0.3c0,0-0.1,0-0.1,0
	c0-0.1,0-0.4,0.1-0.5c0,0,0,0,0,0c0.1,0,0.2,0,0.3,0h1c0.2,0,0.2,0,0.3,0c0,0,0,0,0,0c0,0.1-0.1,0.3-0.1,0.5c0,0-0.1,0-0.1,0
	c0-0.1,0-0.2-0.1-0.3c0-0.1-0.1-0.1-0.1-0.1c-0.1,0-0.3,0-0.3,0c0,0,0,0,0,0c0,0.4,0,1.2,0,1.4c0,0.1,0,0.1,0.1,0.1
	C38.4,71,38.5,71,38.6,71.1C38.6,71,38.6,71.1,38.6,71.1z"/>
<path class="st0" d="M41.4,71.1c-0.1,0-0.3,0-0.5,0c-0.2,0-0.3,0-0.4,0c0,0,0-0.1,0-0.1c0.1,0,0.1,0,0.2,0c0.1,0,0.1-0.1,0.1-0.2
	c0-0.1,0-0.3,0-0.6c0-0.2,0-0.5,0-0.5c0-0.1,0-0.1-0.1-0.1c0,0-0.1,0-0.1,0c0,0,0-0.1,0-0.1c0.2,0,0.5-0.1,0.6-0.1c0,0,0,0,0,0
	c0,0.1,0,0.2,0,0.5c0,0.2,0,0.7,0,1c0,0.1,0,0.2,0.1,0.2C41.3,71,41.4,71,41.4,71.1C41.4,71,41.4,71.1,41.4,71.1z"/>
<path class="st0" d="M43.2,69.7c0,0.1-0.1,0.2-0.3,0.4c0,0,0,0,0,0c0.2,0.1,0.4,0.3,0.4,0.5c0,0.3-0.2,0.5-0.6,0.5
	c-0.4,0-0.6-0.2-0.6-0.4c0-0.1,0.1-0.2,0.4-0.4c0,0,0,0,0,0c-0.2-0.1-0.3-0.2-0.3-0.4c0-0.1,0.1-0.3,0.2-0.4
	c0.1-0.1,0.2-0.1,0.4-0.1C43,69.3,43.2,69.5,43.2,69.7z M42.9,70.8c0-0.2-0.1-0.3-0.4-0.5c0,0,0,0,0,0c-0.1,0.1-0.1,0.2-0.1,0.3
	c0,0.2,0.1,0.4,0.3,0.4C42.8,71,42.9,70.9,42.9,70.8z M42.4,69.6c0,0.2,0.1,0.2,0.4,0.4c0,0,0,0,0,0c0.1-0.1,0.1-0.2,0.1-0.3
	c0-0.2-0.1-0.4-0.3-0.4C42.5,69.4,42.4,69.5,42.4,69.6z"/>
<path class="st0" d="M45,69.7c0,0.1-0.1,0.2-0.3,0.4c0,0,0,0,0,0c0.2,0.1,0.4,0.3,0.4,0.5c0,0.3-0.2,0.5-0.6,0.5
	c-0.4,0-0.6-0.2-0.6-0.4c0-0.1,0.1-0.2,0.4-0.4c0,0,0,0,0,0c-0.2-0.1-0.3-0.2-0.3-0.4c0-0.1,0.1-0.3,0.2-0.4
	c0.1-0.1,0.2-0.1,0.4-0.1C44.8,69.3,45,69.5,45,69.7z M44.7,70.8c0-0.2-0.1-0.3-0.4-0.5c0,0,0,0,0,0c-0.1,0.1-0.1,0.2-0.1,0.3
	c0,0.2,0.1,0.4,0.3,0.4C44.6,71,44.7,70.9,44.7,70.8z M44.2,69.6c0,0.2,0.1,0.2,0.4,0.4c0,0,0,0,0,0c0.1-0.1,0.1-0.2,0.1-0.3
	c0-0.2-0.1-0.4-0.3-0.4C44.3,69.4,44.2,69.5,44.2,69.6z"/>
<path class="st0" d="M46.7,69.3c0,0-0.1,0.2-0.1,0.3c0,0-0.1,0.1-0.1,0.1c-0.2,0-0.3,0-0.4,0c0,0,0,0,0,0c0,0.1,0,0.1-0.1,0.1
	c0,0,0,0,0,0c0.1,0,0.4,0.2,0.5,0.3c0.2,0.1,0.3,0.2,0.3,0.5c0,0.4-0.4,0.6-0.8,0.6c-0.2,0-0.3-0.1-0.4-0.1c0,0,0-0.1,0-0.1
	c0,0,0.1-0.1,0.1-0.2c0,0,0,0,0,0c0.1,0.2,0.3,0.3,0.5,0.3c0.2,0,0.2-0.1,0.2-0.3c0-0.1,0-0.3-0.2-0.4c-0.2-0.1-0.4-0.2-0.5-0.3
	c0,0,0-0.1,0-0.1c0.1-0.2,0.2-0.6,0.3-0.7c0,0,0.1-0.1,0.1-0.1c0,0,0.2,0,0.3,0C46.6,69.3,46.6,69.3,46.7,69.3
	C46.6,69.3,46.7,69.3,46.7,69.3z"/>
<path class="st0" d="M30.9,66.2c-0.2,0.4-0.5,0.7-0.7,0.9c-0.3,0.2-0.5,0.2-0.7,0.2c-1.4,0-1.9-1.3-1.9-2.3c0-1.5,0.6-2.2,1.5-2.2
	c0.4,0,0.7,0.1,0.9,0.2c0.3,0.2,0.4,0.5,0.5,1c0,0.1,0.4,0,0.4,0c0-0.5,0.1-1.2,0.1-1.5c-0.3,0-1-0.2-1.8-0.2
	c-0.7,0-1.3,0.1-1.7,0.4c-1,0.5-1.5,1.4-1.5,2.4c0,1.9,1.2,2.8,3.1,2.8c0.6,0,1-0.1,1.3-0.2c0.3-0.1,0.6-0.9,0.8-1.2
	C31.2,66.3,31,66.2,30.9,66.2z"/>
<path class="st0" d="M25.5,67.2c-0.2-0.1-0.2-0.2-0.2-0.4c0-0.3,0-1.2,0-2c0-0.7,0-1.2,0-1.5c0-0.2,0-0.3,0.2-0.4
	c0.1,0,0.3-0.1,0.5-0.1c0-0.1,0-0.4,0-0.4c-0.2,0-0.5,0-1.4,0c-0.6,0-1.1,0-1.3,0c-0.1,0.1-0.1,0.4,0,0.4c0.2,0,0.3,0,0.5,0.1
	c0.1,0,0.2,0.2,0.2,0.3c0,0.3,0,0.6,0,1.6c0,0.4,0,1.7,0,1.9c0,0.3-0.1,0.4-0.3,0.4c0,0-0.1,0-0.2,0c-0.2-0.1-0.3-0.1-0.5-0.3
	c-0.4-0.4-1.1-1.4-1.3-1.7c0,0,0-0.1,0-0.1c0.6-0.2,1-0.6,1-1.3c0-0.8-0.6-1.4-1.7-1.4c-0.3,0-0.8,0-1.7,0c-0.3,0-1.1,0-1.3,0
	c-0.1,0-0.1,0.3,0,0.4c0.2,0,0.4,0.1,0.5,0.1c0.2,0,0.2,0.1,0.2,0.3c0,0.3,0,0.9,0,1.8c0,0.5,0,1.5,0,1.8c0,0.2-0.1,0.4-0.3,0.4
	c-0.1,0-0.3,0.1-0.4,0.1c-0.1,0,0,0.4,0,0.4c0.2,0,0.7,0,1.4,0c0.7,0,1.2,0,1.3,0c0.1,0,0.1-0.4,0-0.4c-0.2,0-0.3,0-0.5-0.1
	C20,67.2,20,67.1,20,66.9c0-0.3,0-0.7,0-1.2c0,0,0-0.1,0-0.1c0,0,0.2,0,0.2,0c0.1,0,0.2,0,0.2,0.1c0.3,0.4,0.6,1,1,1.4
	c0.1,0.1,0.2,0.3,0.5,0.4c0.4,0.2,1.3,0.2,1.8,0.2c0.2,0,0.5,0,1,0c0.8,0,1.1,0,1.4,0c0.1,0,0.1-0.3,0.1-0.4
	C25.9,67.3,25.6,67.3,25.5,67.2z M20.9,65c-0.1,0.1-0.6,0.1-0.9,0.1c0,0-0.1-0.1-0.1-0.1c0-0.6,0-1.6,0-1.8c0,0,0-0.1,0.1-0.1
	c0,0,0.2,0,0.3,0c0.6,0,1,0.4,1,1.1C21.4,64.6,21.2,64.9,20.9,65z"/>
<path class="st0" d="M44.7,67.2c-0.2-0.1-0.3-0.2-0.3-0.5c-0.1-0.6-0.1-2.7-0.1-3.3c0-0.2,0-0.3,0.2-0.4c0.1,0,0.3-0.1,0.6-0.1
	c0.1,0,0-0.4,0-0.4c-0.4,0-0.8,0-2.1,0c0,0.2-0.1,0.3-0.2,0.5c-0.2,0.6-0.9,2.1-1.2,2.5c0,0,0,0-0.1,0c-0.3-0.5-0.8-1.7-1.2-2.5
	c-0.1-0.2-0.2-0.4-0.2-0.6c-0.6,0-1.6,0-2.2,0c0,0-0.1,0.4,0,0.4c0.3,0.1,0.5,0.1,0.7,0.2c0.2,0.1,0.2,0.2,0.2,0.4
	c0,0.6-0.2,2.6-0.3,3.3c0,0.3-0.1,0.5-0.4,0.5c-0.1,0-0.2,0-0.4,0.1c-0.1,0-0.2,0-0.3,0c-0.2,0-0.4-0.1-0.5-0.1
	c-0.2-0.1-0.2-0.2-0.2-0.4c0-0.4,0-1.1,0-1.7c0-0.7,0-1.1,0-1.7c0-0.3,0-0.4,0.2-0.4c0.1-0.1,0.3-0.1,0.5-0.1c0.1-0.1,0.1-0.4,0-0.4
	c-0.3,0-0.6,0-1.3,0c-0.7,0-0.9,0-1.4,0c-0.1,0-0.1,0.4,0,0.4c0.3,0,0.4,0.1,0.6,0.1c0.1,0,0.1,0.2,0.2,0.3c0,0.5,0,0.9,0,1.4
	c0,0,0,0-0.1,0.1c-0.1,0-0.3,0-0.9,0c-0.8,0-1,0-1,0c0,0,0,0,0-0.1c0-0.5,0-0.9,0-1.3c0-0.2,0-0.3,0.2-0.4c0.1,0,0.3-0.1,0.4-0.1
	c0.1,0,0.1-0.4,0-0.4c-0.2,0-0.6,0-1.4,0c-0.8,0-1.1,0-1.3,0c0,0-0.1,0.4,0,0.4c0.2,0,0.3,0,0.5,0.1c0.2,0.1,0.2,0.2,0.2,0.4
	c0,0.3,0,0.8,0,1.6c0,0.8,0,1.6,0,1.7c0,0.3-0.1,0.4-0.3,0.5c-0.1,0-0.2,0.1-0.4,0.1c-0.1,0.1,0,0.4,0,0.4c0.1,0,0.6,0,1.3,0
	c0.9,0,1.3,0,1.5,0c0.1,0,0.1-0.3,0-0.4c-0.2,0-0.4-0.1-0.5-0.1c-0.2-0.1-0.2-0.2-0.2-0.4c0-0.3,0-0.8,0-1.3c0,0,0,0,0-0.1
	c0,0,0.1,0,1,0c0.4,0,0.8,0,1,0c0,0,0,0,0,0.1c0,0.6,0,1,0,1.4c0,0.2-0.1,0.3-0.2,0.4c-0.1,0-0.3,0.1-0.5,0.1
	c-0.1,0.1-0.1,0.4,0,0.4c0.2,0,0.6,0,1.4,0c0.8,0,1.2,0,1.4,0h0.1c0.3,0,0.7,0,1.1,0c0.7,0,1.2,0,1.4,0c0.1-0.1,0.1-0.4,0-0.4
	c-0.2,0-0.4-0.1-0.6-0.1c-0.3-0.1-0.3-0.2-0.3-0.5c0-0.6,0.1-1.8,0.1-2.7c0,0,0.1,0,0.1,0c0.5,1.2,1.3,2.9,1.5,3.6c0,0,0.4,0,0.5,0
	c0.2-0.7,1.2-2.8,1.6-3.7c0,0,0,0,0,0c0,1,0,2.1,0,2.8c0,0.3-0.1,0.4-0.2,0.4c-0.1,0-0.3,0.1-0.5,0.1c0,0.1,0,0.4,0,0.4
	c0.5,0,0.8,0,1.3,0c0.8,0,1.3,0,1.6,0c0.1-0.1,0.1-0.3,0-0.4C45,67.3,44.8,67.3,44.7,67.2z"/>
<path class="st0" d="M48.1,62.4c-0.8,0-1.5,0.2-2,0.6c-0.8,0.6-1,1.5-1,2.2c0,0.7,0.2,1.4,0.7,2c0.5,0.5,1.1,0.8,2.1,0.8
	c0.9,0,1.7-0.3,2.3-1.1c0.4-0.5,0.5-1.1,0.5-1.8C50.9,63.6,49.9,62.4,48.1,62.4z M48.9,67.1c-0.2,0.2-0.4,0.2-0.6,0.2
	c-0.4,0-0.6-0.1-0.8-0.3c-0.6-0.5-0.8-1.5-0.8-2.2c0-0.8,0.1-1.5,0.6-1.8c0.2-0.1,0.4-0.2,0.6-0.2c0.3,0,0.5,0.1,0.8,0.3
	c0.5,0.4,0.7,1.3,0.7,2.2C49.4,66.1,49.3,66.8,48.9,67.1z"/>
<path class="st0" d="M61.8,63c-0.5-0.4-1.1-0.5-1.9-0.5c-0.7,0-0.9,0-1.6,0c-0.2,0-1.1,0-1.3,0c-0.2,0-0.5,0-1.1,0c-0.7,0-1,0-1.2,0
	c0,0,0,0.4,0,0.4c0.2,0,0.4,0.1,0.6,0.1c0.3,0.1,0.4,0.2,0.4,0.5c0,0.7,0,1.3,0.1,2.4c0,0,0,0-0.1,0c-0.5-0.6-1.7-2-2.4-2.9
	c-0.2-0.2-0.3-0.4-0.3-0.5c-0.2,0-0.5,0-0.8,0c-0.7,0-1,0-1.3,0c0,0,0,0.4,0,0.4c0.3,0,0.4,0.1,0.6,0.1c0.2,0.1,0.3,0.3,0.3,0.5
	c0,0.9,0,2.6-0.1,3.1c0,0.2-0.1,0.4-0.3,0.5c-0.2,0.1-0.3,0.1-0.5,0.1c0,0,0,0.4,0,0.4c0.4,0,0.9,0,1.2,0c0.4,0,0.8,0,1.2,0
	c0.1-0.1,0.1-0.4,0-0.4c-0.2,0-0.4-0.1-0.5-0.1c-0.2-0.1-0.4-0.2-0.4-0.6c0-0.4,0-1.8,0-2.7c0,0,0,0,0.1,0c0.8,0.9,2.3,3,3,3.9
	c0.1,0,0.8,0,1,0c0-0.3,0-0.8,0-1.2c0-1.1,0-2.4,0.1-3.1c0-0.4,0.2-0.5,0.4-0.5c0,0,0.1,0,0.1,0c0.1,0,0.3,0,0.3,0
	c0.1,0,0.2,0,0.2,0c0.2,0.1,0.2,0.2,0.3,0.4c0,0.4,0,0.8,0,1.8c0,0.7,0,1.5,0,1.7c0,0.2-0.1,0.4-0.3,0.4c-0.2,0-0.3,0.1-0.5,0.1
	c-0.1,0-0.1,0.3,0,0.4h0.4c0.8,0,1.6,0,2,0c0.9,0,1.7-0.1,2.4-0.7c0.5-0.4,1-1.1,1-2.1C62.7,64.2,62.4,63.5,61.8,63z M60.9,66.8
	c-0.3,0.4-0.6,0.5-1,0.5c-0.2,0-0.5-0.1-0.7-0.2c-0.1-0.1-0.1-0.2-0.1-0.3c0-0.2,0-0.8,0-1.7c0-0.8,0-1.8,0-2.1c0,0,0-0.1,0.1-0.1
	c0,0,0.2,0,0.3,0c0.4,0,0.8,0.1,1.1,0.3c0.6,0.4,0.9,1.1,0.9,1.9C61.3,66,61.1,66.4,60.9,66.8z"/>
<polyline class="st0" points="48.6,34.6 48.6,34.6 48.6,34.6 "/>
<path class="st1" d="M37.3,36.9c0.5-0.6,1-1,1.5-1.5c-0.3-0.2-0.5-0.4-0.7-0.7c-0.6,0.3-1.1,0.5-1.7,0.9c0.4-0.7,0.8-0.9,1.5-1.3
	c0,0-0.1-0.1-0.1-0.1c-0.9,0.3-1.7,0.7-2.2,1.2c0,0,0,0,0,0c0,0,0,0,0,0c-0.3-0.3-0.6-0.7-0.9-1.2c-0.2,0.4-0.4,0.8-0.5,1.3
	C34.1,36,34,36.3,34,36.4c0,0,0,0,0,0c0,0.1,0,0.1,0,0.2c-0.2,0-0.4-0.1-0.6-0.2c0,0.8,0.2,1.7,0.5,2.6c0-0.5-0.1-0.8,0-1.2
	c0.2,0.9,0.3,1.2,0.8,2c1.8-1.7,3.7-2.7,5.9-3.2c0,0,0,0,0,0c-0.1-0.1-0.1-0.2-0.2-0.3c-0.5-0.2-0.9-0.4-1.2-0.7
	C38.6,35.9,38,36.3,37.3,36.9"/>
<path class="st2" d="M36.1,57.6c-1.3-3.8-0.7-6.1,1.4-11.3c-1.6,1.6-2.8,2.3-3.6,4.8c0-0.6,0.2-1.2,0.3-1.5c-0.9-1-1.5-2.3-1.8-4.1
	c-0.2,0.3-0.4,0.7-0.5,1.1c0-0.7,0.1-1.1,0.4-1.8c0-0.1,0-0.1,0-0.2c-0.2,0.3-0.4,0.6-0.4,0.9c-0.7-2.2-1.1-5.6-0.4-8.1
	c0.2,3.7,1.2,6,3,7.9c0.2-0.2,0.3-0.5,0.5-0.7c-0.2,0.3-0.3,0.5-0.4,0.8c-0.1,0.3-0.2,0.6-0.4,1.1c0.3-0.6,0.5-0.9,0.7-1.2
	c1.8-2.5,4.3-3.3,6-5c0,0-1,0.4-1.8,1c1.2-1.2,2.5-1.5,3.6-3.1c0.1-0.1,0.2-0.3,0.3-0.5c-0.1,0-0.1,0-0.2,0c-0.2,0.3-0.6,0.9-1,1.2
	c0.3-0.5,0.5-0.9,0.6-1.2c-0.5-0.1-1.4-0.2-1.7-0.6c-0.4,0.2-0.8,0.4-1.3,0.6c-0.9,0.5-1.5,0.9-2.4,1.5c0.7-0.3,1.1-0.5,1.8-0.7
	c-1.6,0.8-3.5,2.3-4.5,3.7c-0.6-0.7-1-1.5-1.3-2.7c0,0.5,0,0.8,0,1.4c-0.6-1.7-0.8-3.4-0.6-4.7c-0.4-0.2-0.8-0.5-1.1-0.7
	c-1.1,2.1-2.2,5.6-2.1,8c0.2-0.7,0.4-1.3,0.4-1.3c-0.3,3.4,0.2,7.6,2.4,11.1C33.3,55,34.5,56.2,36.1,57.6"/>
<path class="st2" d="M44.1,50.1c4.1-4.3,5-7.9,3.4-12.1c0,3.4-7.3,8.3-8.5,10.2c0.4-0.3,1.7-1.1,2-1.3c-1,0.8-1.6,1.3-2.3,2.4
	c0.7-0.7,1.3-1,1.9-1.4c-2.8,2.5-3.6,6.5-2.7,10.9c0.8,0.5,1.6,1,2.4,1.5C39.8,56.1,41.8,52.5,44.1,50.1"/>
<path class="st2" d="M27.5,29.8c0.1,0.9,0.4,1.8,0.8,2.5c0.3-0.7,0.9-1.2,1.3-1.5c0,0.1,0,0.1,0.1,0.2c-0.4,0.4-0.7,0.8-0.9,1.3
	c0.4-0.4,0.7-0.7,1.1-1c0.5,1.4,1.5,2.3,2.6,2.9c0.3-1.3,0.7-2.5,1.3-3c0,0,0.1,0.1,0.1,0.2c-0.4,0.7-0.5,1-0.7,1.7
	c0.4-0.6,0.6-1,1-1.3c0.3,0.4,0.6,0.7,0.9,1c1-1,3-1,4.2-1.1c-1.3-1-6.2-0.1-8.1-2.9c0.1-0.2,0.3-0.4,0.5-0.7
	c-0.5,0.3-1.3,1.1-1.9,1.7c0.1-0.3,0.2-0.6,0.4-0.8c-0.8-1.5-0.7-3.5-0.5-4.9c0.2-0.2,0.5-0.3,0.7-0.4c-0.7,0.2-1.2,0.4-1.9,0.9
	c-0.3-1.9,0.5-4,1.2-5.4c-0.3,0.1-0.5,0.2-0.8,0.3c0.3-1.6,0.9-2.9,2.1-4.2c-1.4,1.2-2.5,2.8-3,4.8c0.3-0.2,0.4-0.2,0.7-0.3
	c0,0-0.1,0.1-0.1,0.1c-0.5,0.3-0.7,0.5-1.1,0.9c0.4-0.3,0.6-0.4,0.9-0.5c-1,1.8-2,3.8-1.5,6.6c0.3-0.3,0.7-0.7,0.9-0.8
	c0,0.1,0,0.1,0,0.2c-0.5,0.5-0.8,1-1,1.5c0.3-0.4,0.6-0.7,1-0.9C27.4,27.8,27.4,28.8,27.5,29.8"/>
<path class="st1" d="M48.4,27.3c-0.1,0.3-0.1,0.6,0,0.9c0.6,0.2,1.2-0.7,1.5-2.1c0.3,0.2,0.5,0.5,0.8,0.8c-0.2-0.5-0.4-0.8-0.7-1.2
	c0-0.1,0-0.2,0.1-0.2c0,0,0.2,0.2,0.4,0.4c0.1-0.4,0.2-1.3,0.3-2.6c-0.2,0.4-0.6,0.7-1,0.9C49.4,26,48.8,27,48.4,27.3"/>
<path class="st1" d="M50.8,19.6c0-0.4,0-0.7-0.1-1c0.1,0,0.2,0.1,0.3,0.1c-0.1-0.8,0-1.3-0.3-2c0,0.4,0,1-0.3,1.2
	c-0.2,0.2-0.4,0.3-0.7,0.5C50.1,18.7,50.5,19.1,50.8,19.6"/>
<path class="st1" d="M31,26.8c0.3-0.2,0.5-0.3,0.8-0.4c0,0,0,0.1,0,0.1c-0.5,0.3-0.8,0.6-1.2,1.1c0.5-0.4,1-0.6,1.4-0.8
	c0.9,1.3,2.8,2.3,5,2.6c-0.3-0.6-1.4-1.4-1.8-2c-0.8-1.2-0.3-2.5,0.3-3.3c-1.6,0.7-2,1.2-2.2,2.2c-1.9-1.8-2.1-6.5-1.8-9
	c-1,1.9-1.9,3.3-1.9,6c0.3-0.1,0.6-0.3,1-0.3C30.6,23.9,30.6,25.6,31,26.8"/>
<path class="st2" d="M36.3,16c0.6,0.5,0.9,0.9,2.2,1.2c0.2,0,0.5,0,0.8,0c-0.5,0.4-1.2,0.5-1.9,0.6c-0.9,0.1-2.4-0.6-3.4-0.8
	c-0.4-0.4-0.5-0.8-0.3-1.1c0.1-0.1,0.2-0.4,0.4-0.6c0.1,0,0.1,0,0.2,0c0.3,0,0.7,0.1,1,0.1C35.6,15.4,36,15.7,36.3,16"/>
<path class="st2" d="M37.3,19.9c1,0.1,1.8,0.3,2.5,0.5c0.1,0,0.2,0.1,0.3,0.1c1.3,0.4,2.5,0.8,3.6,1.2c0.4,0.3-1.5-0.2-3.6-0.8
	c0,0.2,0.1,0.4,0.3,0.5c0.2,0.2,0.3,0.3,0.4,0.5c-0.6-0.2-1.1-0.3-1.7-0.4c-0.7-0.1-1.4-0.2-2-0.1c0.8,0.1,1.8,0.2,2.9,0.4
	c0,0,0,0,0.1,0c0,0,0,0,0.1,0c1.3,0.3,2.6,0.6,3.7,0.9c0.4,0.2-1,0-2.7-0.3c0.1,0.5,0.1,0.9,1,1.2c1.2,0.4,3,0.2,3.7-0.1
	c0.5-0.2,1-0.7,1.1-0.9c0-0.1,0.1-0.1,0.1-0.2c-0.7-0.2-0.4-1-1.2-1.5c-0.5-0.3-0.5-0.7-0.8-1.2c-0.1-0.2-0.3-0.4-0.5-0.7
	c-0.8-0.9-1.1-1.1-1.9-1c-0.5,0-1.3,0.2-1.9,1c-0.2-0.1-0.4-0.1-0.6-0.2c-1-0.4-2-0.6-3-0.6c1,0.1,1.7,0.4,3,0.8
	c1.3,0.4,2.6,0.9,3.7,1.4c0.4,0.3-1.4-0.3-3.4-0.9c-0.1,0.2-0.3,0.5-0.3,0.7c-0.3-0.1-0.6-0.2-0.8-0.2C38.7,20,38,19.9,37.3,19.9"/>
<path class="st2" d="M41.3,15.7c-0.1,0-0.1-0.1-0.2-0.1c0,0.1,0,0.1,0,0.2c-0.6,0-1.4-0.8-1.7-1.1c-0.5-0.5-1.1-0.6-1.9-0.7
	c-0.4,0-0.4-0.1,0-0.2c0.5-0.1,1-0.1,1.4,0.1c-0.3-0.2-0.6-0.5-1-0.6c-0.3-0.1-0.6-0.2-0.9-0.2c-0.2,0-0.4,0-0.6,0.1
	c-0.3,0.1-0.8,0.3-1,0.4c0,0.4-0.1,0.8-0.1,1.1c0,0.2,0,0.3,0.2,0.4c0.1,0.1,0.2,0.2,0.3,0.2c0.1,0.1,0.3,0,0.5,0
	c0.4-0.1,0.7-0.2,1.1-0.2c0.9-0.1,1.8,0.1,2.4,0.5c0.6,0.5,1.3,0.9,1.5,1c0.1,0,0.2,0.1,0.3,0.1c0.1,0,0.1-0.1,0.2-0.1
	c0,0,0-0.1,0-0.1C41.7,16.3,41.6,15.9,41.3,15.7"/>
<path class="st2" d="M49.5,14.9c0-0.2-0.1-0.5-0.2-0.7c-0.2-0.3-0.3-0.5-0.5-0.7c-0.3-0.2-0.8-0.4-1.4-0.5c-0.3-0.1-0.8-0.1-0.9-0.1
	c-0.2,0-0.3,0.1-0.3,0.3c-0.1,0.2,0.3,0.6,0.5,1c0.2-0.3,0.5-0.4,1-0.5c0.4,0,0.4,0.1,0.1,0.2c-0.2,0-0.5,0.2-0.7,0.7
	c-0.1,0.3-0.1,0.9-0.7,1c0-0.1-0.1-0.1-0.1-0.2c-0.1,0.1-0.2,0.3-0.1,0.6l0.1,0.1c0,0,0.1,0.1,0.2,0.1c0-0.4,0.5-0.8,0.7-1
	c0.5-0.5,1.1-0.3,1.4-0.2c0.2,0.1,0.4,0.3,0.6,0.4c0.2,0,0.2-0.2,0.2-0.3C49.6,15.1,49.5,15,49.5,14.9"/>
<path class="st2" d="M41.3,33.1c0,0.3,0.1,0.6,0.3,0.9c0.2,0.3,0.4,0.6,0.7,0.7c0.1,0.2,0.1,0.4,0.1,0.7c0.4,0.1,0.7,0,1-0.2
	c0.1,0.2,0.1,0.4,0.1,0.7c0.3,0,0.5-0.1,0.8-0.3c0,0.2,0,0.4,0,0.6c0.2-0.2,0.2-0.4,0.3-0.6c0,0,0.1,0,0.1,0c0,0.3,0,0.5,0,0.9
	c0.3-0.5,0.3-0.7,0.4-1.2c0,0,0,0,0.1,0c0.1,0.2,0.1,0.4,0.1,0.8c0.7-0.1,1-0.5,1.3-1.1c0.1,0.1,0.3,0.3,0.4,0.5
	c0.6-0.3,0.8-1,0.9-1.4c0.1-0.2,0.1-0.7,0.1-0.9c0.1,0,0.1,0.1,0.2,0.1c0.2-0.5,0.1-1.2,0.4-1.6c0.2-0.3,0.1-0.7,0-1
	c-0.1,2-0.8,1.1-1,1c-0.7-0.3-3-0.3-4-0.1c-0.4,0.1-0.7,0.2-0.9,0.4c-0.7,0.7-0.9,0.4-1-0.2c0-0.2,0-0.4-0.1-0.6c0,0,0-0.1,0-0.1
	c0,0,0,0,0,0.1c0,0.5-0.6,0.5-0.6,1c0,0.1,0,0.1,0,0.2C40.8,32.4,41.4,32.8,41.3,33.1"/>
<path class="st2" d="M39.1,16c-0.2,0-0.3-0.1-0.3-0.2c0-0.1,0.2-0.1,0.4-0.1c0.2,0,0.3,0.1,0.3,0.2C39.4,16,39.2,16,39.1,16"/>
<path class="st2" d="M48.3,15.6c0,0.1-0.1,0.2-0.2,0.2c-0.2,0-0.3,0-0.3-0.1s0.1-0.2,0.2-0.2C48.1,15.5,48.3,15.5,48.3,15.6"/>
<path class="st2" d="M49.8,17.4c0.1-0.2,0.2-0.5,0.2-0.7c0-0.2-0.1-0.6-0.2-0.9c0,0,0,0,0,0c-0.5-0.1-0.6,0-0.8,0.2
	c-0.3,0.4-0.4,0.5-0.8,0.7C48,17,47.8,17,47.5,16.9c0.3,0.3,0.7,0.5,1.1,0.5C49,17.5,49.5,17.6,49.8,17.4"/>
<path class="st1" d="M50.1,15.3c0,0.2,0.2,0.5,0.1,0.6c-0.1,0-0.2,0-0.3,0c0.1,0.4,0.2,0.7,0.2,0.9c0,0.2-0.2,0.4-0.2,0.7
	c0,0,0,0,0,0c0.1,0,0.1-0.1,0.1-0.1c0.4-0.5,0.6-0.7,0.6-1.2c0-0.1,0.3,0,0.6,0.5c-0.2-0.5-0.5-0.9-0.7-1.3
	c-0.1-0.1-0.1-0.2-0.2-0.3C50.1,14.9,50.1,15.1,50.1,15.3"/>
<path class="st3" d="M42.9,30.7c-0.4,0.3-0.3-0.1-0.4-0.4c-0.2-0.4-0.5-0.8-0.6-1.7c-0.1-0.4-0.1-1.1,0.3-1.2
	c0.7-0.2,1.6,0.4,2.2,0.4c0.6,0,1.1-0.6,1.6-0.5c0.4,0.1,0.5,0.5,0.6,1c0.1,0.5,0.1,0.9,0.1,1.2c0,0.2,0.1,0.3,0.1,0.4
	c0,0-0.1,0.2-0.1,0.2c0,0,0,0,0,0c-0.1-0.1-0.1-0.1-0.2-0.1c-0.1,0-0.2,0-0.2,0.1c0,0-0.1,0.1-0.1,0.2c0,0-0.1,0-0.1,0
	c-0.1,0-0.1,0-0.2,0.1c0,0,0,0,0,0c0,0-0.1,0-0.2,0c-0.1,0-0.1,0-0.2,0.1c0,0-0.1-0.1-0.2-0.1c-0.1,0-0.1,0-0.2,0.1c0,0,0,0,0,0
	c0,0-0.1-0.1-0.2-0.1c0,0-0.1,0-0.1,0c0-0.1-0.1-0.1-0.1-0.2c-0.1-0.1-0.1-0.1-0.2-0.1c-0.1,0-0.2,0-0.2,0.1c0,0,0,0-0.1,0.1
	c-0.1-0.4-0.2-0.8-0.3-1.1c0-0.1-0.1-0.2-0.1-0.3c-0.1-0.3-0.2-0.5-0.4-0.5c-0.3,0-0.4,0.3-0.4,0.5C43.1,29.3,42.9,30.2,42.9,30.7"
	/>
<path class="st2" d="M43.3,24.5c0-0.2,0.5-0.3,0.7-0.3s0.7,0.1,0.6,0.4c-0.2,1-0.2,1.5-0.3,2.1c-0.1,0.6-0.3,0.6-0.5,0
	C43.6,26.1,43.4,25.5,43.3,24.5 M45,24.2c0-0.1,0.2-0.1,0.3-0.1c0.1,0,0.3,0.1,0.3,0.1c0,0.1-0.1,0.3-0.2,0.5c0,0-0.1,0-0.1,0
	C45.1,24.6,45,24.3,45,24.2 M45.7,24.2c0,0,0.1-0.1,0.2-0.1c0.1,0,0.2,0,0.2,0.1c0,0.1,0,0.2-0.1,0.3c0,0-0.1,0-0.1,0
	C45.7,24.4,45.7,24.3,45.7,24.2 M46.1,24.2c0,0,0.1-0.1,0.2-0.1c0.1,0,0.2,0,0.2,0.1c0,0.1,0,0.2-0.1,0.3c0,0-0.1,0-0.1,0
	C46.1,24.4,46.1,24.2,46.1,24.2 M46.5,24.2c0,0,0.1-0.1,0.2-0.1c0.1,0,0.2,0,0.2,0.1c0,0.1,0,0.2-0.1,0.3c0,0-0.1,0-0.1,0
	C46.5,24.4,46.5,24.2,46.5,24.2 M49.3,24.5c-0.2,0.8-0.5,1.4-0.8,1.9C48.1,27.1,48,27,48,26.6c0-0.6,0.1-1.1,0-2.1
	c0-0.2,0.4-0.3,0.6-0.3C48.9,24.2,49.3,24.3,49.3,24.5 M44.4,30.6c0,0.2-0.3,0.3-0.5,0.3s-0.5-0.1-0.6-0.2c0-0.9,0.1-1.4,0.2-1.8
	c0.1-0.5,0.2-0.5,0.4,0C44,29.3,44.1,29.8,44.4,30.6 M47,30.6c0.5-0.8,0.6-1.3,0.8-1.7c0.1-0.3,0.3-0.4,0.3,0.1c0,0.4,0,0.9-0.1,1.6
	c-0.1,0.2-0.4,0.3-0.5,0.3C47.2,30.8,46.9,30.7,47,30.6 M47.5,24.1c0.1,0,0.3,0.1,0.3,0.1c0,0.1-0.1,0.3-0.2,0.5c0,0-0.1,0-0.1,0
	c-0.1-0.1-0.2-0.4-0.2-0.5C47.3,24.2,47.4,24.1,47.5,24.1 M46.9,24.2c0,0,0.1-0.1,0.2-0.1c0.1,0,0.2,0,0.2,0.1c0,0.1,0,0.2-0.1,0.3
	c0,0,0,0-0.1,0C46.9,24.4,46.9,24.3,46.9,24.2 M46.4,30.7c0,0-0.1,0.1-0.2,0.1c-0.1,0-0.1,0-0.1-0.1c0-0.1,0-0.2,0.1-0.3
	c0,0,0,0,0.1,0C46.3,30.6,46.4,30.7,46.4,30.7 M46,30.8c0,0-0.1,0.1-0.2,0.1c-0.1,0-0.1,0-0.1-0.1c0-0.1,0-0.2,0.1-0.3
	c0,0,0,0,0.1,0C46,30.6,46,30.7,46,30.8 M45.6,30.5c0.1,0.1,0.1,0.2,0.1,0.3c0,0-0.1,0.1-0.2,0.1c-0.1,0-0.1,0-0.1-0.1
	C45.4,30.7,45.4,30.6,45.6,30.5C45.5,30.5,45.5,30.5,45.6,30.5 M45.3,30.7c0,0-0.1,0.1-0.2,0.1c-0.1,0-0.1,0-0.1-0.1
	c0-0.1,0-0.2,0.1-0.3c0,0,0,0,0.1,0C45.3,30.6,45.3,30.7,45.3,30.7 M45,30.7c0,0.1-0.2,0.1-0.2,0.1c-0.1,0-0.2-0.1-0.2-0.1
	c0-0.1,0.1-0.3,0.2-0.4c0,0,0.1,0,0.1,0C44.9,30.4,45,30.6,45,30.7 M46.6,30.3c0,0,0.1,0,0.1,0c0.2,0.2,0.2,0.3,0.2,0.4
	c0,0.1-0.2,0.1-0.2,0.1c-0.1,0-0.2-0.1-0.2-0.1C46.4,30.6,46.5,30.4,46.6,30.3"/>
<path class="st1" d="M54,38.1c0.6,0.6,1.9,1.7,2.3,2.4c0.1,0.1,0,0.1,0,0.1c0.1-0.6,0.2-1.4,0.4-2c-0.8-0.8-1.6-1.9-2-2.5
	c-0.7-1.3-1-2.3-2.1-3.4c-0.2-0.2-0.5-0.5-0.8-0.8c-0.2,0.3-0.4,0.5-0.7,0.9c0,0.1,0,0.6,0.1,0.8C51.3,35.5,52.5,36.8,54,38.1"/>
<path class="st1" d="M57,36.9c0.1-0.4,0.1-0.9,0.2-1.3c-0.9-0.4-2-1.4-3-2.2C54.7,34.2,56,35.9,57,36.9"/>
<path class="st2" d="M52.3,31c0.9-1.3,0.8-3.7,0.5-5.5c0.2,0.1,0.4,0.2,0.5,0.4c-0.2-0.4-0.3-0.6-0.6-0.8c0-0.1,0-0.2,0-0.2
	c0.2,0.1,0.3,0.2,0.4,0.3c0.1-1.6,0.1-2.8-0.4-4.3c0,0,0.2,0,0.3,0c0-0.1-0.1-0.3-0.2-0.4c-0.2,0.1-0.5,0.2-0.7,0.3
	c0.1,0.3,0.1,0.5,0.1,0.8c-0.4,0-0.9,0.1-1.4,0.3c0,0,0,0,0-0.1c0-0.2,0-0.4,0-0.6c-1,0.3-1.8,0.5-1.6,0.3c0.4-0.2,0.8-0.4,1.3-0.5
	c0,0,0.1,0,0.1,0c0.1,0,0.1,0,0.2-0.1c0.8-0.3,1.5-0.5,2.3-0.6c-0.1,0-0.2,0-0.3,0c-0.1-0.3-0.2-0.6-0.4-1c-0.2,0.1-0.4,0.2-0.6,0.3
	c0.1,0.2,0.1,0.5,0.2,0.7c-0.4,0.1-0.8,0.2-1.3,0.4c0-0.2-0.1-0.4-0.2-0.6c-0.7,0.3-1.2,0.4-1.1,0.3c1.1-0.6,2-1.1,3.3-1.5
	c0,0,0.1,0,0.1,0c-0.2,0-0.4,0-0.6,0c0-0.1-0.1-0.2-0.1-0.3c0,0-0.1-0.3-0.1-0.3l0.1,0c-0.6-1.6-1.5-3.2-2.7-4.5
	c0.4,0.6,0.5,0.8,0.8,1.2c0.6,0.9,1.3,2.5,1.7,3.9c-0.5,0.2-1,0.5-1.6,0.8c0-0.1-0.1-0.1-0.1-0.2c-0.1-0.2-0.4-0.5-0.7-0.6
	c0.1,0.2,0.1,0.5,0,0.8c-0.2,0.6-0.5,0.9-0.8,1.3c-0.3,0.4-0.6,1.2-1.3,1.2c0,0.1,0,0.1,0,0.2c0,0.4,0.4,0.9,0.7,1
	c0.5,0.2,0.5,0.2,1.1,0.1c0.6-0.1,0.9-0.5,1-0.7c0.1-0.2,0.3-0.4,0.4-0.6c-1,0.3-1.9,0.4-1.6,0.2c0.4-0.2,0.9-0.3,1.4-0.5
	c0,0,0,0,0,0c0.8-0.2,1.6-0.4,2.4-0.5c-0.2,0.1-0.4,0.2-0.6,0.3c0.1,0.5,0.1,1.1,0,1.5c0.2,0.2,0.3,0.4,0.5,0.7
	c-0.1-0.1-0.3-0.2-0.4-0.3c-0.5-0.3-0.8-0.5-1.3-0.6c0.3,0.1,0.5,0.3,0.8,0.5c0,1.4-0.2,3.4-0.7,4.4c-0.2-0.2-0.3-0.4-0.6-0.6
	c0,0,0,0.1,0,0.1c0.3,0.4,0.5,0.7,0.7,1.3c-0.3-0.4-0.6-0.7-0.8-0.9c-0.5,1.4-1.1,1.7-1.7,1.7c0,0,0.5,1.1,0.1,2.1
	c0,0.1-0.1,0.2-0.1,0.3c0.1,0.3,0.1,0.4,0.2,0.8c0.9-0.4,1.9-1.4,2.5-2.2c0.3,0.2,0.5,0.5,0.8,0.9c-0.2-0.5-0.4-0.8-0.7-1.1
	c0,0,0.1-0.1,0.1-0.1C52,30.6,52.2,30.7,52.3,31"/>
<path class="st1" d="M52.7,13.5c-0.8,0.1-1.8,0-2.5-0.4c0.6,0,1.1-0.1,2.2-0.4c-0.3,0-3.8,0.1-5.8-0.4c-0.9-0.4-3.7-1.5-5.4-0.6
	c-2.8-0.9-6.3,0-7.3,0.8c-1.9,0-3.8-0.1-5-0.5c0.9,0.6,1.6,0.7,2.2,0.9c-1.4,0.1-2.4-0.1-3.8-0.5c0.5,0.5,0.8,0.7,1.6,0.9
	c-0.4,0-0.9,0-1.4-0.1c0.6,0.5,2,1.2,3.2,0.7c0.4-0.2,1.5-0.8,2.4-0.9c-0.5,0.3-1.4,1-1.8,1.6c0,0,0,0.1,0,0.1
	c0.4-0.3,0.9-0.6,1.4-0.6c-0.8,0.6-1.1,1.1-1.1,1.8c0.3-0.3,0.5-0.6,0.8-0.7c0.1,0,0.1,0.1,0.2,0.2c0.1,0.2,0.2,0.5,0.3,0.9
	c0.2,0.3,0.4,0.6,0.7,0.7c0.1,0,0.2,0,0.3,0c-0.4-0.4-0.5-0.8-0.3-1.1c0.1-0.1,0.2-0.4,0.4-0.6c-0.2,0-0.3,0-0.4-0.1
	c-0.1-0.1-0.1-0.3-0.2-0.4c0-0.1-0.2-0.4-0.1-0.5c0.3,0,0.6,0.1,1,0c0.5-0.1,0.4-0.6,1-1.1c0,0.1,0.1,0.2,0.1,0.4
	c0.3-0.1,0.7-0.3,1-0.4c0.2-0.1,0.4-0.1,0.6-0.1c0.3,0,0.6,0.1,0.9,0.2c0.4,0.1,0.7,0.4,1,0.6c0.9,0.2,1.5,0.8,2.1,1.4
	c0.1,0.1,0.2,0.3,0.2,0.5c0.1,0,0.1,0.1,0.2,0.1c0.4,0.2,0.5,0.6,0.5,0.8c0,0,0,0.1,0,0.1c0.9-0.5,1.7-0.9,2.7-0.4
	c-0.9-0.1-1.8,0.4-2.5,1c-0.5,0.4-1.5,1.3-2.2,1.4c-0.1-0.3,0-0.5,0.3-0.7c0.3-0.2,0.6-0.5,0.9-0.7c-0.2,0-0.4,0-0.6,0
	c-0.3,0.4-0.7,0.6-0.9,0.7c-0.9,0.4-1.3,0.6-3,0.5c-1.1-0.1-1.8,0.1-2.4,0.1c-0.6,0-0.8-0.1-1.2-0.4c-0.3-0.3-0.5-0.7-0.6-1.2
	c0,1.4,0.4,5,1.8,5.8c0.2-0.2,0.7-0.3,1.1-0.3c-0.6,0.3-1.2,0.8-1.5,1.5c1.3-1.1,2.3-1.4,4-1.4c-0.7,1.2-0.8,2.2-0.8,3.2
	c0,0.6,0.1,1.1,0.2,1.5c0.3,0.8,0.7,1.7,1.2,2.3c-0.1-0.3-0.2-0.6-0.3-0.9c0.4,0.4,0.9,0.8,1.3,1.5c0.6,0.9,1,1,1.5,2.2
	c0-0.5,0.6-0.5,0.6-1c-0.1-0.3-0.2-0.7-0.5-1.1c-0.4-0.9-2-4-2-5.9c0-0.7,0.4-1,0.5-1.3c0.1-0.2,0.1-0.4,0.1-0.6
	c-0.8-0.2-1.7-0.5-2.2-0.7c0.6-0.1,1.3,0,2,0.1c-0.1-0.3-0.1-0.5-0.1-0.9c0,0,0,0,0,0c-0.7-0.2-1.3-0.4-1.9-0.7c0.7,0,1.4,0,2.1,0.2
	c0.1-0.2,0.3-0.5,0.5-0.7c-1.2-0.4-2.1-0.8-2.6-1.1c1,0,2,0.3,3,0.6c0.2-0.2,0.5-0.4,0.8-0.7c0.3-0.2,0.5-0.5,0.8-0.7
	c0.8-0.6,1.9-1.3,2.8-0.7c-0.2,0-0.3,0-0.5,0c-0.6,0.1-0.2,0.9,0.4,1.5c0.3,0.4,0.7,0.9,1.1,1.4c0.3,0.4,0.3,0.5,0.6,0.6
	c0.5,0.1,1,0.4,0.9,0.7c-0.1,0.2-0.4,0.1-0.4,0.4c0.2,0.6,0.6,0.7,0.9,0.6c0.1,0,0.1,0,0.2,0c0.1,0,0.1,0,0.2-0.1
	c0.2-0.1,0.2-0.3,0.4-0.6c0.1-0.2-0.1-0.2-0.1-0.3c0-0.1,0.2-0.3,0.4-0.6c0.3-0.3,0.5-0.8,0.5-1c0-0.3,0-0.5-0.1-0.7
	c-0.5-0.7-1.8-1.5-1.9-1.6C46.9,17,46.4,17,46,16.9c0.2-0.2,0.4-0.2,0.6-0.1c-0.1-0.1-0.2-0.2-0.3-0.3c-0.4-0.3-0.8-0.4-1.4-0.4
	c0.6-0.3,1-0.3,1.5,0.1l-0.1-0.1c-0.1-0.2,0-0.4,0.1-0.6c-0.1-0.2-0.1-0.3,0-0.5c0.1-0.4,0.2-0.6,0.4-0.8c-0.3-0.4-0.6-0.8-0.5-1
	c0.1-0.1,0.1-0.2,0.3-0.3c0.1,0,0.7,0,0.9,0.1c0.6,0.2,1,0.3,1.4,0.5c0,0-0.1-0.1-0.1-0.1c-0.3-0.3-0.7-0.5-1.2-0.8
	c0.6,0.3,1.3,0.6,1.7,0.8c0.8,0.4,1.4,1,2.8,0.9c-0.4-0.1-0.9-0.3-1.5-0.7C50.7,13.7,51.5,13.9,52.7,13.5 M37.5,19.3
	c-0.5,0.4-1.3,0.7-2,0.5c-0.1,0.3-0.1,0.8,0.2,1.5c-1.2-0.6-2-1.5-2.1-2.2C34.4,18.7,36.1,19.3,37.5,19.3 M47.9,19.7
	c0.3,0,0.8,0,1.1-0.1c0,0.2-0.8,0.6-0.9,0.6c-0.2,0-0.4-0.1-0.6-0.2c-0.2-0.1-0.5-0.1-0.6-0.1c-0.1,0-0.3-0.1-0.3-0.2
	C47.1,19.6,47.5,19.7,47.9,19.7 M38.3,11.9c1.3-0.2,3-0.1,3.6,0.4c0.5-0.3,1.3-0.6,2.8-0.3c-1.2,0.1-1.5,0.2-1.8,0.4
	c0.4-0.1,0.7-0.1,1.4,0.1c-0.8,0.1-1.8,0.3-1.8,0.7c-0.5-0.4-1.7-0.7-2.7-0.7c0.5-0.2,0.9-0.1,1.2-0.1C40.3,12.1,39.8,12,38.3,11.9
	 M43.6,14.6c-0.6-0.6-1.3-1-2.8-1.3c0.8-0.1,1.9,0,2.4,0.4c0.6-0.4,1.1-0.5,1.8-0.5C44.4,13.5,43.5,14,43.6,14.6"/>
<path class="st1" d="M30.9,34.9c-0.4-0.4-0.7-0.8-0.9-1.2c-0.7,1.2-1.6,2.9-2.1,4.7c0.3-0.6,0.8-1.3,0.8-1.3c-0.4,1.2-0.8,2.7-1,4.5
	c-0.2,1.8-0.3,4.1-0.1,6.5c0,0.3,0.1,0.7,0.2,1.3c-0.8-1.2-1.5-2.6-2.2-4.1c-1.2-2.8-3-8.1-3-12.6c-0.3-5.6,0.3-10.3,1-14.5
	c-0.4,0.1-0.7,0.2-1,0.3c-2.6,11.9-0.6,23.4,4.9,31.3c0.9,1.3,2.3,3,3.3,3.8C28.3,48.3,28,40,30.9,34.9"/>
<path class="st1" d="M58.2,18.5c-0.3-0.1-0.7-0.2-1-0.3c0.8,4.2,1.4,8.9,1,14.5v0c0,4.4-1.8,9.6-3,12.5c0,0.1,0,0.1-0.1,0.2
	c-0.8,2-0.7,1.3,0.1-1c0-0.4-0.2-0.9-0.3-1.2c-0.5-1.5-1.3-2.6-2.1-3.5c-0.3-0.4-0.7-0.7-1-1c-1.4-1.2-2.2-1.9-2-4c0,0,0-0.1,0-0.1
	c0-0.3,0.1-0.5,0.2-0.7c-0.5,0.3-0.9,0.7-1.4,0.9c-0.1,0.2-0.2,0.9-0.6,1.4c0.5,1.5,1.6,3.1,2.2,3.9c-0.3-0.6-0.4-1-0.7-1.7
	c0.9,1.2,2,2.9,2.1,4.6c-0.6-0.6-1.2-1.1-1.6-1.3c0.8,1.8,0.7,3,0.2,4.7c-1,3.5-2.7,4.1-4.9,7.8c0.5-0.5,0.9-1,1.5-1.3
	c-1,1.1-2,3.2-2,4.9c0.8-0.6,1.7-1.4,2.6-2c1.2-1,2.4-2.1,3.5-3.2c0.9-0.9,2-2.3,2.8-3.3C59.1,41.1,60.9,30.3,58.2,18.5"/>
<path class="st2" d="M57.2,18.2L57.2,18.2c0.8,4.2,1.4,8.9,1,14.5c0,4.5-1.9,9.8-3,12.6c-0.6,1.5-1.4,2.9-2.2,4.1
	c3-5.6,4.4-12.5,4.4-18.8c0-3.5-0.3-7.7-1.3-12.6L57.2,18.2z"/>
<path class="st4" d="M48.5,15.6C48.5,15.5,48.5,15.5,48.5,15.6c-0.1-0.1-0.1-0.1-0.1-0.1c0.1,0.3-0.1,0.7-0.5,0.8
	c-0.4,0.1-0.8-0.1-0.9-0.4c0,0,0,0,0,0l0,0c-0.1,0.1-0.1,0.2-0.2,0.2c0,0,0,0,0,0c0.1,0.5,0.6,0.7,1.1,0.6
	C48.4,16.5,48.6,16,48.5,15.6z"/>
<path class="st4" d="M39.7,15.8c-0.1,0.5-0.5,0.8-1,0.7c-0.5-0.1-0.8-0.5-0.7-1c0,0,0,0,0-0.1c-0.1,0-0.2,0-0.3,0c0,0.1,0,0.1,0,0.2
	c-0.1,0.6,0.3,1.2,0.9,1.3c0.6,0.1,1.2-0.3,1.3-0.9c0,0,0-0.1,0-0.1C39.8,15.9,39.7,15.8,39.7,15.8z"/>
<path class="st5" d="M48.5,15.6C48.5,15.5,48.5,15.5,48.5,15.6c-0.1-0.1-0.1-0.1-0.1-0.1c0.1,0.3-0.1,0.7-0.5,0.8
	c-0.4,0.1-0.8-0.1-0.9-0.4c0,0,0,0,0,0l0,0c-0.1,0.1-0.1,0.2-0.2,0.2c0,0,0,0,0,0c0.1,0.5,0.6,0.7,1.1,0.6
	C48.4,16.5,48.6,16,48.5,15.6z"/>
<path class="st5" d="M39.7,15.8c-0.1,0.5-0.5,0.8-1,0.7c-0.5-0.1-0.8-0.5-0.7-1c0,0,0,0,0-0.1c-0.1,0-0.2,0-0.3,0c0,0.1,0,0.1,0,0.2
	c-0.1,0.6,0.3,1.2,0.9,1.3c0.6,0.1,1.2-0.3,1.3-0.9c0,0,0-0.1,0-0.1C39.8,15.9,39.7,15.8,39.7,15.8z"/>
<path class="st6" d="M48.5,15.6C48.5,15.5,48.5,15.5,48.5,15.6c-0.1-0.1-0.1-0.1-0.1-0.1c0.1,0.3-0.1,0.7-0.5,0.8
	c-0.4,0.1-0.8-0.1-0.9-0.4c0,0,0,0,0,0l0,0c-0.1,0.1-0.1,0.2-0.2,0.2c0,0,0,0,0,0c0.1,0.5,0.6,0.7,1.1,0.6
	C48.4,16.5,48.6,16,48.5,15.6z"/>
<path class="st6" d="M39.7,15.8c-0.1,0.5-0.5,0.8-1,0.7c-0.5-0.1-0.8-0.5-0.7-1c0,0,0,0,0-0.1c-0.1,0-0.2,0-0.3,0c0,0.1,0,0.1,0,0.2
	c-0.1,0.6,0.3,1.2,0.9,1.3c0.6,0.1,1.2-0.3,1.3-0.9c0,0,0-0.1,0-0.1C39.8,15.9,39.7,15.8,39.7,15.8z"/>
<path class="st2" d="M31.7,17.3"/>
<path class="st2" d="M61.6,19.2l-0.1-0.3l-0.3-0.1c-0.1-0.1-2.4-1.2-7.8-2c0.5-0.9,0.8-2,1-3.3c0.1-0.6,0-1.1-0.4-1.4
	c-0.4-0.4-0.9-0.6-1.7-0.6c-2.3,0-3.7-0.1-5.4-0.4c-1.3-0.8-2.7-1.1-4.2-1.1c-1.1,0-1.9,0.2-2.3,0.3C39.7,10.1,38.9,10,38,10
	c-2.4,0-4.3,0.8-4.8,1c-0.1,0-0.1,0-0.2,0c-1.7,0-3.5-0.1-4.7-0.3c-0.1,0-0.2,0-0.2,0c-0.4-0.1-0.7-0.1-1-0.1c-0.2,0-0.3,0-0.5,0
	c-0.2,0-0.7,0.2-1,0.8c-0.5,1.1-0.3,3.3,0.6,4.8c0.1,0.2,0.3,0.4,0.5,0.7c-5,0.8-7.1,1.8-7.2,1.9l-0.3,0.1l-0.1,0.3
	c-1.8,7.4-1.4,14.8,1.1,21.3C22.5,46.7,26.6,52,32,55.9c3.2,2.4,5.8,3.8,8,4.9l0.3,0.2l0.3-0.2c2.9-1.4,5.3-2.9,8-4.9
	c5.4-3.9,9.5-9.2,11.8-15.4C62.9,34,63.3,26.6,61.6,19.2z M61.8,28.7c0,1-0.1,1.9-0.2,2.9c0,0,0,0,0,0c-0.8,8.5-4.7,15.8-10.5,21
	c0,0-5,4.4-10.8,7.6c0,0-5.3-3.2-5.3-3.2c-1.5-1-3.2-2.3-4.7-3.6l-0.8-0.8c-3.3-3-6-6.7-7.9-10.9c-0.1-0.2-0.2-0.4-0.2-0.5
	c0,0,0,0,0-0.1c-0.1-0.2-0.2-0.4-0.2-0.6c0,0,0,0,0,0c-0.2-0.6-0.5-1.2-0.7-1.9c0,0,0,0,0,0c-0.1-0.2-0.1-0.4-0.2-0.6c0,0,0,0,0,0
	C18.7,32.3,18.4,26,20,19.3c0,0,0.8-0.4,2.5-0.9c0.4-0.1,0.7-0.2,1-0.3l0,0c-0.8,4.2-1.4,8.9-1,14.5v0c0,4.5,1.9,9.8,3,12.6
	c0.6,1.5,1.4,2.9,2.2,4.1c-3-5.6-4.4-12.5-4.4-18.8c0-3.5,0.3-7.7,1.3-12.6c0,0,0,0,0,0c1-0.2,2.2-0.4,3.6-0.6
	c-0.5-0.5-1-1.1-1.2-1.5c0-0.1-0.1-0.2-0.1-0.2c-0.9-1.6-0.8-4.1,0-4.3c0.5-0.1,0.9,0,1.5,0.1c1.3,0.2,3.3,0.3,5.1,0.3
	c0,0,3.3-1.7,7.1-0.7c0,0,3-1.1,6.1,0.8c1.8,0.3,3.2,0.4,5.6,0.4c1,0,1.5,0.4,1.4,1.2c-0.3,2-0.9,3.2-1.5,3.9c1.6,0.2,2.9,0.4,4,0.7
	l0,0c0.9,0.2,2.1,0.5,2.1,0.5c1.7,0.5,2.5,0.8,2.5,0.9c0.1,0.4,0.2,0.8,0.3,1.2c0,0.1,0,0.1,0,0.2c0,0.2,0.1,0.3,0.1,0.5
	c0,0.1,0,0.1,0,0.2c0,0.2,0.1,0.3,0.1,0.5c0,0,0,0.1,0,0.1c0.1,0.8,0.2,1.6,0.3,2.4c0,0,0,0.1,0,0.1c0,0.2,0,0.4,0.1,0.5
	c0,0,0,0.1,0,0.1c0,0.2,0,0.4,0,0.6c0,0,0,0,0,0c0.1,0.8,0.1,1.6,0.1,2.4c0,0,0,0,0,0.1C61.8,28.2,61.8,28.4,61.8,28.7
	C61.8,28.6,61.8,28.6,61.8,28.7z"/>
</svg>
