<?xml version="1.0" encoding="utf-8"?>
<!-- Generator: Adobe Illustrator 23.1.0, SVG Export Plug-In . SVG Version: 6.00 Build 0)  -->
<svg version="1.1" id="Layer_1" xmlns="http://www.w3.org/2000/svg" xmlns:xlink="http://www.w3.org/1999/xlink" x="0px" y="0px"
	 viewBox="0 0 80 80" style="enable-background:new 0 0 80 80;" xml:space="preserve">
<style type="text/css">
	.st0{fill:none;}
	.st1{fill:#FFFFFF;}
	.st2{fill:#231F20;enable-background:new    ;}
	.st3{fill:#231F20;}
	.st4{fill:#FFFFFF;enable-background:new    ;}
	.st5{fill:#EF3829;enable-background:new    ;}
	.st6{clip-path:url(#SVGID_2_);}
</style>
<title>st-kilda</title>
<path class="st0" d="M0,0h80v80H0V0z"/>
<path class="st1" d="M64.702,59.657c0,1.246-1.01,2.257-2.257,2.257c-1.246,0-2.257-1.01-2.257-2.257
	c0-1.246,1.01-2.257,2.257-2.257C63.691,57.4,64.702,58.411,64.702,59.657z"/>
<path class="st1" d="M65.484,37.165c0,0,0.272,3.252,0.412,5.388c0.585-0.495,1.185-1.002,1.185-1.002
	c3.24-2.73,3.24-2.73,3.874-2.295l0.617,0.423l-0.245,0.707c-2.843,8.158-6.601,13.936-9.253,17.346
	c-0.197,0.253-4.837,6.192-6.463,5.917l-0.699-0.118l-0.144-0.88l0.032,0.216c-0.267-0.684-3.07-4.135-3.476-4.581l-0.636-0.696
	l0.655-0.679c8.713-8.561,12.239-20.053,12.274-20.168c0,0,0.25-0.754,0.358-1.332C64.557,35.729,65.401,35.889,65.484,37.165z"/>
<path d="M63.243,58.93c0.206,0.209,0.31,0.46,0.31,0.754c0,0.297-0.104,0.549-0.31,0.759c-0.207,0.208-0.458,0.313-0.754,0.313
	c-0.295,0-0.547-0.104-0.753-0.313c-0.206-0.21-0.309-0.462-0.309-0.759c0-0.294,0.104-0.545,0.31-0.754
	c0.208-0.208,0.458-0.313,0.752-0.313C62.783,58.618,63.035,58.722,63.243,58.93z M63.365,58.812
	c-0.241-0.241-0.534-0.361-0.876-0.361c-0.34,0-0.631,0.12-0.871,0.361c-0.242,0.241-0.363,0.533-0.363,0.872
	c0,0.344,0.12,0.636,0.359,0.878c0.241,0.243,0.532,0.365,0.874,0.365c0.342,0,0.635-0.121,0.876-0.365
	c0.241-0.243,0.363-0.535,0.363-0.878C63.728,59.343,63.607,59.052,63.365,58.812z M62.673,59.627
	c-0.051,0.02-0.127,0.03-0.228,0.03h-0.216v-0.492h0.204c0.133,0,0.228,0.018,0.288,0.051c0.061,0.034,0.09,0.1,0.09,0.199
	C62.812,59.52,62.766,59.59,62.673,59.627z M61.99,60.36h0.239v-0.535h0.189c0.127,0,0.216,0.015,0.266,0.043
	c0.085,0.051,0.128,0.155,0.128,0.312v0.109l0.005,0.043c0.002,0.005,0.003,0.011,0.003,0.015c0.001,0.005,0.003,0.009,0.004,0.014
	h0.224l-0.008-0.016c-0.005-0.011-0.01-0.035-0.012-0.071c-0.002-0.036-0.003-0.069-0.003-0.101v-0.099
	c0-0.069-0.025-0.139-0.074-0.211c-0.05-0.072-0.127-0.117-0.234-0.133c0.084-0.013,0.15-0.036,0.197-0.065
	c0.089-0.057,0.133-0.147,0.133-0.268c0-0.17-0.07-0.285-0.211-0.344c-0.079-0.032-0.202-0.049-0.371-0.049H61.99V60.36z"/>
<polygon class="st1" points="58.06,56.655 50.688,57.589 54.659,64.202 62.066,62.954 58.647,56.651 "/>
<path class="st1" d="M15.145,37.165c0,0-0.272,3.252-0.412,5.388c-0.585-0.495-1.185-1.002-1.185-1.002
	c-3.239-2.73-3.239-2.73-3.874-2.295l-0.617,0.423l0.246,0.707c2.843,8.158,6.601,13.936,9.253,17.346
	c0.197,0.253,4.837,6.192,6.463,5.917l0.699-0.118l0.143-0.88l-0.032,0.216c0.267-0.684,3.07-4.135,3.476-4.581l0.636-0.696
	l-0.655-0.679c-8.714-8.561-12.239-20.053-12.274-20.168c0,0-0.25-0.754-0.358-1.332C16.071,35.729,15.228,35.889,15.145,37.165z"/>
<polygon class="st1" points="21.94,57.168 17.955,62.504 25.264,63.713 29.94,57.589 22.227,56.697 "/>
<path class="st1" d="M57.44,56.89c-7.298,5.316-14.263,5.769-16.918,5.717c0,0-0.133,0.042-0.206,0.065
	c-0.073-0.023-0.206-0.065-0.206-0.065c-2.655,0.052-9.619-0.401-16.917-5.717l-0.797-0.58l-4.44,6.194l0.568,0.587
	c0.305,0.315,7.624,7.707,21.792,7.707c14.168,0,21.488-7.392,21.793-7.707l0.568-0.586l-4.439-6.195L57.44,56.89z"/>
<path class="st1" d="M62.244,10.387H17.649l-0.202,0.711c-0.074,0.26-7.062,26.274,22.271,48.882l0.597,0.46l0.597-0.46
	c29.335-22.607,22.346-48.622,22.272-48.882l-0.202-0.711H62.244z"/>
<g>
	<path class="st2" d="M65.035,44.553l-0.491-7.53c0,0-3.369,11.72-12.378,20.571c-0.01-0.003,3.29,5.36,3.299,5.352
		c0.439-0.421,9.434-7.123,14.927-22.883C70.418,39.992,65.035,44.553,65.035,44.553z"/>
	<path class="st3" d="M52.113,57.539c-0.058,0.107,3.262,5.435,3.305,5.469l0.05,0.038l0.241-0.205
		c2.892-2.408,10.118-9.443,14.756-22.752l0.02-0.055L70.436,40c-0.015-0.011-0.038-0.011-0.117,0.039c0,0-0.001,0-0.001,0.001
		c-0.257,0.166-1.215,0.964-5.216,4.355c-0.02-0.294-0.481-7.377-0.481-7.377l-0.151-0.016
		C64.436,37.119,61.003,48.805,52.113,57.539z M64.494,37.442c0.049,0.738,0.474,7.269,0.474,7.269l0.117-0.099
		c1.259-1.067,4.307-3.643,5.133-4.316C65.589,53.391,58.472,60.34,55.61,62.722c0,0-0.069,0.058-0.127,0.108
		c-0.259-0.404-3.022-4.888-3.22-5.225C60.261,49.723,63.833,39.5,64.494,37.442z"/>
</g>
<g>
	<polygon class="st4" points="58.067,57.633 60.513,62.143 55.493,62.705 52.322,57.673 	"/>
	<path class="st3" d="M58.066,57.573l-5.854,0.04l3.23,5.125c0.058,0.028,5.078-0.535,5.078-0.535l0.089-0.01l-2.506-4.621
		L58.066,57.573z M58.031,57.694c0.033,0.062,2.304,4.248,2.386,4.399c-0.172,0.02-4.93,0.552-4.93,0.552c0,0,0,0,0,0
		c0-0.059-2.755-4.435-3.056-4.913C52.638,57.731,57.961,57.694,58.031,57.694z"/>
</g>
<g>
	<path class="st5" d="M15.583,44.553l0.491-7.53c0,0,3.517,11.734,12.525,20.585c-0.025-0.004-3.718,4.434-3.718,5.042
		c0,0.608-9.164-6.826-14.655-22.586C10.201,39.992,15.583,44.553,15.583,44.553z"/>
	<path class="st3" d="M15.997,37.018c0,0-0.462,7.083-0.481,7.377c-4.004-3.393-4.96-4.19-5.216-4.356l0,0
		c-0.079-0.051-0.101-0.05-0.116-0.039l-0.049,0.033l0.019,0.057c5.331,15.299,14.104,22.774,14.714,22.671l0.064-0.011l0.027-0.099
		c0-0.528,3.472-4.775,3.69-4.984l0.058-0.055l-0.053-0.059c-8.891-8.735-12.47-20.435-12.505-20.552L15.997,37.018z M15.66,44.558
		c0,0,0.418-6.408,0.465-7.128c0.674,2.028,4.36,12.283,12.371,20.181c-0.294,0.339-3.691,4.409-3.691,5.039
		c-0.665-0.022-9.224-7.671-14.411-22.36c0.808,0.657,3.874,3.249,5.139,4.321l0.117,0.099L15.66,44.558z"/>
</g>
<g>
	<rect x="22.578" y="57.545" class="st3" width="5.989" height="0.154"/>
</g>
<polygon class="st1" points="22.776,57.677 20.056,62.143 24.622,62.318 28.419,57.693 "/>
<g>
	<path class="st4" d="M40.315,63.587c0-0.061-8.556,0.754-17.699-5.906l-3.39,4.729c0,0,7.173,7.409,21.089,7.409
		c13.917,0,21.09-7.409,21.09-7.409l-3.389-4.729C48.872,64.341,40.315,63.526,40.315,63.587z"/>
	<path class="st3" d="M57.97,57.618c-7.52,5.477-14.72,5.943-17.466,5.89c0,0-0.123,0.012-0.188,0.018
		c-0.065-0.006-0.188-0.018-0.188-0.018c-2.746,0.054-9.946-0.413-17.465-5.89l-0.063-0.046l-3.473,4.845l0.045,0.046
		c0.072,0.074,7.355,7.433,21.145,7.433c13.79,0,21.074-7.358,21.145-7.433l0.045-0.046l-3.472-4.845L57.97,57.618z M22.636,57.786
		c7.534,5.46,14.74,5.931,17.494,5.877l0.202-0.001l0.169,0.001c2.754,0.054,9.962-0.417,17.495-5.877
		c0.083,0.116,3.233,4.511,3.307,4.616c-0.479,0.474-7.672,7.341-20.988,7.341c-13.315,0-20.508-6.867-20.988-7.341
		C19.402,62.297,22.553,57.902,22.636,57.786z"/>
</g>
<path class="st3" d="M49.06,66.997c0.797-0.244,0.708-1.041,0.512-1.768c-0.199-0.733-0.553-1.441-1.472-1.161l-0.81,0.248
	l0.901,2.946L49.06,66.997z"/>
<path class="st3" d="M41.643,66.465c0.038,0.854,0.173,1.676,1.073,1.645c0.899-0.032,0.981-0.862,0.955-1.715
	c-0.02-0.706-0.16-1.532-1.06-1.501C41.696,64.927,41.618,65.759,41.643,66.465z"/>
<path class="st3" d="M38.528,67.664c0.219-0.264,0.274-1.014,0.282-1.228c0.024-0.707-0.057-1.539-0.973-1.571
	c-0.9-0.031-1.035,0.794-1.06,1.501c-0.021,0.854,0.057,1.683,0.956,1.714c0.226,0.008,0.487-0.073,0.624-0.2l0.335,0.299
	l0.179-0.207L38.528,67.664z"/>
<g>
	<path class="st4" d="M18.388,11.365c0,0-7.221,25.376,21.927,47.839c29.149-22.464,21.928-47.839,21.928-47.839H18.388z"/>
	<path class="st3" d="M62.244,11.288H18.33l-0.016,0.056c-0.072,0.254-6.901,25.683,21.954,47.922l0.047,0.036l0.047-0.036
		c28.856-22.238,22.028-47.667,21.955-47.922l-0.016-0.056H62.244z M62.184,11.442c0.082,0.307,0.735,2.931,0.735,7.099
		c0,9.139-3.178,25.57-22.603,40.564C20.892,44.111,17.713,27.681,17.713,18.542c0-4.168,0.654-6.792,0.735-7.1
		C18.568,11.442,62.064,11.442,62.184,11.442z"/>
</g>
<g>
	<path class="st3" d="M40.315,59.105c-17.696-13.66-22.051-28.351-22.585-38.274l-0.154,0.008
		c0.536,9.965,4.908,24.721,22.692,38.427l0.047,0.036l0.047-0.036c17.766-13.692,22.155-28.454,22.71-38.426l-0.155-0.009
		C62.366,30.762,57.993,45.459,40.315,59.105z"/>
</g>
<g>
	<polygon class="st2" points="36.49,20.835 44.16,20.835 44.16,56.054 40.315,59.204 36.49,56.062 	"/>
	<path class="st3" d="M36.48,20.825v35.237c0.004,0.008,3.829,3.15,3.829,3.15c0.013,0,3.858-3.15,3.858-3.15l0.004-35.227
		l-7.68-0.01H36.48z M44.16,20.844l-0.01,35.21c-0.002-0.003-3.841,3.142-3.841,3.142c0-0.01-3.812-3.142-3.812-3.142
		s0.004-35.19,0.004-35.21C36.52,20.844,44.16,20.844,44.16,20.844z"/>
</g>
<g>
	<path class="st5" d="M62.978,20.835c0.311-5.793-0.735-9.47-0.735-9.47H18.388c0,0-1.046,3.677-0.735,9.47H62.978z"/>
	<path class="st3" d="M18.388,11.288H18.33l-0.016,0.056c-0.01,0.037-1.046,3.755-0.737,9.495l0.004,0.073h45.471l0.003-0.073
		c0.308-5.74-0.727-9.458-0.737-9.495l-0.016-0.056h-0.059H18.388z M62.184,11.442c0.079,0.292,0.774,3.005,0.774,7.272
		c0,0.646-0.018,1.33-0.055,2.043c-0.15,0-45.025,0-45.174,0c-0.037-0.714-0.055-1.399-0.055-2.046c0-4.265,0.696-6.978,0.775-7.27
		C18.567,11.442,62.065,11.442,62.184,11.442z"/>
</g>
<path class="st3" d="M24.362,62.256c-0.381,0.766-0.661,1.549,0.142,1.958c0.801,0.409,1.275-0.276,1.666-1.035
	c0.325-0.628,0.603-1.418-0.199-1.827C25.155,60.936,24.683,61.627,24.362,62.256z"/>
<path class="st1" d="M48.647,14.215v-1.066H45.01v6.28h1.43v-2.765h2.072v-1.066h-2.072v-1.382H48.647z M58.175,13.355
	c-0.458-0.227-0.979-0.357-1.509-0.357c-1.985,0-3.341,1.531-3.341,3.263c0,1.685,1.41,3.167,3.314,3.167
	c0.549,0,1.042-0.154,1.536-0.364v-1.418c-0.368,0.382-0.934,0.648-1.5,0.648c-1.231,0-1.985-1.029-1.985-2.057
	c0-1.052,0.727-2.105,1.994-2.105c0.566,0,1.123,0.243,1.491,0.648V13.355z M60.116,17.554c-0.515,0-0.937,0.411-0.937,0.926
	c0,0.516,0.422,0.948,0.937,0.948c0.516,0,0.937-0.431,0.937-0.948C61.053,17.966,60.632,17.554,60.116,17.554z M49.353,17.554
	c-0.516,0-0.936,0.411-0.936,0.926c0,0.516,0.421,0.948,0.936,0.948c0.516,0,0.936-0.431,0.936-0.948
	C50.289,17.966,49.869,17.554,49.353,17.554z M27.958,17.554c-0.516,0-0.937,0.411-0.937,0.926c0,0.516,0.421,0.948,0.937,0.948
	c0.516,0,0.937-0.431,0.937-0.948C28.895,17.966,28.473,17.554,27.958,17.554z M35.737,15.822l-0.02-2.63h-1.408v6.237h1.408v-2.804
	l2.328,2.804h1.811l-2.893-3.358l2.739-2.878h-1.734L35.737,15.822z M25.791,13.464c-0.456-0.429-1.379-0.705-2.044-0.705
	c-1.261,0-2.184,0.848-2.184,1.898c0,0.983,0.705,1.394,1.668,1.73c0.586,0.194,1.3,0.379,1.3,1.034
	c0,0.487-0.367,0.915-0.963,0.915c-0.625,0-1.151-0.437-1.35-0.924l-0.942,0.781c0.516,0.731,1.27,1.235,2.302,1.235
	c1.528,0,2.462-0.899,2.462-2.168c0-2.125-2.968-1.68-2.968-2.746c0-0.411,0.447-0.714,0.913-0.714c0.487,0,0.845,0.202,1.122,0.521
	L25.791,13.464z M41.405,17.554c-0.516,0-0.936,0.411-0.936,0.926c0,0.516,0.421,0.948,0.936,0.948c0.516,0,0.937-0.431,0.937-0.948
	C42.342,17.966,41.92,17.554,41.405,17.554z M28.628,14.326h0.847v-1.191h-3.017v1.191h0.811v2.504h1.359V14.326z"/>
<polygon class="st3" points="22.462,62.902 23.255,61.682 24.116,62.241 24.284,61.983 23.422,61.423 23.972,60.575 24.9,61.178 
	25.068,60.919 23.854,60.132 22.177,62.716 "/>
<path class="st1" d="M25.852,63.025c-0.408,0.793-0.704,1.173-1.209,0.915c-0.505-0.258-0.371-0.72,0.03-1.515
	c0.307-0.613,0.675-1.045,1.143-0.806C26.299,61.865,26.167,62.416,25.852,63.025z"/>
<path class="st3" d="M26.747,63.801l0.552,0.222c0.373,0.151,0.389,0.441,0.274,0.727c-0.078,0.191-0.189,0.557-0.195,0.768
	l0.369,0.149l0.026-0.065c-0.077-0.031-0.049-0.166-0.038-0.224c0.056-0.225,0.121-0.442,0.196-0.661
	c0.108-0.399,0.064-0.554-0.291-0.737l0.003-0.008c0.349,0.088,0.652-0.069,0.799-0.399c0.284-0.651-0.033-0.961-0.631-1.203
	l-0.735-0.297l-1.155,2.857l0.316,0.128L26.747,63.801z"/>
<path class="st1" d="M27.278,62.487l0.446,0.18c0.213,0.086,0.593,0.253,0.402,0.748c-0.193,0.502-0.614,0.359-0.764,0.302
	l-0.499-0.201L27.278,62.487z"/>
<polygon class="st3" points="28.933,63.156 29.672,63.454 28.633,66.025 28.949,66.153 29.988,63.582 30.727,63.88 30.842,63.594 
	29.048,62.87 "/>
<polygon class="st3" points="30.45,66.658 31.402,63.727 31.077,63.622 30.126,66.552 "/>
<path class="st3" d="M31.288,66.176c-0.115,0.538,0.187,0.875,0.734,0.991c0.547,0.117,0.959-0.069,1.074-0.607l0.486-2.287
	l-0.334-0.071l-0.46,2.166c-0.046,0.237-0.167,0.611-0.702,0.497c-0.535-0.114-0.493-0.504-0.439-0.74l0.461-2.167l-0.334-0.071
	L31.288,66.176z"/>
<path class="st3" d="M35.657,65.543c0.152-0.56-0.125-0.917-0.676-1.033c-0.49-0.105-0.909,0.147-1.014,0.644
	c-0.063,0.298-0.042,0.554,0.212,0.76c0.143,0.118,0.39,0.259,0.541,0.359c0.281,0.181,0.465,0.224,0.368,0.683
	c-0.075,0.353-0.349,0.476-0.687,0.405c-0.502-0.107-0.527-0.407-0.416-0.849l-0.334-0.071c-0.03,0.161-0.085,0.402-0.053,0.564
	c0.089,0.431,0.425,0.59,0.722,0.654c0.578,0.123,1.007-0.135,1.129-0.705c0.084-0.398,0.022-0.621-0.503-0.956
	c-0.148-0.094-0.292-0.187-0.44-0.282c-0.177-0.114-0.242-0.262-0.198-0.471c0.05-0.233,0.166-0.528,0.653-0.425
	c0.334,0.071,0.452,0.344,0.361,0.653L35.657,65.543z"/>
<path class="st1" d="M38.109,67.67c-0.127,0.086-0.238,0.102-0.373,0.102c-0.526-0.002-0.638-0.573-0.61-1.258
	c0.035-0.89,0.142-1.36,0.709-1.34c0.566,0.02,0.64,0.495,0.617,1.387c-0.007,0.328-0.096,0.761-0.171,0.878l-0.28-0.24l-0.189,0.22
	L38.109,67.67z"/>
<path class="st3" d="M39.326,67.337c-0.02,0.55,0.336,0.83,0.895,0.849c0.559,0.02,0.934-0.235,0.953-0.785l0.081-2.336l-0.34-0.011
	l-0.077,2.212c-0.005,0.243-0.059,0.631-0.605,0.612c-0.547-0.019-0.574-0.411-0.562-0.653l0.078-2.213l-0.341-0.011L39.326,67.337z
	"/>
<path class="st1" d="M43.318,66.416c0.028,0.891-0.047,1.366-0.613,1.386c-0.566,0.02-0.673-0.449-0.708-1.34
	c-0.028-0.685,0.084-1.24,0.609-1.258C43.148,65.184,43.299,65.729,43.318,66.416z"/>
<polygon class="st3" points="45.593,67.713 45.415,66.269 46.435,66.144 46.398,65.839 45.378,65.963 45.255,64.961 46.352,64.826 
	46.314,64.52 44.879,64.697 45.254,67.754 "/>
<rect x="46.809" y="64.343" transform="matrix(0.9781 -0.208 0.208 0.9781 -12.6775 11.214)" class="st3" width="0.341" height="3.082"/>
<path class="st1" d="M47.707,64.511l0.522-0.159c0.526-0.161,0.758,0.257,0.987,0.922c0.301,0.871,0.214,1.288-0.266,1.434
	l-0.522,0.16L47.707,64.511z"/>
<polygon class="st3" points="52.028,66.107 51.938,65.812 50.783,66.165 50.45,65.077 51.527,64.748 51.436,64.453 50.361,64.782 
	50.062,63.808 51.209,63.457 51.12,63.162 49.646,63.613 50.547,66.56 "/>
<polygon class="st3" points="53.991,65.287 53.876,65.001 52.71,65.473 51.672,62.902 51.356,63.029 52.51,65.886 "/>
<rect x="53.74" y="62.11" transform="matrix(0.891 -0.4539 0.4539 0.891 -23.0188 31.4072)" class="st3" width="0.341" height="3.081"/>
<path class="st3" d="M55.071,63.963c0.25,0.49,0.697,0.562,1.195,0.309c0.498-0.254,0.702-0.658,0.452-1.149l-1.061-2.083
	l-0.304,0.155l1.005,1.973c0.114,0.214,0.255,0.58-0.232,0.828c-0.487,0.248-0.701-0.081-0.808-0.299l-1.006-1.973L54.01,61.88
	L55.071,63.963z"/>
<path class="st3" d="M57.799,60.647c-0.279-0.508-0.727-0.573-1.204-0.275c-0.425,0.266-0.551,0.737-0.282,1.17
	c0.161,0.257,0.355,0.427,0.68,0.398c0.185-0.014,0.46-0.084,0.638-0.118c0.328-0.064,0.491-0.161,0.739,0.236
	c0.191,0.307,0.08,0.585-0.213,0.768c-0.435,0.272-0.661,0.074-0.888-0.321l-0.29,0.18c0.091,0.137,0.218,0.349,0.354,0.443
	c0.363,0.248,0.716,0.129,0.974-0.032c0.501-0.313,0.631-0.796,0.322-1.291c-0.215-0.344-0.415-0.462-1.025-0.338
	c-0.172,0.035-0.34,0.067-0.512,0.102c-0.206,0.042-0.357-0.02-0.469-0.201c-0.127-0.202-0.247-0.495,0.175-0.759
	c0.288-0.181,0.564-0.066,0.713,0.218L57.799,60.647z"/>
<g>
	
		<rect x="23.069" y="59.568" transform="matrix(0.9482 -0.3177 0.3177 0.9482 -17.7279 10.5773)" class="st3" width="0.986" height="0.138"/>
</g>
<g>
	<polygon class="st3" points="56.553,59.546 57.488,59.858 57.532,59.727 56.596,59.415 	"/>
</g>
<g>
	<defs>
		<path id="SVGID_1_" d="M17.653,20.835c0.507,9.426,4.609,24.456,22.662,38.369c18.054-13.913,22.156-28.944,22.68-38.369"/>
	</defs>
	<clipPath id="SVGID_2_">
		<use xlink:href="#SVGID_1_"  style="overflow:visible;"/>
	</clipPath>
	<g class="st6">
		<polygon class="st2" points="62.931,29.522 60.584,36.919 19.84,36.919 17.189,29.522 		"/>
		<path class="st3" d="M62.931,29.513H17.189c-0.009,0.013,2.642,7.409,2.642,7.409l40.753,0.006
			c0.009-0.007,2.357-7.403,2.357-7.403l0.004-0.013H62.931z M19.84,36.909c0.009,0.006-2.642-7.39-2.642-7.39
			s45.692,0.013,45.719,0.013c-0.008,0.026-2.343,7.383-2.343,7.383L19.84,36.909z"/>
	</g>
</g>
<path class="st0" d="M0,0h80v80H0V0z"/>
</svg>
