<svg id="Layer_1" data-name="Layer 1" xmlns="http://www.w3.org/2000/svg" viewBox="0 0 80 80"><defs><style>.cls-1{fill:#fff;}.cls-2{fill:#ee1e31;}.cls-3{fill:none;}</style></defs><title>sydney-swans</title><path class="cls-1" d="M17.24,21.33h17L40,32.45l5.6-11.11H62.7L39.91,69.05Z"/><path class="cls-1" d="M33.9,22,40,33.82,46,22H61.72L39.91,67.61c-1-2.2-20.9-44-21.69-45.66Z"/><path class="cls-2" d="M34.27,21.34,40,32.45l5.6-11.11H62.7L49.62,48.68c-.95-4.88,1.2-7.52,1.2-7.52a7.13,7.13,0,0,0-5.53,2C44.83,42.29,43,37.8,35.86,37a8.07,8.07,0,0,1,1.74,5.76,8.18,8.18,0,0,0-4.81-2.13c.82,1.14.85,4.16.82,4.13a9.14,9.14,0,0,0-4.15-2.12c.25,1.54.69,3.3.26,4.9-1.4-2.84-12.48-26.21-12.48-26.21Z"/><path class="cls-2" d="M40,55.22c-2.37,2.64-3.43,4.56-2,5,2.35.7,2.67-8.68,11.61-11.57l-9.7,20.4L36,60.81C36.24,59,37.94,57,39.7,55c3-3.26,2.62-6.79.45-8.64-2-1.68-6.27-1.07-7.17,1.34.2.34.49-.43.78-.28.52.28-.81,1.13,0,1.55.33.16.35.29.62.34,1.17.25,1.12-1.21,2.55-1.25a2,2,0,0,1,2,1.79c.27,1.26-.22,2.7-2.09,4.17a8,8,0,0,0-2.76,2.85L34,56.5c1.11-2.42,5.29-3.28,4.65-6.58a1.69,1.69,0,0,0-2.2-1.41c-.9.37-.74,1.27-2,1.08a26.77,26.77,0,0,1-2.85,2.57c-.16,0,0-.52,0-.65.3-1,.61-1.79,1-2.75.26.34.15.9.11,1.49a2.69,2.69,0,0,0,.66-1.18c-.52-.47-.88-.55-.74-1,1.08-3.59,6.31-3.47,7.92-1.87,3,3,1.94,6.4-.43,9"/><path d="M35.32,13.58v1h-1v1h.86v.94h-.89v1.11h1v1H33.23v-5Z"/><path d="M35.32,13.58v1h-1v1h.86v.94h-.89v1.11h1v1H33.23v-5ZM25.6,17.74V14.56c.52,0,.94.61.94,1.62,0,1.29-.63,1.6-.94,1.56m-.94-4.15h-.08v5c1.16,0,3,.34,3-2.48,0-2.46-1.55-2.64-2.9-2.56"/><path d="M25.6,17.74V14.56c.52,0,.94.61.94,1.62,0,1.29-.63,1.6-.94,1.56m-.94-4.15h-.08v5c1.16,0,3,.34,3-2.48,0-2.46-1.55-2.64-2.9-2.56m-2.73,1.62.59-1.63h1.09l-1.16,2.59,0,2.46h-1V16.17l-1.19-2.59h1.1Z"/><path d="M21.93,15.21l.59-1.63h1.09l-1.16,2.59,0,2.46h-1V16.17l-1.19-2.59h1.1Zm9,1.1V13.63h1.05v5H31l-1.17-2.8v2.8h-1v-5h1Z"/><path d="M30.89,16.31V13.63h1.05v5H31l-1.17-2.8v2.8h-1v-5h1ZM19.23,13.76a1.69,1.69,0,0,0-.88-.24A1.35,1.35,0,0,0,17,15a1.7,1.7,0,0,0,1,1.5c.28.2.57.38.57.77s-.26.46-.58.46a1.17,1.17,0,0,1-.73-.22v.94a1.52,1.52,0,0,0,.85.26,1.42,1.42,0,0,0,1.45-1.57c0-1.36-1.52-1.4-1.52-2.23a.42.42,0,0,1,.48-.45,1.15,1.15,0,0,1,.74.28Z"/><path d="M19.23,13.76a1.69,1.69,0,0,0-.88-.24A1.35,1.35,0,0,0,17,15a1.7,1.7,0,0,0,1,1.5c.28.2.57.38.57.77s-.26.46-.58.46a1.17,1.17,0,0,1-.73-.22v.94a1.52,1.52,0,0,0,.85.26,1.42,1.42,0,0,0,1.45-1.57c0-1.36-1.52-1.4-1.52-2.23a.42.42,0,0,1,.48-.45,1.15,1.15,0,0,1,.74.28Zm43.39,0a1.69,1.69,0,0,0-.88-.24A1.35,1.35,0,0,0,60.4,15a1.7,1.7,0,0,0,1,1.5c.28.2.57.38.57.77s-.26.46-.58.46a1.17,1.17,0,0,1-.73-.22v.94a1.5,1.5,0,0,0,.85.26,1.42,1.42,0,0,0,1.44-1.57c0-1.36-1.51-1.4-1.51-2.23a.42.42,0,0,1,.48-.45,1.15,1.15,0,0,1,.74.28Z"/><path d="M62.62,13.76a1.69,1.69,0,0,0-.88-.24A1.35,1.35,0,0,0,60.4,15a1.7,1.7,0,0,0,1,1.5c.28.2.57.38.57.77s-.26.46-.58.46a1.17,1.17,0,0,1-.73-.22v.94a1.5,1.5,0,0,0,.85.26,1.42,1.42,0,0,0,1.45-1.57c0-1.36-1.52-1.4-1.52-2.23a.42.42,0,0,1,.48-.45,1.15,1.15,0,0,1,.74.28v-1Zm-17.74,0a1.71,1.71,0,0,0-.88-.24A1.35,1.35,0,0,0,42.66,15a1.71,1.71,0,0,0,1,1.5c.28.2.58.38.58.77s-.26.46-.58.46a1.18,1.18,0,0,1-.74-.22v.94a1.52,1.52,0,0,0,.85.26,1.42,1.42,0,0,0,1.45-1.57c0-1.36-1.51-1.4-1.51-2.23,0-.3.17-.45.48-.45a1.17,1.17,0,0,1,.74.28Z"/><path d="M44.88,13.76a1.71,1.71,0,0,0-.88-.24A1.35,1.35,0,0,0,42.66,15a1.71,1.71,0,0,0,1,1.5c.28.2.58.38.58.77s-.26.46-.58.46a1.18,1.18,0,0,1-.74-.22v.94a1.52,1.52,0,0,0,.85.26,1.42,1.42,0,0,0,1.45-1.57c0-1.36-1.51-1.4-1.51-2.23,0-.3.17-.45.48-.45a1.17,1.17,0,0,1,.74.28ZM53,17l.27-1.85L53.6,17Zm.86-3.35H52.81l-1.17,5h1l.2-.85h.91l.22.85h1.07l-1.19-5Z"/><path d="M53,17l.27-1.85L53.6,17Zm.86-3.35H52.81l-1.17,5h1l.2-.86h.91l.22.86h1.07l-1.19-5Zm4.31,2.68V13.63h1v5h-1l-1.16-2.8v2.8h-1v-5h1Z"/><path d="M58.21,16.31V13.63h1v5h-1l-1.16-2.8v2.8h-1v-5h1ZM47.1,13.63l.54,3.21.54-3.21h.88l.62,3.21.43-3.21h1.1l-1.05,5h-.89l-.62-3.34L48,18.66H47l-1-5Z"/><path d="M47.1,13.63l.54,3.21.54-3.21h.88l.62,3.21.43-3.21h1.1l-1.05,5h-.89l-.62-3.34L48,18.66H47l-1-5Zm-9.25,1.58.59-1.63h1.09l-1.16,2.59,0,2.46h-1V16.17l-1.19-2.59h1.1Z"/><path d="M37.85,15.21l.59-1.63h1.09l-1.16,2.59,0,2.46h-1V16.17l-1.19-2.59h1.1Z"/><path class="cls-3" d="M0,0H80V80H0Z"/></svg>