<svg id="Layer_1" data-name="Layer 1" xmlns="http://www.w3.org/2000/svg" viewBox="0 0 80 80"><defs><style>.cls-1{fill:none;}.cls-2{fill:#fff;}.cls-3{fill:#0039a6;}.cls-4{fill:#c60c30;}.cls-5{fill:#bbc1db;}.cls-6{fill:#9f0a2b;}.cls-7{fill:#06357a;}</style></defs><title>western-bulldogs</title><path class="cls-1" d="M0,0H80V80H0Z"/><path class="cls-2" d="M59.92,34.9q.66-3.67,1.1-7.38c-13.56-3.18-30.86.53-41.81,5.65-3.11,17.31,4.84,31.5,16.21,38l.92-.38.34-.15A33.69,33.69,0,0,0,51.86,57.56M56.52,48c.24-.66.46-1.33.69-2m0,0A85,85,0,0,0,59.92,34.9m-8,22.64A48,48,0,0,0,56.52,48"/><path class="cls-2" d="M51.86,31.07h0"/><path class="cls-3" d="M26.87,59.92a34.86,34.86,0,0,0,6.78,8.3,36.1,36.1,0,0,0,3,2.42A33.82,33.82,0,0,0,51.87,57.55a124.13,124.13,0,0,0-14.31.75c-3.61.39-7.18.94-10.69,1.62M22.92,49.09c.1.65.27,1.3.4,1.93a138.46,138.46,0,0,1,33.21-3.08c.24-.66.47-1.34.69-2a131.07,131.07,0,0,0-34.3,3.17m-3.73-16c-3.12,17.33,4.85,31.53,16.23,38l.91-.38c-10.76-6.15-18.11-19.59-15.16-36,9.7-4.54,24.59-7.86,37-5.8-9.22-.94-23.77,1.46-33.44,5.25l-1.8.69a29.39,29.39,0,0,0-.59,4.59l.67-.18a129.8,129.8,0,0,1,36.94-4.5c.43-2.37.79-4.83,1.1-7.38-13.58-3.19-30.9.53-41.85,5.65"/><path class="cls-4" d="M33.74,36.93h0c-3.85.69-7.65,1.57-11.41,2.61a39.66,39.66,0,0,0,.59,9.55,124.79,124.79,0,0,1,15.49-2.57h0a131,131,0,0,1,18.81-.6,83.21,83.21,0,0,0,2.72-11.06,130.69,130.69,0,0,0-26.2,2.07"/><path class="cls-5" d="M47,56.38l0,0a11.23,11.23,0,0,1-1,1.23c2-.08,3.9-.11,5.86-.1a47.68,47.68,0,0,0,4.66-9.62A135.71,135.71,0,0,0,32.88,49.3s0,0,0,0c.28.45.55.85.73,1.11.37.55.08.94.13,1.21a8.43,8.43,0,0,0,.11,1.83,5.75,5.75,0,0,0-1,1.22,4.3,4.3,0,0,0-.24,3,5.22,5.22,0,0,0,0,1.25q4.4-.66,8.81-1h0a5.34,5.34,0,0,0,1.16-2.72c.21-1.17.42-.93,1-1.58a1.84,1.84,0,0,0,.3-1.68h.07a17.64,17.64,0,0,0,3.83-.76c1.4-.29,1.27.59,1.29.81a6.53,6.53,0,0,1-.82,2.12A12.83,12.83,0,0,1,47,56.38"/><path class="cls-6" d="M58.25,41.82a10,10,0,0,0-.64-2.73,14.41,14.41,0,0,0-3.51-4.23,130.19,130.19,0,0,0-24.88,3A10.46,10.46,0,0,0,29,38.91c0,.12.13.3.22.49a8.51,8.51,0,0,0,.38,2.32,1,1,0,0,0-.07.64,2.21,2.21,0,0,0,.89.85,4.28,4.28,0,0,0,1.92,3.3,4.79,4.79,0,0,0-.2.81,131,131,0,0,1,25.11-1.4c.41-1.29.8-2.6,1.14-3.92l-.12-.18"/><path class="cls-7" d="M38.76,26.23a6,6,0,0,0-2.13-.71,13.43,13.43,0,0,0-2.55,1.27,17.16,17.16,0,0,0-1,2.83,3.41,3.41,0,0,0,1-.14,4.31,4.31,0,0,0-.55.65,20.57,20.57,0,0,0-2.76,1.23,2.17,2.17,0,0,0-.7,1,.49.49,0,0,0,.13.53,1.09,1.09,0,0,0,.39.19h0A3.21,3.21,0,0,0,30.91,35a3.13,3.13,0,0,0-.25.54,10.87,10.87,0,0,0-.57,2.1,4.3,4.3,0,0,0,.22.49,8.57,8.57,0,0,0,.38,2.32.89.89,0,0,0-.07.64,2.09,2.09,0,0,0,.89.85,4.29,4.29,0,0,0,1.91,3.3,4.92,4.92,0,0,0-.24,1.2l0,.09A8.33,8.33,0,0,0,34,48c.29.46.57.87.75,1.13a1.56,1.56,0,0,1,.18,1.29A4.46,4.46,0,0,0,35,52.17a5.75,5.75,0,0,0-1,1.22,4.2,4.2,0,0,0-.24,3C33.52,58,34,59.51,35.32,60a2.7,2.7,0,0,0,1.54.18,2.6,2.6,0,0,0,1.79-.5,6.29,6.29,0,0,0,2.21-1.53,19.39,19.39,0,0,0,1.7-1.53,5.11,5.11,0,0,0,1.16-2.71c.22-1.17.42-.93,1-1.58a1.81,1.81,0,0,0,.3-1.68H45a17.49,17.49,0,0,0,3.83-.76c1.4-.29,1.28.59,1.29.81a6.3,6.3,0,0,1-.82,2.12,12.83,12.83,0,0,1-1.22,2.27l0,.05c-.4.65-1.83,2.26-2.22,2.28a3.54,3.54,0,0,0-3.31,2.18,3.32,3.32,0,0,0-2.24,2.75,2.11,2.11,0,0,0,.39,1.48c.15.19.45.35.63.57a1.7,1.7,0,0,0,.85.42,2.52,2.52,0,0,0,1.52-.21c.73-.29,2,.65,3.78.63s3.43,0,3.82.33c1,1,2.48,0,2.48,0a3.12,3.12,0,0,0,1.11-1.91,6.91,6.91,0,0,0,0-3.17,5.29,5.29,0,0,1,.67-2.86c1.12-2.34,3.57-4.05,4.79-8.06,1.16-3.8.74-7.59-1-9.77a5.1,5.1,0,0,0-.55-2,15.9,15.9,0,0,0-4.55-5.06,10.11,10.11,0,0,0-2.37-2.35,1.55,1.55,0,0,1-.07-.23l-.26-.53a3.8,3.8,0,0,0-.78-.79,2.89,2.89,0,0,0-1.22-.58,1.72,1.72,0,0,0,.26-.83c-1.06-1.16-2.81-1.75-3.95-2.78a24.61,24.61,0,0,0-3.93.32,5.3,5.3,0,0,0-1.32.94,13.54,13.54,0,0,0-1.77.32"/><path class="cls-2" d="M51.87,31h0M39.35,39.12c.38,0,1.55.19,2.45.36a4.63,4.63,0,0,1-.88-1.1,5.28,5.28,0,0,1-.55.63,2.47,2.47,0,0,0-.91-.92,3.94,3.94,0,0,1-.37.74A4.8,4.8,0,0,1,38,38.28a.53.53,0,0,0-.21.11,5.54,5.54,0,0,1,1.37.91Zm.11-1.74a4,4,0,0,1,1,.92,1,1,0,0,0,.15-.25,6.34,6.34,0,0,1-.85-1,12.73,12.73,0,0,0-1.65.35,3.21,3.21,0,0,0-.45.24,3.31,3.31,0,0,0,1.32.61,4.14,4.14,0,0,0,.47-.9ZM52.88,64.19a.45.45,0,0,0-.63.47c0,.2-.06.56.09.68,0,0,.26.17.71-.37A.53.53,0,0,0,52.88,64.19ZM52.41,62a1.86,1.86,0,0,0-1.07-.34v-.15A2.66,2.66,0,0,0,48.71,59c-.8,0-1,.74-1.11,1.3a10.92,10.92,0,0,0-.1,2c0,.27,0,.68.26.9s.32.18.35,0a1.63,1.63,0,0,1,.25-.88,1,1,0,0,1,.68-.36,1,1,0,0,1,.24,0,1.22,1.22,0,0,1,.79.63,1.25,1.25,0,0,1,0,1,3.17,3.17,0,0,1-.21.41s0,.07,0,.07a1.19,1.19,0,0,0,1-.5,2.93,2.93,0,0,0,.39-1.31c.3.36.19,1.21.14,1.49a1.6,1.6,0,0,0,0,.84.32.32,0,0,0,.4.19v0A.83.83,0,0,1,52,64a.84.84,0,0,1,.59-.36.89.89,0,0,1,.36,0,.86.86,0,0,1,.5.58.85.85,0,0,1,0,.38c.08,0,.15,0,.2-.2A2.31,2.31,0,0,0,52.41,62Zm-3.16.49c-.51-.16-.81.39-.79.86,0,.28-.19.85.2,1,0,0,.53.11,1-.81a.74.74,0,0,0-.32-1ZM59.87,45.36a6.7,6.7,0,0,0-.24-2,15.06,15.06,0,0,0-3.92-6.44A5.54,5.54,0,0,1,58.12,39c-.15-1.59-1.88-4-3.43-5.1a5.7,5.7,0,0,1,.55,2.36,9,9,0,0,1-.23,2,5.82,5.82,0,0,1-1.38,2.91c-.64.48-1.33,1.12-1.94,1.52l-1,.79A4.2,4.2,0,0,0,49.32,45a9,9,0,0,1,3.23-2.09A17.54,17.54,0,0,1,51,44.27a1.41,1.41,0,0,1,.83.7,3.92,3.92,0,0,1,.37,2.58,5.39,5.39,0,0,0,1.92-3.37c.08-.67.17-1.11.17-1.11a6.82,6.82,0,0,1,.12,1,7.63,7.63,0,0,1-1.09,4.19c-.33.53-.91.75-1.17,1.1s-.17.62-.25,1.22c-.12,1-1,1.68-.51,1.65a1.82,1.82,0,0,1,1.3.3A3,3,0,0,0,49.93,54c-.21.32-.68,1.13-.68,1.13a8.26,8.26,0,0,1-1.62,2c-.73.65-.59.69-.44.73l.07,0a6.12,6.12,0,0,0,2-1.41,3.26,3.26,0,0,1,.34-.36,3.66,3.66,0,0,1-.24.45,5.48,5.48,0,0,1-1.47,1.71,3.83,3.83,0,0,1,4.55,3.1,2.15,2.15,0,0,1,1.32.82c.6-1.18.27-2.58.2-3.67a7.35,7.35,0,0,1,.84-3.5,10.56,10.56,0,0,0-.29,2c.38-1.22,1.8-2.57,2.81-3.65a8.61,8.61,0,0,0,2.09-4.24,10.63,10.63,0,0,0-.62-6.1A5.66,5.66,0,0,1,59.87,45.36ZM42.44,54.83c.15-1,1.26-3.06,0-1.71a10.66,10.66,0,0,1-2.25,1.56c-1.16.78-.42,1.69-.62,2.28-.09.26,0,.13-.33.52-.54.7-1.43.85-1,1.11s.49,0,.86-.07a.9.9,0,0,0,.63-.51A2,2,0,0,1,41,56.62a2,2,0,0,0,1.45-1.79ZM41.87,63a.53.53,0,0,0-.1.8c.49.49.74.3.74.3s0-.48,0-.68A.46.46,0,0,0,41.87,63ZM45,61.81a.73.73,0,0,0-.75.71.48.48,0,0,0,0,.12c.15,1,.69,1.11.69,1.11.4,0,.41-.6.52-.86C45.66,62.45,45.57,61.83,45,61.81Zm.37-3.4a2.56,2.56,0,0,0-2.07,1.36,3,3,0,0,0-.14.39l-.13,0A2.71,2.71,0,0,0,41,62.51c0,.39,0,.86.27,1h0a1,1,0,0,1,0-.39.91.91,0,0,1,.5-.63.66.66,0,0,1,.34-.08.83.83,0,0,1,.63.29.82.82,0,0,1,.18.33c.11,0,.16-.18.11-.37A2.73,2.73,0,0,1,43,61a2.34,2.34,0,0,0,.65,2s.21.13.31.06a2.62,2.62,0,0,1-.12-.54,1.15,1.15,0,0,1,1-1.3h.18a.9.9,0,0,1,.75.41,1.38,1.38,0,0,1,.07,1.26,1.91,1.91,0,0,0-.06.21h0a.88.88,0,0,0,.68-.18s.94-.58.76-3.17A1.52,1.52,0,0,0,45.4,58.41ZM42.76,50a.91.91,0,0,1,.71-.19,3,3,0,0,0-3.06-.36l-.14-.06a3,3,0,0,0-2.49.4c-.86.74-1.45,1.93-.34,2.78.75.58,1.46,1,2.29.27.05-.05-.25-.27-.48-.61a1.38,1.38,0,0,1-.39-.9,1,1,0,0,1,.42-.75,1.17,1.17,0,0,1,1.49.16,1,1,0,0,1,.18.18c.77.93.56-.11.33-.61a1.93,1.93,0,0,0-.45-.61,1.28,1.28,0,0,1,.75.5,5.24,5.24,0,0,0,.58.84c.27.27.4.21.43,0a1,1,0,0,1-.11-.29A.79.79,0,0,1,42.76,50ZM39.64,51c-.44.3-.19.88.19,1.15s.55.67.9.45c0,0,.42-.35,0-1.3a.73.73,0,0,0-1-.36Zm3.59,0c.18.1.44.35.62.3,0,0,.29-.13.08-.8a.54.54,0,0,0-.75-.29.46.46,0,0,0,0,.79Zm-7.06,6.74.16,0c0-.07-.08-.16-.33-.17a1.71,1.71,0,0,1-1.47-1.24A2.82,2.82,0,0,0,34.92,59c.32.36.79.5.85.43a1,1,0,0,1-.45-.71.76.76,0,0,1,.2-.61A.87.87,0,0,1,36.17,57.78Zm15-9.82a5.73,5.73,0,0,0,.55-.19,3.19,3.19,0,0,0-1.57-2.88,15,15,0,0,1-2.62,2,6.8,6.8,0,0,1-1.6.6c-.36.09-.69.16-1,.21a5,5,0,0,0,1.93-1.17,5.25,5.25,0,0,0,.53-.62,1.87,1.87,0,0,1-.79.48,2.62,2.62,0,0,1-.54.12l.33-.22a2.38,2.38,0,0,0,.93-1.55,2.18,2.18,0,0,1-1.63,1.17h0a3.24,3.24,0,0,1-1.61.53c-1.34,0-1.78.1-1.78.1a8,8,0,0,1,.88,1.87,4.2,4.2,0,0,1,1.61,1.41,26,26,0,0,0,4.92-1c-.87-.14-1.62.22-2.71.08a9.73,9.73,0,0,0,2-.43c.65-.22.7-.85-.31-1.63A3.75,3.75,0,0,1,51.15,48ZM32.33,35a4.13,4.13,0,0,1,2.34-.43l.1.17a6.12,6.12,0,0,0-1.24,1.53,3.64,3.64,0,0,1-1,.19A4.59,4.59,0,0,1,32.33,35ZM44.91,29.2a12.43,12.43,0,0,1,3.24,1.15A10,10,0,0,1,49.52,33,11.22,11.22,0,0,0,44.91,29.2Zm-3.71-.14-.08,0,.34.17a8.06,8.06,0,0,0-3.47,1,6.4,6.4,0,0,1,1.93-1.23,9.72,9.72,0,0,1,3-.24,8.1,8.1,0,0,0-1.7.24ZM34.29,39.38a2.72,2.72,0,0,0-.35.18,2.52,2.52,0,0,0-1.27,1.22l-.05.1s.83,5.28,4.52,3.62c.85-.21,2.39-.07,3.32-.67-.13.39-.36.41-.6.61.6.13.79.35,1.25,0s.42-.22,1,.05a4.89,4.89,0,0,0,2.32.72,2,2,0,0,0,1-.55,2.5,2.5,0,0,1-.86-.4c-.46-.35-.36-.85-.69-1.53l-.32-.36a5.9,5.9,0,0,1-2.29,1.11,3.88,3.88,0,0,1,1.15-1,7,7,0,0,0,.94-.81l-.28-1a4.14,4.14,0,0,1-.5-.44,17,17,0,0,0-3.2-.75l-.44.43A6.06,6.06,0,0,0,37,38.41a6.61,6.61,0,0,0-1-.29,6,6,0,0,0-.55-1.62,7,7,0,0,0-.62,1.55,8.34,8.34,0,0,0-1.73.29,1.83,1.83,0,0,0-.45.15,4.44,4.44,0,0,0-.65-.93l-.25-.32,1.17.51a9,9,0,0,1,1.27-.32l.49-.06a10.63,10.63,0,0,1,.85-1.4,3.64,3.64,0,0,1,1.19,1.79,3.81,3.81,0,0,1,1.29-.92,5.93,5.93,0,0,1,3.06-.5,13,13,0,0,0,1.45,3,6.26,6.26,0,0,1,.48,1.14l-.22-2.85,1,3.57s1.42,2.4,2.51,2.65a4.29,4.29,0,0,0,.83-.31A4.52,4.52,0,0,0,48.45,42a5.53,5.53,0,0,0,.16-.75,6.21,6.21,0,0,0,.07-.73A5.91,5.91,0,0,1,49.11,42,8.36,8.36,0,0,1,48.45,44c.57-.28,1.11-1.76,1.36-2.25a11.83,11.83,0,0,0,1.1-2.61,1.74,1.74,0,0,0-.06-.45c-.25-.85-.66-2-.93-2.75.28.41.52.76.73,1.13a11.38,11.38,0,0,1,.82,1.74,15.66,15.66,0,0,1-.19,2.94,12.43,12.43,0,0,0,2.48-2.86,5.37,5.37,0,0,0,.81-4.35,7.16,7.16,0,0,0-2.42-3L52,31.41,51.87,31a6.52,6.52,0,0,0-1.25-1.36,5.83,5.83,0,0,0-1.72-.75l-.51,0a17.32,17.32,0,0,0-1.76.11,15.68,15.68,0,0,0-4.33-1.74l-.47.22a1.57,1.57,0,0,1,.48-.87,28.57,28.57,0,0,1,3,1.27,13.08,13.08,0,0,0,2.88-.15.69.69,0,0,0,.16-.45,7.76,7.76,0,0,0-2-1.24,13,13,0,0,1-1.15-.8,8.4,8.4,0,0,0-.85,0,17.56,17.56,0,0,0-2.45.29l-.34.13a3.55,3.55,0,0,0-1.21.78,3.6,3.6,0,0,1-.69.32c-.86.28-2.14.61-2.51.76a17.12,17.12,0,0,0-1.59.84l-1.21,1.53a6.9,6.9,0,0,0-.6.85,12.71,12.71,0,0,0-2.47,1.12c-.13.1-.32.36-.24.46a.76.76,0,0,0,.32.19,3.28,3.28,0,0,0,.52,0H32a1,1,0,0,0,.56.53,4.39,4.39,0,0,0,.56,0l.35,0a3.91,3.91,0,0,0,.78-.7c.15-.2.36-.52.65-.94A8.73,8.73,0,0,1,36.5,30a11.66,11.66,0,0,1,1.9-.88,11.14,11.14,0,0,0-2.48,2.13,2.12,2.12,0,0,0-.35,1,1.22,1.22,0,0,0,.41.54c.42,0,1.5-.36,1.91-.42a4,4,0,0,0,1.72-1.52,20.35,20.35,0,0,0,3.07-.24,6.08,6.08,0,0,1,1.57,1.31,4.22,4.22,0,0,0-1.4-.59c-.19,0-.81.07-1.06.14a1.84,1.84,0,0,1-.55,1.45c.35,0,1,0,1.69,0A4.45,4.45,0,0,1,45,34.22a4.27,4.27,0,0,0-2.38-.86,19.85,19.85,0,0,0-3.88.2,9,9,0,0,1,1.05,1.65,5.22,5.22,0,0,0-2.16-1.45,7.18,7.18,0,0,0-2.32-.32c-.32,0-.63.05-.94.1a4.89,4.89,0,0,0-3.55,2.91,1.2,1.2,0,0,0,.44.74A6.2,6.2,0,0,0,31.67,39l-.11.12a1,1,0,0,0-.2.23.66.66,0,0,0,0,.52.51.51,0,0,0,.1.21.62.62,0,0,0,.69.1,11.36,11.36,0,0,1,1.26-.6,5.54,5.54,0,0,1,.92-.24Zm-3.06-6.16a1.23,1.23,0,0,0,.4,1.14,7.22,7.22,0,0,1,.86-.51,1,1,0,0,1-.23-.19A.42.42,0,0,1,32,34c-.21,0-.41-.18-.46-.47a.76.76,0,0,1,0-.3Zm8.48-.28a.59.59,0,0,1-.54-.38,4.27,4.27,0,0,1-.76.58c.36,0,1.16,0,1.55-.07.79-.09,1-.54,1-.71a1.18,1.18,0,0,0-.2-.77c-.29,0-.4,0-.72.06l0,0a.83.83,0,0,1,.19.5A.65.65,0,0,1,39.71,32.94ZM38.18,55.31c.48-1.39.21-1.64-.88-2.43s-1.95-.14-2.51.93a2.41,2.41,0,0,0,0,2.32A1.69,1.69,0,0,0,36,57c.52.09,1.3.09.6-.36a2.78,2.78,0,0,1-.42-.22,1.17,1.17,0,0,1-.37-1.6l.12-.16a.9.9,0,0,1,.69-.31,1.29,1.29,0,0,1,1,.63,1,1,0,0,1,.13.16C38.07,55.56,38.18,55.31,38.18,55.31Zm-3.6-27.5a3.14,3.14,0,0,0-.74,1.09,5.82,5.82,0,0,0,1.39-.69A1.94,1.94,0,0,0,34.58,27.81ZM36.5,59.26c.67-.21.6-.52.6-.52-.05-.18-.41-.25-.59-.34a.45.45,0,0,0-.68.4.53.53,0,0,0,.67.45Zm1.33-2.87c.26-.32-.2-.71-.32-1-.23-.42-.76-.75-1.12-.35a.74.74,0,0,0,.06,1l.09.07c.89.55,1.29.19,1.29.19Zm2-9.19a13,13,0,0,1,1.65.26c-.22-.42-.52-1-1.95-1.32-.32-.06-.51,0-.79-.08A3.88,3.88,0,0,0,37,46a5.21,5.21,0,0,1-3-.45,3.89,3.89,0,0,0,.26.91c.76.85,1.22,1.59,1.48,1.76a2.46,2.46,0,0,1,.85,1.21,3,3,0,0,0-1.08-.72A5.85,5.85,0,0,0,35.68,50a10.49,10.49,0,0,1-.29,1.69c.31-.26.56-.32.62-.63a2.66,2.66,0,0,1,2-2.24,3.64,3.64,0,0,1,2.24-.15c.18.11.85-.22,1.48-.07a3,3,0,0,0-1.49-.91,9.59,9.59,0,0,0-2.55-.34A7.11,7.11,0,0,1,39.79,47.2Zm-4.1-19.32A17.84,17.84,0,0,1,38,26.63a6.33,6.33,0,0,0-1.86-.4,6.65,6.65,0,0,0-1.52.72,4.58,4.58,0,0,1,1.12.93Z"/><path class="cls-3" d="M37.65,12.65c-.41-.12-.79-.09-.79-.37s.2-.31.47-.31a1.87,1.87,0,0,1,.91.28l.17-1.12a2.5,2.5,0,0,0-1.25-.34,1.57,1.57,0,0,0-1.76,1.54,1.42,1.42,0,0,0,1,1.43c.44.15.89.1.89.38s-.19.33-.49.34a2.12,2.12,0,0,1-1.11-.42l-.32,1.14a3,3,0,0,0,1.54.47,1.68,1.68,0,0,0,1.85-1.62,1.4,1.4,0,0,0-1.09-1.4Zm3.64,9.47a1.15,1.15,0,0,1-.37,0V18.41a1.69,1.69,0,0,1,.32,0c.57.06,1.21.51,1.21,1.85S41.85,22,41.29,22.12Zm-.45-5.55c-.83,0-1.55,0-2.15,0v7.33c.48,0,.88.05,1.36.05,3.18,0,4.63-1.26,4.63-3.69S43.29,16.6,40.84,16.57Zm-5,0H33.57v7.33h4.58V22.1H35.8Zm-5.12,0H28.45v7.33H33V22.1H30.68Zm25.64,4.71h1.12v.76a1.51,1.51,0,0,1-.83.25c-.88,0-1.63-.75-1.63-2a1.89,1.89,0,0,1,1.68-2.11,1.58,1.58,0,0,1,1.21.53L58.53,17a4.09,4.09,0,0,0-2-.57,3.8,3.8,0,0,0-3.75,3.93,3.67,3.67,0,0,0,3.79,3.81,4.43,4.43,0,0,0,2.68-.93V19.66H56.32Zm7.07-1.92c-.64-.19-1.22-.15-1.22-.59s.3-.47.72-.47a2.94,2.94,0,0,1,1.41.43L64.57,17a3.91,3.91,0,0,0-1.94-.54,2.43,2.43,0,0,0-2.73,2.39,2.19,2.19,0,0,0,1.52,2.21c.68.23,1.38.16,1.38.6,0,.29-.29.5-.75.51a3.12,3.12,0,0,1-1.72-.64l-.49,1.76a4.64,4.64,0,0,0,2.37.73,2.59,2.59,0,0,0,2.86-2.51A2.14,2.14,0,0,0,63.39,19.39ZM55,15.59V10.85H53.53v2.47l-1.32-2.47H50.88v4.74h1.44v-2.4l1.33,2.4Zm-24.75,0,1.27-4.74H30.12l-.66,2.91-.76-2.91H27.64l-.75,2.91-.66-2.91h-1.4l1.36,4.74h1.27l.72-2.88.72,2.88Zm18.49,6.76c-.77,0-1.29-.83-1.29-2s.52-2,1.3-2,1.29.8,1.29,2S49.49,22.35,48.71,22.35Zm0-5.9a3.6,3.6,0,0,0-3.53,3.89,3.55,3.55,0,1,0,7.06,0,3.59,3.59,0,0,0-3.53-3.87Zm-2.36-2H44.53v-.67h1.29V12.69H44.53V12h1.71V10.86H43.09v4.73h3.26V14.41Zm-6.26,1.18h1.44V12.05h1.24V10.86H38.86v1.19h1.23v3.54ZM35,14.41H33.16v-.67h1.29V12.69H33.16V12h1.71V10.86H31.72v4.73H35V14.41ZM48.26,12a.71.71,0,0,1,.25,0,.54.54,0,0,1,.41.6.6.6,0,0,1-.39.62.82.82,0,0,1-.27,0V12Zm0,2.43a2.18,2.18,0,0,0,.35,0L49,15.59H50.5l-.61-1.7a1.78,1.78,0,0,0,.48-1.27c0-1.08-.74-1.76-2-1.79-.4,0-1.07,0-1.5,0v4.74h1.44ZM25.42,21.17a.87.87,0,0,1-.84,1c-.48,0-.83-.36-.83-1V16.6H21.51v4.5a2.92,2.92,0,0,0,3.11,3,2.9,2.9,0,0,0,3-3.11V16.6H25.42Zm-7.54,1a2.68,2.68,0,0,1-.42,0V20.88a1.47,1.47,0,0,1,.38,0,.67.67,0,0,1,.7.68A.62.62,0,0,1,17.88,22.2Zm-.42-3.84a1.25,1.25,0,0,1,.39,0c.25,0,.61.12.61.55s-.28.51-.63.57a1.18,1.18,0,0,1-.37,0ZM19.61,20a1.56,1.56,0,0,0,1-1.51c0-.84-.51-1.93-3.08-1.93-.57,0-1.28,0-2.25.05v7.33c.72,0,1.31.07,2.17.07,2.19,0,3.5-.73,3.5-2.22A1.76,1.76,0,0,0,19.61,20Z"/><path class="cls-1" d="M0,0H80V80H0Z"/></svg>