<svg id="Layer_1" data-name="Layer 1" xmlns="http://www.w3.org/2000/svg" viewBox="0 0 80 80"><defs><style>.cls-1{fill:#003087;}.cls-2{fill:#fff;}.cls-3{fill:#f2a900;}.cls-4{fill:none;}</style></defs><title>west-coast-eagles</title><path class="cls-1" d="M54.89,25.39a7.87,7.87,0,0,1,1.65.12,3.46,3.46,0,0,1,1.06-.75,4.11,4.11,0,0,0-2.71.63"/><path class="cls-1" d="M59.38,35.27c1.15-3.24-3.05-3.56-3.05-3.56C54.19,29,40.06,30,40.06,30c5.1-2.69,14.48-5.75,14.48-5.75a10,10,0,0,0-2.34-1.49l1.35-.45a25.27,25.27,0,0,0-6.1-2.52,20.2,20.2,0,0,1,3.08,2.28S46.08,20,37.69,20.41a35.42,35.42,0,0,1,5,2.54A3.24,3.24,0,0,1,44,22.31c-.08,1.11,1.4,2.13,3.32,2.27a5.38,5.38,0,0,0,2-.22,4.2,4.2,0,0,1-3.15,1.07c-2.64,0-3.41-1.41-3.41-1.41a40.71,40.71,0,0,0-6,2.34,45.74,45.74,0,0,1,5.25-.05S33.79,29.41,22,40.49c0,0-1.87-5.82,2-10.3,0,0,1.33-1.06,6.88-2.92,0,0-8.09,1.67-12.87,3.26,0,0,1.16-4.63,7.06-7.43A46.84,46.84,0,0,1,32.11,22a82.66,82.66,0,0,0-11.86.2,17.32,17.32,0,0,1,8.9-5.23s.6-.08,4-.06c0,0-3.11-1-7.68-2.07,0,0,18.73-1.51,30.46,6.79L54.69,22s5.37,1.93,7.47,4.76c2.92,3.78-2.78,8.49-2.78,8.49m-13.17-2c1.76-1,3.59-2.06,3.59-2.06,3.76-.14,5.3.69,5.3.69a48.45,48.45,0,0,0-8.89,1.37M38.47,43.37a7.1,7.1,0,0,1-3.63-3.56,14.2,14.2,0,0,1,10-6.08,26.69,26.69,0,0,0-6.34,9.64M29.53,45A13.16,13.16,0,0,1,26,38.82a19.27,19.27,0,0,1,15.71-6.53A30.38,30.38,0,0,0,29.53,45m28.1-23.44s.64-.22,1.2-.37c0,0-13.33-11.12-39.8-7.87,0,0,3.37,1.4,6.3,3,0,0-4.63,1.36-9.34,7.71l4.25-.13s-3.81,2.74-5.18,9.57c0,0,2.14-.77,5.44-1.59,0,0-2.54,4.44.81,12.45a37.54,37.54,0,0,1,3.31-3.46,14.46,14.46,0,0,0,5.65,7.39,41,41,0,0,1,3.45-6.34s1.47,2.65,5.81,4c4.15-12.63,15.06-12.1,15.06-12.1,5.52-.14,2.11,4.33,2.11,4.33s6.86-2,8.1-8.34c0,0,1-4.46-7.17-8.18"/><path class="cls-1" d="M25.82,63.25l-.45-1.89-.21-1.18-.51,1.18-.95,1.89Zm4.39,4.51A12.92,12.92,0,0,1,28,68a8,8,0,0,1-1.13-.09L26.44,66H22.3l-.95,1.9c-.51,0-1,.07-1.52.07a5.66,5.66,0,0,1-1.7-.2l6-11.68A11.07,11.07,0,0,1,25.84,56a9.35,9.35,0,0,1,1.6.11ZM51,66.44a6.64,6.64,0,0,1-.34,1.45H42.73l1.59-11.81A10.6,10.6,0,0,1,46,55.93a9.88,9.88,0,0,1,1.63.15l-1.19,8.83h4.62A7.16,7.16,0,0,1,51,66.44m10.78.33a4,4,0,0,1,1.79-2.67A5.73,5.73,0,0,0,67,65.15c1.09,0,1.48-.2,1.53-.59s-.13-.64-2.07-1.16-3.63-1.29-3.32-3.71,2.46-3.92,5.36-3.92A6.31,6.31,0,0,1,72.59,57a4,4,0,0,1-1.86,2.69,4.78,4.78,0,0,0-2.91-.89c-.92,0-1.41.22-1.46.59s.07.55,2.23,1.09S72,62,71.79,64c-.3,2.72-2.33,4.17-5.29,4.17a6.9,6.9,0,0,1-4.72-1.41M60.72,65H55.83l.22-1.61h4.19a6.27,6.27,0,0,0,.34-1.44,5.91,5.91,0,0,0,.05-1.45H56.44L56.63,59h4.73a7.44,7.44,0,0,0,.4-2.92h-9.5l1.26,1.46L52.13,67.89h8.2a7.49,7.49,0,0,0,.35-1.47,6.49,6.49,0,0,0,0-1.46M17.19,65H12.3l.22-1.61h4.19a6.27,6.27,0,0,0,.34-1.44,5.91,5.91,0,0,0,.05-1.45H12.91L13.1,59h4.73a7.44,7.44,0,0,0,.4-2.92H8.73L10,57.54,8.6,67.89h8.2a7.13,7.13,0,0,0,.35-1.47,6.49,6.49,0,0,0,0-1.46m19.66-4.12a4.88,4.88,0,0,0-.55,2.42h1.86l-.3,1.82a10.08,10.08,0,0,1-1,0c-1.69,0-2.59-1.21-2.33-3.15s1.45-3.14,3.23-3.14a3.47,3.47,0,0,1,2.09.61A4.77,4.77,0,0,0,42,56.69a6.64,6.64,0,0,0-3.78-1A7.16,7.16,0,0,0,30.89,62c-.5,3.72,1.5,6.2,5.53,6.2a9.54,9.54,0,0,0,4.45-.94l.87-6.46Zm-12.93-11-.28,0h-.06v0a17,17,0,0,1-1.11,3.48c-.14-.88-.26-2-.34-3.31v-.06h-.06a2.5,2.5,0,0,0-.55,0,2.57,2.57,0,0,0-.57,0h-.05v.05a14.49,14.49,0,0,1-1.1,3.33A22.41,22.41,0,0,1,19.54,50V49.9h-.06a1.3,1.3,0,0,0-.34,0,4.94,4.94,0,0,0-.87.08l-.06,0V50a18.84,18.84,0,0,0,.68,4.6v0H19a5.77,5.77,0,0,0,.62,0,4.15,4.15,0,0,0,.59,0h0v0a8.48,8.48,0,0,0,1.07-2.32,13.15,13.15,0,0,0,.35,2.3v.05h0a4,4,0,0,0,.6,0,3.64,3.64,0,0,0,.6,0h0l0,0A16.76,16.76,0,0,0,24.81,50l0-.06-.06,0A3.48,3.48,0,0,0,23.92,49.87Zm4.9.05H25.76l-.64,4.77h3.12l0,0a1.76,1.76,0,0,0,.14-1v-.06h-1.9l.11-.81h1.63l0,0a1.68,1.68,0,0,0,.13-1v-.06H26.74l.09-.71h1.84l0,0a1.54,1.54,0,0,0,.14-1v-.06Zm2.8-.13a2,2,0,0,0-1.51.56,1.42,1.42,0,0,0-.4,1.09c0,1,.79,1.22,1.35,1.4.4.14.64.23.65.45a.29.29,0,0,1-.08.25.75.75,0,0,1-.53.13,1.88,1.88,0,0,1-1.2-.4l0,0-.05,0a1.36,1.36,0,0,0-.63.9v0l0,0a2.55,2.55,0,0,0,1.79.57,2,2,0,0,0,1.52-.55,1.52,1.52,0,0,0,.41-1.16c0-1-.83-1.26-1.4-1.45-.34-.12-.6-.21-.61-.39a.21.21,0,0,1,.06-.17.74.74,0,0,1,.54-.15,1.75,1.75,0,0,1,1,.32l0,0,0,0a1.33,1.33,0,0,0,.62-.91v0l0,0A2.31,2.31,0,0,0,31.62,49.79Zm6.19.13H34.15l0,0A2.51,2.51,0,0,0,34,51V51h1.23l-.5,3.66h.07a2.31,2.31,0,0,0,.54.05,2.59,2.59,0,0,0,.56-.05H36l.5-3.66h1.22V51a2.23,2.23,0,0,0,.14-1Zm5.06-.17a2.59,2.59,0,0,0-1.88.77,3,3,0,0,0-.77,2.25,2,2,0,0,0,2.16,2,2.4,2.4,0,0,0,1.54-.48l0,0v0a1.08,1.08,0,0,0-.54-.91l0,0,0,0a1.16,1.16,0,0,1-.81.28,1,1,0,0,1-1-1A1.86,1.86,0,0,1,42,51.26a1.07,1.07,0,0,1,.81-.34,1,1,0,0,1,.73.25l0,0,0,0a1.54,1.54,0,0,0,.73-.89v0l0,0A2,2,0,0,0,42.87,49.75Zm4.39,0a2.4,2.4,0,0,0-1.79.73,3.05,3.05,0,0,0-.74,2.26,2,2,0,0,0,2.14,2.07,2.44,2.44,0,0,0,1.79-.72,3,3,0,0,0,.74-2.27A2,2,0,0,0,47.26,49.76Zm.43,3.6a1,1,0,0,1-.74.3c-.55,0-.88-.38-.91-1a1.92,1.92,0,0,1,.4-1.4,1,1,0,0,1,.73-.3c.72,0,.89.57.91,1a1.88,1.88,0,0,1-.39,1.4ZM53,49.92a2.47,2.47,0,0,0-.54-.05,3.17,3.17,0,0,0-.58.05h0L49.5,54.61l.08,0a1.84,1.84,0,0,0,.58.08,3.89,3.89,0,0,0,.51,0h0l.43-.91h1.49l.18.9h0a1.94,1.94,0,0,0,.4,0,3.53,3.53,0,0,0,.73-.09l.07,0-1-4.69Zm-1.35,2.85.48-1,.09-.21,0,.19.2,1Zm5.5-3a2,2,0,0,0-1.51.56,1.42,1.42,0,0,0-.4,1.09c0,1,.8,1.22,1.35,1.4.4.14.64.23.65.45a.33.33,0,0,1-.07.25.79.79,0,0,1-.54.13,1.84,1.84,0,0,1-1.19-.4l0,0,0,0a1.36,1.36,0,0,0-.63.9v0l0,0a2.56,2.56,0,0,0,1.8.57A2,2,0,0,0,58,54.26a1.52,1.52,0,0,0,.41-1.16c0-1-.83-1.26-1.4-1.46-.34-.11-.6-.2-.61-.38a.26.26,0,0,1,.07-.18.77.77,0,0,1,.53-.14,1.72,1.72,0,0,1,1,.32l0,0,0,0a1.35,1.35,0,0,0,.62-.91v0l0,0A2.31,2.31,0,0,0,57.12,49.79Zm6.2.19v-.07H59.66l0,.05a2.3,2.3,0,0,0-.14,1V51h1.23l-.5,3.66h.07a3.1,3.1,0,0,0,.54.05,2.59,2.59,0,0,0,.56-.05h.05L62,51h1.22l0-.05A2.38,2.38,0,0,0,63.32,50Z"/><path class="cls-2" d="M46.07,22.87a1,1,0,0,1-.74-.76,10.47,10.47,0,0,1,2.31.14,8,8,0,0,0-1.57.62"/><path class="cls-3" d="M62.16,26.78c2.92,3.78-2.78,8.49-2.78,8.49,1.15-3.24-3.05-3.56-3.05-3.56C54.19,29,40.06,30,40.06,30c5.1-2.69,14.48-5.74,14.48-5.74a9.67,9.67,0,0,0-2.34-1.49l1.35-.46a25.27,25.27,0,0,0-6.1-2.52,20.2,20.2,0,0,1,3.08,2.28S46.08,20,37.69,20.41a35.42,35.42,0,0,1,5,2.54A3.24,3.24,0,0,1,44,22.31c-.08,1.11,1.4,2.13,3.32,2.27a5.28,5.28,0,0,0,2-.22,4.23,4.23,0,0,1-3.15,1.08c-2.64,0-3.41-1.41-3.41-1.41a40.18,40.18,0,0,0-6,2.33,45.74,45.74,0,0,1,5.25-.05S33.79,29.41,22,40.49c0,0-1.87-5.82,2-10.3,0,0,1.33-1.06,6.88-2.92,0,0-8.09,1.67-12.87,3.26,0,0,1.16-4.63,7.06-7.43A46.84,46.84,0,0,1,32.11,22a82.66,82.66,0,0,0-11.86.2,17.32,17.32,0,0,1,8.9-5.23s.6-.08,4-.06c0,0-3.11-1-7.68-2.07,0,0,18.73-1.51,30.46,6.79L54.69,22s5.37,1.93,7.47,4.76m-5.61-1.27a3.32,3.32,0,0,1,1.05-.75,4.11,4.11,0,0,0-2.71.63,7.87,7.87,0,0,1,1.65.12M46.21,33.28a48.45,48.45,0,0,1,8.89-1.37s-1.54-.83-5.3-.69c0,0-1.83,1.08-3.59,2.06M38.47,43.37a26.69,26.69,0,0,1,6.34-9.64,14.2,14.2,0,0,0-10,6.08,7.1,7.1,0,0,0,3.63,3.56M26,38.82a19.27,19.27,0,0,1,15.71-6.53A30.38,30.38,0,0,0,29.53,45,13.16,13.16,0,0,1,26,38.82"/><path class="cls-4" d="M0,0H80V80H0Z"/></svg>